solid OpenSCAD_Model
  facet normal -0 0 -1
    outer loop
      vertex -20 0 0
      vertex -19.7815 2.07912 0
      vertex -19.7815 -2.07912 0
    endloop
  endfacet
  facet normal 0 -0 -1
    outer loop
      vertex -19.7815 -2.07912 0
      vertex -19.7815 2.07912 0
      vertex -19.1355 4.06737 0
    endloop
  endfacet
  facet normal 0 0 -1
    outer loop
      vertex -19.7815 -2.07912 0
      vertex -19.1355 4.06737 0
      vertex -18.0902 5.87785 0
    endloop
  endfacet
  facet normal 0 0 -1
    outer loop
      vertex -19.7815 -2.07912 0
      vertex -18.0902 5.87785 0
      vertex -16.6913 7.43145 0
    endloop
  endfacet
  facet normal 0 0 -1
    outer loop
      vertex -19.7815 -2.07912 0
      vertex -16.6913 7.43145 0
      vertex -15 8.66025 0
    endloop
  endfacet
  facet normal 0 0 -1
    outer loop
      vertex -19.7815 -2.07912 0
      vertex -15 8.66025 0
      vertex -13.0902 9.51056 0
    endloop
  endfacet
  facet normal 0 0 -1
    outer loop
      vertex -19.7815 -2.07912 0
      vertex -13.0902 9.51056 0
      vertex -11.0453 9.94522 0
    endloop
  endfacet
  facet normal 0 0 -1
    outer loop
      vertex -14.7648 4.42112 0
      vertex -11.0453 9.94522 0
      vertex -10 9.94522 0
    endloop
  endfacet
  facet normal 0 -0 -1
    outer loop
      vertex -10 9.94522 0
      vertex -10 10 0
      vertex 20 10 0
    endloop
  endfacet
  facet normal -0 0 -1
    outer loop
      vertex -10 9.94522 0
      vertex 20 10 0
      vertex -7.5375 6 0
    endloop
  endfacet
  facet normal 0 0 -1
    outer loop
      vertex -10 9.94522 0
      vertex -7.5375 6 0
      vertex -7.62528 6.05068 0
    endloop
  endfacet
  facet normal -0 -0 -1
    outer loop
      vertex -11.0453 -9.94522 0
      vertex -11.4464 -6.33703 0
      vertex -10 -9.94522 0
    endloop
  endfacet
  facet normal 0 0 -1
    outer loop
      vertex -10 9.94522 0
      vertex -7.62528 6.05068 0
      vertex -9.51425 6.48182 0
    endloop
  endfacet
  facet normal 0 0 -1
    outer loop
      vertex -10 9.94522 0
      vertex -9.51425 6.48182 0
      vertex -11.4464 6.33703 0
    endloop
  endfacet
  facet normal 0 0 -1
    outer loop
      vertex -10 9.94522 0
      vertex -11.4464 6.33703 0
      vertex -13.25 5.62916 0
    endloop
  endfacet
  facet normal 0 0 -1
    outer loop
      vertex -19.7815 -2.07912 0
      vertex -11.0453 9.94522 0
      vertex -14.7648 4.42112 0
    endloop
  endfacet
  facet normal 0 -0 -1
    outer loop
      vertex -16.4274 0.968775 0
      vertex -19.7815 -2.07912 0
      vertex -15.8563 2.82024 0
    endloop
  endfacet
  facet normal 0 0 -1
    outer loop
      vertex -19.7815 -2.07912 0
      vertex -14.7648 4.42112 0
      vertex -15.8563 2.82024 0
    endloop
  endfacet
  facet normal 0 0 -1
    outer loop
      vertex -16.4274 -0.968775 0
      vertex -19.7815 -2.07912 0
      vertex -16.4274 0.968775 0
    endloop
  endfacet
  facet normal 0 0 -1
    outer loop
      vertex -14.7648 4.42112 0
      vertex -10 9.94522 0
      vertex -13.25 5.62916 0
    endloop
  endfacet
  facet normal 0 0 -1
    outer loop
      vertex -15.8563 -2.82024 0
      vertex -19.7815 -2.07912 0
      vertex -16.4274 -0.968775 0
    endloop
  endfacet
  facet normal 0 0 -1
    outer loop
      vertex 20 -6 0
      vertex -7.62528 -6.05068 0
      vertex -7.5375 -6 0
    endloop
  endfacet
  facet normal 0 0 -1
    outer loop
      vertex -19.7815 -2.07912 0
      vertex -15.8563 -2.82024 0
      vertex -14.7648 -4.42112 0
    endloop
  endfacet
  facet normal 0 0 -1
    outer loop
      vertex -14.7648 -4.42112 0
      vertex -13.25 -5.62916 0
      vertex -19.7815 -2.07912 0
    endloop
  endfacet
  facet normal 0 0 -1
    outer loop
      vertex -11.0453 -9.94522 0
      vertex -13.25 -5.62916 0
      vertex -11.4464 -6.33703 0
    endloop
  endfacet
  facet normal 0 0 -1
    outer loop
      vertex -11.0453 -9.94522 0
      vertex -19.7815 -2.07912 0
      vertex -13.25 -5.62916 0
    endloop
  endfacet
  facet normal -0 0 -1
    outer loop
      vertex -7.62528 -6.05068 0
      vertex 20 -6 0
      vertex -9.51425 -6.48182 0
    endloop
  endfacet
  facet normal -0 0 -1
    outer loop
      vertex -9.51425 -6.48182 0
      vertex 20 -6 0
      vertex 20 -10 0
    endloop
  endfacet
  facet normal 0 0 -1
    outer loop
      vertex -9.51425 -6.48182 0
      vertex 20 -10 0
      vertex -11.4464 -6.33703 0
    endloop
  endfacet
  facet normal 0 0 -1
    outer loop
      vertex -10 -9.94522 0
      vertex 20 -10 0
      vertex -10 -10 0
    endloop
  endfacet
  facet normal 0 0 -1
    outer loop
      vertex -11.4464 -6.33703 0
      vertex 20 -10 0
      vertex -10 -9.94522 0
    endloop
  endfacet
  facet normal 0 0 -1
    outer loop
      vertex -19.7815 -2.07912 0
      vertex -11.0453 -9.94522 0
      vertex -13.0902 -9.51056 0
    endloop
  endfacet
  facet normal 0 0 -1
    outer loop
      vertex -19.7815 -2.07912 0
      vertex -13.0902 -9.51056 0
      vertex -15 -8.66025 0
    endloop
  endfacet
  facet normal 0 0 -1
    outer loop
      vertex -19.7815 -2.07912 0
      vertex -15 -8.66025 0
      vertex -16.6913 -7.43145 0
    endloop
  endfacet
  facet normal 0 0 -1
    outer loop
      vertex -19.7815 -2.07912 0
      vertex -16.6913 -7.43145 0
      vertex -18.0902 -5.87785 0
    endloop
  endfacet
  facet normal 0 0 -1
    outer loop
      vertex -19.7815 -2.07912 0
      vertex -18.0902 -5.87785 0
      vertex -19.1355 -4.06737 0
    endloop
  endfacet
  facet normal -0 0 -1
    outer loop
      vertex -7.5375 6 0
      vertex 20 10 0
      vertex 20 6 0
    endloop
  endfacet
  facet normal -0.994522 0.104528 0
    outer loop
      vertex -20 0 0
      vertex -20 0 15
      vertex -19.7815 2.07912 0
    endloop
  endfacet
  facet normal -0.994522 0.104528 0
    outer loop
      vertex -19.7815 2.07912 0
      vertex -20 0 15
      vertex -19.7815 2.07912 15
    endloop
  endfacet
  facet normal -0.994522 -0.104528 -0
    outer loop
      vertex -20 0 0
      vertex -19.7815 -2.07912 0
      vertex -20 0 15
    endloop
  endfacet
  facet normal -0.994522 -0.104528 0
    outer loop
      vertex -20 0 15
      vertex -19.7815 -2.07912 0
      vertex -19.7815 -2.07912 15
    endloop
  endfacet
  facet normal -0.951057 -0.309017 -0
    outer loop
      vertex -19.7815 -2.07912 0
      vertex -19.1355 -4.06737 0
      vertex -19.7815 -2.07912 15
    endloop
  endfacet
  facet normal -0.951057 -0.309017 0
    outer loop
      vertex -19.7815 -2.07912 15
      vertex -19.1355 -4.06737 0
      vertex -19.1355 -4.06737 15
    endloop
  endfacet
  facet normal -0.866025 -0.5 -0
    outer loop
      vertex -19.1355 -4.06737 0
      vertex -18.0902 -5.87785 0
      vertex -19.1355 -4.06737 15
    endloop
  endfacet
  facet normal -0.866025 -0.5 0
    outer loop
      vertex -19.1355 -4.06737 15
      vertex -18.0902 -5.87785 0
      vertex -18.0902 -5.87785 15
    endloop
  endfacet
  facet normal -0.743145 -0.669131 -0
    outer loop
      vertex -18.0902 -5.87785 0
      vertex -16.6913 -7.43145 0
      vertex -18.0902 -5.87785 15
    endloop
  endfacet
  facet normal -0.743145 -0.669131 0
    outer loop
      vertex -18.0902 -5.87785 15
      vertex -16.6913 -7.43145 0
      vertex -16.6913 -7.43145 15
    endloop
  endfacet
  facet normal -0.587785 -0.809017 0
    outer loop
      vertex -16.6913 -7.43145 15
      vertex -16.6913 -7.43145 0
      vertex -15 -8.66025 0
    endloop
  endfacet
  facet normal -0.587785 -0.809017 0
    outer loop
      vertex -15 -8.66025 15
      vertex -16.6913 -7.43145 15
      vertex -15 -8.66025 0
    endloop
  endfacet
  facet normal -0.406737 -0.913545 0
    outer loop
      vertex -15 -8.66025 15
      vertex -15 -8.66025 0
      vertex -13.0902 -9.51056 0
    endloop
  endfacet
  facet normal -0.406737 -0.913545 0
    outer loop
      vertex -13.0902 -9.51056 15
      vertex -15 -8.66025 15
      vertex -13.0902 -9.51056 0
    endloop
  endfacet
  facet normal -0.207912 -0.978148 0
    outer loop
      vertex -13.0902 -9.51056 15
      vertex -13.0902 -9.51056 0
      vertex -11.0453 -9.94522 0
    endloop
  endfacet
  facet normal -0.207912 -0.978148 0
    outer loop
      vertex -11.0453 -9.94522 15
      vertex -13.0902 -9.51056 15
      vertex -11.0453 -9.94522 0
    endloop
  endfacet
  facet normal 0 -1 0
    outer loop
      vertex -11.0453 -9.94522 15
      vertex -11.0453 -9.94522 0
      vertex -10 -9.94522 0
    endloop
  endfacet
  facet normal 0 -1 0
    outer loop
      vertex -10 -9.94522 15
      vertex -11.0453 -9.94522 15
      vertex -10 -9.94522 0
    endloop
  endfacet
  facet normal -1 -0 -0
    outer loop
      vertex -10 -10 0
      vertex -10 -10 15
      vertex -10 -9.94522 0
    endloop
  endfacet
  facet normal -1 0 0
    outer loop
      vertex -10 -9.94522 0
      vertex -10 -10 15
      vertex -10 -9.94522 15
    endloop
  endfacet
  facet normal 0 -1 0
    outer loop
      vertex 11.0654 -10 3.4053
      vertex -10 -10 0
      vertex 20 -10 0
    endloop
  endfacet
  facet normal 0 -1 0
    outer loop
      vertex -10 -10 15
      vertex -10 -10 0
      vertex 8.21593 -10 5.67769
    endloop
  endfacet
  facet normal 0 -1 0
    outer loop
      vertex 12.9346 -10 3.4053
      vertex 11.0654 -10 3.4053
      vertex 20 -10 0
    endloop
  endfacet
  facet normal 0 -1 0
    outer loop
      vertex 8.21593 -10 9.32231
      vertex -10 -10 15
      vertex 7.8 -10 7.5
    endloop
  endfacet
  facet normal 0 -1 0
    outer loop
      vertex 9.38134 -10 10.7837
      vertex -10 -10 15
      vertex 8.21593 -10 9.32231
    endloop
  endfacet
  facet normal -0 -1 0
    outer loop
      vertex 12.9346 -10 11.5947
      vertex 14.6187 -10 10.7837
      vertex 20 -10 15
    endloop
  endfacet
  facet normal 0 -1 0
    outer loop
      vertex 11.0654 -10 11.5947
      vertex -10 -10 15
      vertex 9.38134 -10 10.7837
    endloop
  endfacet
  facet normal 0 -1 0
    outer loop
      vertex 20 -10 15
      vertex -10 -10 15
      vertex 11.0654 -10 11.5947
    endloop
  endfacet
  facet normal 0 -1 0
    outer loop
      vertex 15.7841 -10 9.32231
      vertex 16.2 -10 7.5
      vertex 20 -10 0
    endloop
  endfacet
  facet normal 0 -1 0
    outer loop
      vertex 14.6187 -10 4.21631
      vertex 12.9346 -10 3.4053
      vertex 20 -10 0
    endloop
  endfacet
  facet normal 0 -1 0
    outer loop
      vertex 20 -10 15
      vertex 15.7841 -10 9.32231
      vertex 20 -10 0
    endloop
  endfacet
  facet normal 0 -1 0
    outer loop
      vertex 20 -10 15
      vertex 14.6187 -10 10.7837
      vertex 15.7841 -10 9.32231
    endloop
  endfacet
  facet normal 0 -1 0
    outer loop
      vertex 16.2 -10 7.5
      vertex 15.7841 -10 5.67769
      vertex 20 -10 0
    endloop
  endfacet
  facet normal 0 -1 0
    outer loop
      vertex 15.7841 -10 5.67769
      vertex 14.6187 -10 4.21631
      vertex 20 -10 0
    endloop
  endfacet
  facet normal -0 -1 0
    outer loop
      vertex 11.0654 -10 11.5947
      vertex 12.9346 -10 11.5947
      vertex 20 -10 15
    endloop
  endfacet
  facet normal 0 -1 0
    outer loop
      vertex 9.38134 -10 4.21631
      vertex -10 -10 0
      vertex 11.0654 -10 3.4053
    endloop
  endfacet
  facet normal 0 -1 0
    outer loop
      vertex 8.21593 -10 5.67769
      vertex -10 -10 0
      vertex 9.38134 -10 4.21631
    endloop
  endfacet
  facet normal 0 -1 0
    outer loop
      vertex 8.21593 -10 5.67769
      vertex 7.8 -10 7.5
      vertex -10 -10 15
    endloop
  endfacet
  facet normal 1 0 -0
    outer loop
      vertex 20 -10 15
      vertex 20 -10 0
      vertex 20 -6 0
    endloop
  endfacet
  facet normal 1 0 0
    outer loop
      vertex 20 -6 15
      vertex 20 -10 15
      vertex 20 -6 0
    endloop
  endfacet
  facet normal 0 1 -0
    outer loop
      vertex 11.0654 -6 3.4053
      vertex 20 -6 0
      vertex -7.5375 -6 0
    endloop
  endfacet
  facet normal 0 1 -0
    outer loop
      vertex 14.6187 -6 4.21631
      vertex 20 -6 0
      vertex 12.9346 -6 3.4053
    endloop
  endfacet
  facet normal 0 1 -0
    outer loop
      vertex -7.5375 -6 15
      vertex 8.21593 -6 5.67769
      vertex -7.5375 -6 0
    endloop
  endfacet
  facet normal 0 1 -0
    outer loop
      vertex 8.21593 -6 5.67769
      vertex 9.38134 -6 4.21631
      vertex -7.5375 -6 0
    endloop
  endfacet
  facet normal 0 1 -0
    outer loop
      vertex 9.38134 -6 4.21631
      vertex 11.0654 -6 3.4053
      vertex -7.5375 -6 0
    endloop
  endfacet
  facet normal 0 1 -0
    outer loop
      vertex 12.9346 -6 3.4053
      vertex 20 -6 0
      vertex 11.0654 -6 3.4053
    endloop
  endfacet
  facet normal 0 1 -0
    outer loop
      vertex 15.7841 -6 5.67769
      vertex 20 -6 0
      vertex 14.6187 -6 4.21631
    endloop
  endfacet
  facet normal 0 1 0
    outer loop
      vertex 20 -6 15
      vertex 20 -6 0
      vertex 15.7841 -6 5.67769
    endloop
  endfacet
  facet normal 0 1 0
    outer loop
      vertex 9.38134 -6 10.7837
      vertex -7.5375 -6 15
      vertex 11.0654 -6 11.5947
    endloop
  endfacet
  facet normal 0 1 0
    outer loop
      vertex 20 -6 15
      vertex 16.2 -6 7.5
      vertex 15.7841 -6 9.32231
    endloop
  endfacet
  facet normal 0 1 0
    outer loop
      vertex 20 -6 15
      vertex 15.7841 -6 9.32231
      vertex 14.6187 -6 10.7837
    endloop
  endfacet
  facet normal 0 1 0
    outer loop
      vertex 20 -6 15
      vertex 14.6187 -6 10.7837
      vertex 12.9346 -6 11.5947
    endloop
  endfacet
  facet normal 0 1 0
    outer loop
      vertex 20 -6 15
      vertex 12.9346 -6 11.5947
      vertex -7.5375 -6 15
    endloop
  endfacet
  facet normal -0 1 0
    outer loop
      vertex 12.9346 -6 11.5947
      vertex 11.0654 -6 11.5947
      vertex -7.5375 -6 15
    endloop
  endfacet
  facet normal 0 1 0
    outer loop
      vertex 8.21593 -6 9.32231
      vertex -7.5375 -6 15
      vertex 9.38134 -6 10.7837
    endloop
  endfacet
  facet normal 0 1 0
    outer loop
      vertex 7.8 -6 7.5
      vertex -7.5375 -6 15
      vertex 8.21593 -6 9.32231
    endloop
  endfacet
  facet normal 0 1 -0
    outer loop
      vertex 16.2 -6 7.5
      vertex 20 -6 15
      vertex 15.7841 -6 5.67769
    endloop
  endfacet
  facet normal 0 1 0
    outer loop
      vertex 8.21593 -6 5.67769
      vertex -7.5375 -6 15
      vertex 7.8 -6 7.5
    endloop
  endfacet
  facet normal -0.5 0.866026 0
    outer loop
      vertex -7.5375 -6 15
      vertex -7.5375 -6 0
      vertex -7.62528 -6.05068 15
    endloop
  endfacet
  facet normal -0.5 0.866026 0
    outer loop
      vertex -7.62528 -6.05068 15
      vertex -7.5375 -6 0
      vertex -7.62528 -6.05068 0
    endloop
  endfacet
  facet normal -0.222521 0.974928 0
    outer loop
      vertex -7.62528 -6.05068 15
      vertex -7.62528 -6.05068 0
      vertex -9.51425 -6.48182 15
    endloop
  endfacet
  facet normal -0.222521 0.974928 0
    outer loop
      vertex -9.51425 -6.48182 15
      vertex -7.62528 -6.05068 0
      vertex -9.51425 -6.48182 0
    endloop
  endfacet
  facet normal 0.0747305 0.997204 -0
    outer loop
      vertex -9.51425 -6.48182 15
      vertex -9.51425 -6.48182 0
      vertex -11.4464 -6.33703 15
    endloop
  endfacet
  facet normal 0.0747305 0.997204 -0
    outer loop
      vertex -11.4464 -6.33703 15
      vertex -9.51425 -6.48182 0
      vertex -11.4464 -6.33703 0
    endloop
  endfacet
  facet normal 0.365341 0.930874 -0
    outer loop
      vertex -11.4464 -6.33703 15
      vertex -11.4464 -6.33703 0
      vertex -13.25 -5.62916 15
    endloop
  endfacet
  facet normal 0.365341 0.930874 -0
    outer loop
      vertex -13.25 -5.62916 15
      vertex -11.4464 -6.33703 0
      vertex -13.25 -5.62916 0
    endloop
  endfacet
  facet normal 0.62349 0.781832 -0
    outer loop
      vertex -13.25 -5.62916 15
      vertex -13.25 -5.62916 0
      vertex -14.7648 -4.42112 15
    endloop
  endfacet
  facet normal 0.62349 0.781832 -0
    outer loop
      vertex -14.7648 -4.42112 15
      vertex -13.25 -5.62916 0
      vertex -14.7648 -4.42112 0
    endloop
  endfacet
  facet normal 0.826239 0.56332 0
    outer loop
      vertex -15.8563 -2.82024 15
      vertex -14.7648 -4.42112 15
      vertex -14.7648 -4.42112 0
    endloop
  endfacet
  facet normal 0.826239 0.56332 0
    outer loop
      vertex -15.8563 -2.82024 0
      vertex -15.8563 -2.82024 15
      vertex -14.7648 -4.42112 0
    endloop
  endfacet
  facet normal 0.955573 0.294755 0
    outer loop
      vertex -16.4274 -0.968775 15
      vertex -15.8563 -2.82024 15
      vertex -15.8563 -2.82024 0
    endloop
  endfacet
  facet normal 0.955573 0.294755 0
    outer loop
      vertex -16.4274 -0.968775 0
      vertex -16.4274 -0.968775 15
      vertex -15.8563 -2.82024 0
    endloop
  endfacet
  facet normal 1 0 0
    outer loop
      vertex -16.4274 0.968775 0
      vertex -16.4274 0.968775 15
      vertex -16.4274 -0.968775 15
    endloop
  endfacet
  facet normal 1 0 0
    outer loop
      vertex -16.4274 -0.968775 0
      vertex -16.4274 0.968775 0
      vertex -16.4274 -0.968775 15
    endloop
  endfacet
  facet normal 0.955573 -0.294755 0
    outer loop
      vertex -15.8563 2.82024 0
      vertex -15.8563 2.82024 15
      vertex -16.4274 0.968775 15
    endloop
  endfacet
  facet normal 0.955573 -0.294755 0
    outer loop
      vertex -16.4274 0.968775 0
      vertex -15.8563 2.82024 0
      vertex -16.4274 0.968775 15
    endloop
  endfacet
  facet normal 0.826239 -0.56332 0
    outer loop
      vertex -14.7648 4.42112 0
      vertex -14.7648 4.42112 15
      vertex -15.8563 2.82024 15
    endloop
  endfacet
  facet normal 0.826239 -0.56332 0
    outer loop
      vertex -15.8563 2.82024 0
      vertex -14.7648 4.42112 0
      vertex -15.8563 2.82024 15
    endloop
  endfacet
  facet normal 0.62349 -0.781832 0
    outer loop
      vertex -13.25 5.62916 0
      vertex -13.25 5.62916 15
      vertex -14.7648 4.42112 15
    endloop
  endfacet
  facet normal 0.62349 -0.781832 0
    outer loop
      vertex -14.7648 4.42112 0
      vertex -13.25 5.62916 0
      vertex -14.7648 4.42112 15
    endloop
  endfacet
  facet normal 0.365341 -0.930874 0
    outer loop
      vertex -11.4464 6.33703 0
      vertex -11.4464 6.33703 15
      vertex -13.25 5.62916 15
    endloop
  endfacet
  facet normal 0.365341 -0.930874 0
    outer loop
      vertex -13.25 5.62916 0
      vertex -11.4464 6.33703 0
      vertex -13.25 5.62916 15
    endloop
  endfacet
  facet normal 0.0747305 -0.997204 0
    outer loop
      vertex -9.51425 6.48182 0
      vertex -9.51425 6.48182 15
      vertex -11.4464 6.33703 15
    endloop
  endfacet
  facet normal 0.0747305 -0.997204 0
    outer loop
      vertex -11.4464 6.33703 0
      vertex -9.51425 6.48182 0
      vertex -11.4464 6.33703 15
    endloop
  endfacet
  facet normal -0.222521 -0.974928 -0
    outer loop
      vertex -7.62528 6.05068 0
      vertex -7.62528 6.05068 15
      vertex -9.51425 6.48182 15
    endloop
  endfacet
  facet normal -0.222521 -0.974928 -0
    outer loop
      vertex -9.51425 6.48182 0
      vertex -7.62528 6.05068 0
      vertex -9.51425 6.48182 15
    endloop
  endfacet
  facet normal -0.5 -0.866026 -0
    outer loop
      vertex -7.5375 6 0
      vertex -7.5375 6 15
      vertex -7.62528 6.05068 15
    endloop
  endfacet
  facet normal -0.5 -0.866026 -0
    outer loop
      vertex -7.62528 6.05068 0
      vertex -7.5375 6 0
      vertex -7.62528 6.05068 15
    endloop
  endfacet
  facet normal 0 -1 -0
    outer loop
      vertex 11.0654 6 11.5947
      vertex 20 6 15
      vertex -7.5375 6 15
    endloop
  endfacet
  facet normal 0 -1 -0
    outer loop
      vertex 7.8 6 7.5
      vertex 8.21593 6 9.32231
      vertex -7.5375 6 15
    endloop
  endfacet
  facet normal 0 -1 -0
    outer loop
      vertex 8.21593 6 9.32231
      vertex 9.38134 6 10.7837
      vertex -7.5375 6 15
    endloop
  endfacet
  facet normal -0 -1 0
    outer loop
      vertex 12.9346 6 11.5947
      vertex 14.6187 6 10.7837
      vertex 20 6 15
    endloop
  endfacet
  facet normal 0 -1 -0
    outer loop
      vertex 9.38134 6 10.7837
      vertex 11.0654 6 11.5947
      vertex -7.5375 6 15
    endloop
  endfacet
  facet normal 0 -1 0
    outer loop
      vertex 15.7841 6 9.32231
      vertex 16.2 6 7.5
      vertex 20 6 0
    endloop
  endfacet
  facet normal 0 -1 -0
    outer loop
      vertex 15.7841 6 9.32231
      vertex 20 6 15
      vertex 14.6187 6 10.7837
    endloop
  endfacet
  facet normal 0 -1 0
    outer loop
      vertex 14.6187 6 4.21631
      vertex 12.9346 6 3.4053
      vertex 20 6 0
    endloop
  endfacet
  facet normal 0 -1 0
    outer loop
      vertex 20 6 0
      vertex 20 6 15
      vertex 15.7841 6 9.32231
    endloop
  endfacet
  facet normal 0 -1 0
    outer loop
      vertex 20 6 0
      vertex 16.2 6 7.5
      vertex 15.7841 6 5.67769
    endloop
  endfacet
  facet normal 0 -1 0
    outer loop
      vertex 9.38134 6 4.21631
      vertex 8.21593 6 5.67769
      vertex -7.5375 6 15
    endloop
  endfacet
  facet normal 0 -1 0
    outer loop
      vertex 20 6 0
      vertex 15.7841 6 5.67769
      vertex 14.6187 6 4.21631
    endloop
  endfacet
  facet normal -0 -1 0
    outer loop
      vertex 11.0654 6 11.5947
      vertex 12.9346 6 11.5947
      vertex 20 6 15
    endloop
  endfacet
  facet normal -0 -1 0
    outer loop
      vertex -7.5375 6 0
      vertex 20 6 0
      vertex 12.9346 6 3.4053
    endloop
  endfacet
  facet normal 0 -1 0
    outer loop
      vertex -7.5375 6 0
      vertex 12.9346 6 3.4053
      vertex 11.0654 6 3.4053
    endloop
  endfacet
  facet normal 0 -1 -0
    outer loop
      vertex -7.5375 6 0
      vertex 9.38134 6 4.21631
      vertex -7.5375 6 15
    endloop
  endfacet
  facet normal 0 -1 0
    outer loop
      vertex -7.5375 6 0
      vertex 11.0654 6 3.4053
      vertex 9.38134 6 4.21631
    endloop
  endfacet
  facet normal 0 -1 0
    outer loop
      vertex 8.21593 6 5.67769
      vertex 7.8 6 7.5
      vertex -7.5375 6 15
    endloop
  endfacet
  facet normal 1 0 -0
    outer loop
      vertex 20 6 15
      vertex 20 6 0
      vertex 20 10 0
    endloop
  endfacet
  facet normal 1 0 0
    outer loop
      vertex 20 10 15
      vertex 20 6 15
      vertex 20 10 0
    endloop
  endfacet
  facet normal 0 1 0
    outer loop
      vertex 12.9346 10 11.5947
      vertex -10 10 15
      vertex 20 10 15
    endloop
  endfacet
  facet normal 0 1 0
    outer loop
      vertex -10 10 0
      vertex -10 10 15
      vertex 8.21593 10 5.67769
    endloop
  endfacet
  facet normal 0 1 0
    outer loop
      vertex -10 10 0
      vertex 8.21593 10 5.67769
      vertex 9.38134 10 4.21631
    endloop
  endfacet
  facet normal 0 1 0
    outer loop
      vertex -10 10 0
      vertex 9.38134 10 4.21631
      vertex 11.0654 10 3.4053
    endloop
  endfacet
  facet normal 0 1 0
    outer loop
      vertex -10 10 0
      vertex 11.0654 10 3.4053
      vertex 20 10 0
    endloop
  endfacet
  facet normal 0 1 -0
    outer loop
      vertex 12.9346 10 3.4053
      vertex 20 10 0
      vertex 11.0654 10 3.4053
    endloop
  endfacet
  facet normal 0 1 -0
    outer loop
      vertex 14.6187 10 4.21631
      vertex 20 10 0
      vertex 12.9346 10 3.4053
    endloop
  endfacet
  facet normal 0 1 -0
    outer loop
      vertex 16.2 10 7.5
      vertex 20 10 15
      vertex 15.7841 10 5.67769
    endloop
  endfacet
  facet normal 0 1 0
    outer loop
      vertex 20 10 0
      vertex 14.6187 10 4.21631
      vertex 15.7841 10 5.67769
    endloop
  endfacet
  facet normal 0 1 0
    outer loop
      vertex 20 10 0
      vertex 15.7841 10 5.67769
      vertex 20 10 15
    endloop
  endfacet
  facet normal 0 1 0
    outer loop
      vertex 12.9346 10 11.5947
      vertex 20 10 15
      vertex 14.6187 10 10.7837
    endloop
  endfacet
  facet normal 0 1 0
    outer loop
      vertex 16.2 10 7.5
      vertex 15.7841 10 9.32231
      vertex 20 10 15
    endloop
  endfacet
  facet normal 0 1 0
    outer loop
      vertex 15.7841 10 9.32231
      vertex 14.6187 10 10.7837
      vertex 20 10 15
    endloop
  endfacet
  facet normal 0 1 0
    outer loop
      vertex 11.0654 10 11.5947
      vertex -10 10 15
      vertex 12.9346 10 11.5947
    endloop
  endfacet
  facet normal 0 1 0
    outer loop
      vertex 9.38134 10 10.7837
      vertex -10 10 15
      vertex 11.0654 10 11.5947
    endloop
  endfacet
  facet normal 0 1 0
    outer loop
      vertex 8.21593 10 9.32231
      vertex -10 10 15
      vertex 9.38134 10 10.7837
    endloop
  endfacet
  facet normal 0 1 0
    outer loop
      vertex 7.8 10 7.5
      vertex -10 10 15
      vertex 8.21593 10 9.32231
    endloop
  endfacet
  facet normal 0 1 0
    outer loop
      vertex 8.21593 10 5.67769
      vertex -10 10 15
      vertex 7.8 10 7.5
    endloop
  endfacet
  facet normal -1 -0 -0
    outer loop
      vertex -10 9.94522 0
      vertex -10 9.94522 15
      vertex -10 10 0
    endloop
  endfacet
  facet normal -1 0 0
    outer loop
      vertex -10 10 0
      vertex -10 9.94522 15
      vertex -10 10 15
    endloop
  endfacet
  facet normal 0 1 0
    outer loop
      vertex -11.0453 9.94522 0
      vertex -11.0453 9.94522 15
      vertex -10 9.94522 0
    endloop
  endfacet
  facet normal 0 1 0
    outer loop
      vertex -10 9.94522 0
      vertex -11.0453 9.94522 15
      vertex -10 9.94522 15
    endloop
  endfacet
  facet normal -0.207912 0.978148 0
    outer loop
      vertex -13.0902 9.51056 0
      vertex -13.0902 9.51056 15
      vertex -11.0453 9.94522 0
    endloop
  endfacet
  facet normal -0.207912 0.978148 0
    outer loop
      vertex -11.0453 9.94522 0
      vertex -13.0902 9.51056 15
      vertex -11.0453 9.94522 15
    endloop
  endfacet
  facet normal -0.406737 0.913545 0
    outer loop
      vertex -15 8.66025 0
      vertex -15 8.66025 15
      vertex -13.0902 9.51056 0
    endloop
  endfacet
  facet normal -0.406737 0.913545 0
    outer loop
      vertex -13.0902 9.51056 0
      vertex -15 8.66025 15
      vertex -13.0902 9.51056 15
    endloop
  endfacet
  facet normal -0.587785 0.809017 0
    outer loop
      vertex -16.6913 7.43145 0
      vertex -16.6913 7.43145 15
      vertex -15 8.66025 0
    endloop
  endfacet
  facet normal -0.587785 0.809017 0
    outer loop
      vertex -15 8.66025 0
      vertex -16.6913 7.43145 15
      vertex -15 8.66025 15
    endloop
  endfacet
  facet normal -0.743145 0.669131 0
    outer loop
      vertex -18.0902 5.87785 0
      vertex -18.0902 5.87785 15
      vertex -16.6913 7.43145 0
    endloop
  endfacet
  facet normal -0.743145 0.669131 0
    outer loop
      vertex -16.6913 7.43145 0
      vertex -18.0902 5.87785 15
      vertex -16.6913 7.43145 15
    endloop
  endfacet
  facet normal -0.866025 0.5 0
    outer loop
      vertex -19.1355 4.06737 0
      vertex -19.1355 4.06737 15
      vertex -18.0902 5.87785 0
    endloop
  endfacet
  facet normal -0.866025 0.5 0
    outer loop
      vertex -18.0902 5.87785 0
      vertex -19.1355 4.06737 15
      vertex -18.0902 5.87785 15
    endloop
  endfacet
  facet normal -0.951057 0.309017 0
    outer loop
      vertex -19.7815 2.07912 0
      vertex -19.7815 2.07912 15
      vertex -19.1355 4.06737 0
    endloop
  endfacet
  facet normal -0.951057 0.309017 0
    outer loop
      vertex -19.1355 4.06737 0
      vertex -19.7815 2.07912 15
      vertex -19.1355 4.06737 15
    endloop
  endfacet
  facet normal 0 0 1
    outer loop
      vertex -19.7815 2.07912 15
      vertex -20 0 15
      vertex -19.7815 -2.07912 15
    endloop
  endfacet
  facet normal 0 0 1
    outer loop
      vertex -18.0902 -5.87785 15
      vertex -19.7815 2.07912 15
      vertex -19.1355 -4.06737 15
    endloop
  endfacet
  facet normal 0 0 1
    outer loop
      vertex -19.1355 -4.06737 15
      vertex -19.7815 2.07912 15
      vertex -19.7815 -2.07912 15
    endloop
  endfacet
  facet normal 0 0 1
    outer loop
      vertex -16.6913 -7.43145 15
      vertex -19.7815 2.07912 15
      vertex -18.0902 -5.87785 15
    endloop
  endfacet
  facet normal 0 0 1
    outer loop
      vertex -15 -8.66025 15
      vertex -19.7815 2.07912 15
      vertex -16.6913 -7.43145 15
    endloop
  endfacet
  facet normal 0 0 1
    outer loop
      vertex -13.0902 -9.51056 15
      vertex -19.7815 2.07912 15
      vertex -15 -8.66025 15
    endloop
  endfacet
  facet normal 0 0 1
    outer loop
      vertex -11.0453 -9.94522 15
      vertex -19.7815 2.07912 15
      vertex -13.0902 -9.51056 15
    endloop
  endfacet
  facet normal -0 -0 1
    outer loop
      vertex -14.7648 -4.42112 15
      vertex -19.7815 2.07912 15
      vertex -11.0453 -9.94522 15
    endloop
  endfacet
  facet normal 0 0 1
    outer loop
      vertex -15.8563 -2.82024 15
      vertex -16.4274 -0.968775 15
      vertex -19.7815 2.07912 15
    endloop
  endfacet
  facet normal -0 0 1
    outer loop
      vertex 20 -10 15
      vertex -10 -9.94522 15
      vertex -10 -10 15
    endloop
  endfacet
  facet normal -0 -0 1
    outer loop
      vertex -13.25 -5.62916 15
      vertex -14.7648 -4.42112 15
      vertex -10 -9.94522 15
    endloop
  endfacet
  facet normal 0 0 1
    outer loop
      vertex 20 -10 15
      vertex -7.5375 -6 15
      vertex -10 -9.94522 15
    endloop
  endfacet
  facet normal 0 0 1
    outer loop
      vertex -7.5375 -6 15
      vertex -7.62528 -6.05068 15
      vertex -10 -9.94522 15
    endloop
  endfacet
  facet normal 0 0 1
    outer loop
      vertex -16.4274 0.968775 15
      vertex -15.8563 2.82024 15
      vertex -19.7815 2.07912 15
    endloop
  endfacet
  facet normal 0 0 1
    outer loop
      vertex -7.62528 -6.05068 15
      vertex -9.51425 -6.48182 15
      vertex -10 -9.94522 15
    endloop
  endfacet
  facet normal 0 0 1
    outer loop
      vertex -10 9.94522 15
      vertex -19.7815 2.07912 15
      vertex -13.25 5.62916 15
    endloop
  endfacet
  facet normal -0 0 1
    outer loop
      vertex -9.51425 -6.48182 15
      vertex -11.4464 -6.33703 15
      vertex -10 -9.94522 15
    endloop
  endfacet
  facet normal -0 -0 1
    outer loop
      vertex -11.4464 -6.33703 15
      vertex -13.25 -5.62916 15
      vertex -10 -9.94522 15
    endloop
  endfacet
  facet normal -0 0 1
    outer loop
      vertex -10 -9.94522 15
      vertex -14.7648 -4.42112 15
      vertex -11.0453 -9.94522 15
    endloop
  endfacet
  facet normal -0 -0 1
    outer loop
      vertex -15.8563 -2.82024 15
      vertex -19.7815 2.07912 15
      vertex -14.7648 -4.42112 15
    endloop
  endfacet
  facet normal 0 0 1
    outer loop
      vertex -10 9.94522 15
      vertex -11.0453 9.94522 15
      vertex -19.7815 2.07912 15
    endloop
  endfacet
  facet normal 0 0 1
    outer loop
      vertex -14.7648 4.42112 15
      vertex -19.7815 2.07912 15
      vertex -15.8563 2.82024 15
    endloop
  endfacet
  facet normal 0 0 1
    outer loop
      vertex -13.25 5.62916 15
      vertex -19.7815 2.07912 15
      vertex -14.7648 4.42112 15
    endloop
  endfacet
  facet normal 0 0 1
    outer loop
      vertex 20 10 15
      vertex -11.4464 6.33703 15
      vertex -9.51425 6.48182 15
    endloop
  endfacet
  facet normal 0 0 1
    outer loop
      vertex 20 6 15
      vertex -9.51425 6.48182 15
      vertex -7.62528 6.05068 15
    endloop
  endfacet
  facet normal 0 0 1
    outer loop
      vertex -10 9.94522 15
      vertex -13.25 5.62916 15
      vertex -11.4464 6.33703 15
    endloop
  endfacet
  facet normal 0 0 1
    outer loop
      vertex 20 10 15
      vertex -9.51425 6.48182 15
      vertex 20 6 15
    endloop
  endfacet
  facet normal 0 -0 1
    outer loop
      vertex -10 9.94522 15
      vertex -11.4464 6.33703 15
      vertex 20 10 15
    endloop
  endfacet
  facet normal 0 -0 1
    outer loop
      vertex -10 10 15
      vertex -10 9.94522 15
      vertex 20 10 15
    endloop
  endfacet
  facet normal 0 -0 1
    outer loop
      vertex -13.0902 9.51056 15
      vertex -19.7815 2.07912 15
      vertex -11.0453 9.94522 15
    endloop
  endfacet
  facet normal 0 -0 1
    outer loop
      vertex -15 8.66025 15
      vertex -19.7815 2.07912 15
      vertex -13.0902 9.51056 15
    endloop
  endfacet
  facet normal 0 -0 1
    outer loop
      vertex -16.6913 7.43145 15
      vertex -19.7815 2.07912 15
      vertex -15 8.66025 15
    endloop
  endfacet
  facet normal 0 -0 1
    outer loop
      vertex -18.0902 5.87785 15
      vertex -19.7815 2.07912 15
      vertex -16.6913 7.43145 15
    endloop
  endfacet
  facet normal 0 -0 1
    outer loop
      vertex -19.1355 4.06737 15
      vertex -19.7815 2.07912 15
      vertex -18.0902 5.87785 15
    endloop
  endfacet
  facet normal 0 0 1
    outer loop
      vertex -7.5375 6 15
      vertex 20 6 15
      vertex -7.62528 6.05068 15
    endloop
  endfacet
  facet normal 0 0 1
    outer loop
      vertex 20 -6 15
      vertex -7.5375 -6 15
      vertex 20 -10 15
    endloop
  endfacet
  facet normal 0 0 1
    outer loop
      vertex -16.4274 -0.968775 15
      vertex -16.4274 0.968775 15
      vertex -19.7815 2.07912 15
    endloop
  endfacet
  facet normal 0.974928 4.94096e-17 0.222521
    outer loop
      vertex 8.21593 -10 5.67769
      vertex 8.21593 -6 5.67769
      vertex 7.8 -6 7.5
    endloop
  endfacet
  facet normal 0.974928 4.94096e-17 0.222521
    outer loop
      vertex 7.8 -10 7.5
      vertex 8.21593 -10 5.67769
      vertex 7.8 -6 7.5
    endloop
  endfacet
  facet normal 0.781831 1.38443e-16 0.62349
    outer loop
      vertex 9.38134 -10 4.21631
      vertex 9.38134 -6 4.21631
      vertex 8.21593 -6 5.67769
    endloop
  endfacet
  facet normal 0.781831 1.38443e-16 0.62349
    outer loop
      vertex 8.21593 -10 5.67769
      vertex 9.38134 -10 4.21631
      vertex 8.21593 -6 5.67769
    endloop
  endfacet
  facet normal 0.433884 2.00055e-16 0.900969
    outer loop
      vertex 11.0654 -10 3.4053
      vertex 11.0654 -6 3.4053
      vertex 9.38134 -6 4.21631
    endloop
  endfacet
  facet normal 0.433884 2.00055e-16 0.900969
    outer loop
      vertex 9.38134 -10 4.21631
      vertex 11.0654 -10 3.4053
      vertex 9.38134 -6 4.21631
    endloop
  endfacet
  facet normal 0 2.22045e-16 1
    outer loop
      vertex 12.9346 -10 3.4053
      vertex 12.9346 -6 3.4053
      vertex 11.0654 -6 3.4053
    endloop
  endfacet
  facet normal 0 2.22045e-16 1
    outer loop
      vertex 11.0654 -10 3.4053
      vertex 12.9346 -10 3.4053
      vertex 11.0654 -6 3.4053
    endloop
  endfacet
  facet normal -0.433884 2.00055e-16 0.900969
    outer loop
      vertex 14.6187 -10 4.21631
      vertex 14.6187 -6 4.21631
      vertex 12.9346 -6 3.4053
    endloop
  endfacet
  facet normal -0.433884 2.00055e-16 0.900969
    outer loop
      vertex 12.9346 -10 3.4053
      vertex 14.6187 -10 4.21631
      vertex 12.9346 -6 3.4053
    endloop
  endfacet
  facet normal -0.781831 1.38443e-16 0.62349
    outer loop
      vertex 15.7841 -6 5.67769
      vertex 14.6187 -6 4.21631
      vertex 15.7841 -10 5.67769
    endloop
  endfacet
  facet normal -0.781831 1.48491e-16 0.62349
    outer loop
      vertex 15.7841 -10 5.67769
      vertex 14.6187 -6 4.21631
      vertex 14.6187 -10 4.21631
    endloop
  endfacet
  facet normal -0.974928 4.94096e-17 0.222521
    outer loop
      vertex 16.2 -6 7.5
      vertex 15.7841 -6 5.67769
      vertex 16.2 -10 7.5
    endloop
  endfacet
  facet normal -0.974928 5.93964e-17 0.222521
    outer loop
      vertex 16.2 -10 7.5
      vertex 15.7841 -6 5.67769
      vertex 15.7841 -10 5.67769
    endloop
  endfacet
  facet normal -0.974928 -4.94096e-17 -0.222521
    outer loop
      vertex 16.2 -6 7.5
      vertex 16.2 -10 7.5
      vertex 15.7841 -6 9.32231
    endloop
  endfacet
  facet normal -0.974928 -9.88192e-17 -0.222521
    outer loop
      vertex 15.7841 -6 9.32231
      vertex 16.2 -10 7.5
      vertex 15.7841 -10 9.32231
    endloop
  endfacet
  facet normal -0.781831 -2.76885e-16 -0.62349
    outer loop
      vertex 15.7841 -6 9.32231
      vertex 15.7841 -10 9.32231
      vertex 14.6187 -6 10.7837
    endloop
  endfacet
  facet normal -0.781831 -2.76885e-16 -0.62349
    outer loop
      vertex 14.6187 -6 10.7837
      vertex 15.7841 -10 9.32231
      vertex 14.6187 -10 10.7837
    endloop
  endfacet
  facet normal -0.433884 -4.00111e-16 -0.900969
    outer loop
      vertex 14.6187 -6 10.7837
      vertex 14.6187 -10 10.7837
      vertex 12.9346 -6 11.5947
    endloop
  endfacet
  facet normal -0.433884 -4.00111e-16 -0.900969
    outer loop
      vertex 12.9346 -6 11.5947
      vertex 14.6187 -10 10.7837
      vertex 12.9346 -10 11.5947
    endloop
  endfacet
  facet normal 0 -4.44089e-16 -1
    outer loop
      vertex 12.9346 -6 11.5947
      vertex 12.9346 -10 11.5947
      vertex 11.0654 -6 11.5947
    endloop
  endfacet
  facet normal 0 -4.44089e-16 -1
    outer loop
      vertex 11.0654 -6 11.5947
      vertex 12.9346 -10 11.5947
      vertex 11.0654 -10 11.5947
    endloop
  endfacet
  facet normal 0.433884 -4.00111e-16 -0.900969
    outer loop
      vertex 11.0654 -6 11.5947
      vertex 11.0654 -10 11.5947
      vertex 9.38134 -6 10.7837
    endloop
  endfacet
  facet normal 0.433884 -4.00111e-16 -0.900969
    outer loop
      vertex 9.38134 -6 10.7837
      vertex 11.0654 -10 11.5947
      vertex 9.38134 -10 10.7837
    endloop
  endfacet
  facet normal 0.781831 -2.67284e-16 -0.62349
    outer loop
      vertex 8.21593 -6 9.32231
      vertex 9.38134 -6 10.7837
      vertex 9.38134 -10 10.7837
    endloop
  endfacet
  facet normal 0.781831 -2.76885e-16 -0.62349
    outer loop
      vertex 8.21593 -10 9.32231
      vertex 8.21593 -6 9.32231
      vertex 9.38134 -10 10.7837
    endloop
  endfacet
  facet normal 0.974928 -1.03944e-16 -0.222521
    outer loop
      vertex 7.8 -6 7.5
      vertex 8.21593 -6 9.32231
      vertex 8.21593 -10 9.32231
    endloop
  endfacet
  facet normal 0.974928 -4.94096e-17 -0.222521
    outer loop
      vertex 7.8 -10 7.5
      vertex 7.8 -6 7.5
      vertex 8.21593 -10 9.32231
    endloop
  endfacet
  facet normal 0.974928 -1.03944e-16 -0.222521
    outer loop
      vertex 7.8 10 7.5
      vertex 8.21593 10 9.32231
      vertex 8.21593 6 9.32231
    endloop
  endfacet
  facet normal 0.974928 -4.94096e-17 -0.222521
    outer loop
      vertex 7.8 6 7.5
      vertex 7.8 10 7.5
      vertex 8.21593 6 9.32231
    endloop
  endfacet
  facet normal 0.974928 4.94096e-17 0.222521
    outer loop
      vertex 8.21593 6 5.67769
      vertex 8.21593 10 5.67769
      vertex 7.8 10 7.5
    endloop
  endfacet
  facet normal 0.974928 4.94096e-17 0.222521
    outer loop
      vertex 7.8 6 7.5
      vertex 8.21593 6 5.67769
      vertex 7.8 10 7.5
    endloop
  endfacet
  facet normal 0.781831 1.38443e-16 0.62349
    outer loop
      vertex 9.38134 6 4.21631
      vertex 9.38134 10 4.21631
      vertex 8.21593 10 5.67769
    endloop
  endfacet
  facet normal 0.781831 1.38443e-16 0.62349
    outer loop
      vertex 8.21593 6 5.67769
      vertex 9.38134 6 4.21631
      vertex 8.21593 10 5.67769
    endloop
  endfacet
  facet normal 0.433884 2.00055e-16 0.900969
    outer loop
      vertex 11.0654 6 3.4053
      vertex 11.0654 10 3.4053
      vertex 9.38134 10 4.21631
    endloop
  endfacet
  facet normal 0.433884 2.00055e-16 0.900969
    outer loop
      vertex 9.38134 6 4.21631
      vertex 11.0654 6 3.4053
      vertex 9.38134 10 4.21631
    endloop
  endfacet
  facet normal 0 2.22045e-16 1
    outer loop
      vertex 12.9346 6 3.4053
      vertex 12.9346 10 3.4053
      vertex 11.0654 10 3.4053
    endloop
  endfacet
  facet normal 0 2.22045e-16 1
    outer loop
      vertex 11.0654 6 3.4053
      vertex 12.9346 6 3.4053
      vertex 11.0654 10 3.4053
    endloop
  endfacet
  facet normal -0.433884 2.00055e-16 0.900969
    outer loop
      vertex 14.6187 6 4.21631
      vertex 14.6187 10 4.21631
      vertex 12.9346 10 3.4053
    endloop
  endfacet
  facet normal -0.433884 2.00055e-16 0.900969
    outer loop
      vertex 12.9346 6 3.4053
      vertex 14.6187 6 4.21631
      vertex 12.9346 10 3.4053
    endloop
  endfacet
  facet normal -0.781831 1.38443e-16 0.62349
    outer loop
      vertex 15.7841 10 5.67769
      vertex 14.6187 10 4.21631
      vertex 15.7841 6 5.67769
    endloop
  endfacet
  facet normal -0.781831 1.48491e-16 0.62349
    outer loop
      vertex 15.7841 6 5.67769
      vertex 14.6187 10 4.21631
      vertex 14.6187 6 4.21631
    endloop
  endfacet
  facet normal -0.974928 4.94096e-17 0.222521
    outer loop
      vertex 16.2 10 7.5
      vertex 15.7841 10 5.67769
      vertex 16.2 6 7.5
    endloop
  endfacet
  facet normal -0.974928 5.93964e-17 0.222521
    outer loop
      vertex 16.2 6 7.5
      vertex 15.7841 10 5.67769
      vertex 15.7841 6 5.67769
    endloop
  endfacet
  facet normal -0.974928 -4.94096e-17 -0.222521
    outer loop
      vertex 16.2 10 7.5
      vertex 16.2 6 7.5
      vertex 15.7841 10 9.32231
    endloop
  endfacet
  facet normal -0.974928 -9.88192e-17 -0.222521
    outer loop
      vertex 15.7841 10 9.32231
      vertex 16.2 6 7.5
      vertex 15.7841 6 9.32231
    endloop
  endfacet
  facet normal -0.781831 -2.76885e-16 -0.62349
    outer loop
      vertex 15.7841 10 9.32231
      vertex 15.7841 6 9.32231
      vertex 14.6187 10 10.7837
    endloop
  endfacet
  facet normal -0.781831 -2.76885e-16 -0.62349
    outer loop
      vertex 14.6187 10 10.7837
      vertex 15.7841 6 9.32231
      vertex 14.6187 6 10.7837
    endloop
  endfacet
  facet normal -0.433884 -4.00111e-16 -0.900969
    outer loop
      vertex 14.6187 10 10.7837
      vertex 14.6187 6 10.7837
      vertex 12.9346 10 11.5947
    endloop
  endfacet
  facet normal -0.433884 -4.00111e-16 -0.900969
    outer loop
      vertex 12.9346 10 11.5947
      vertex 14.6187 6 10.7837
      vertex 12.9346 6 11.5947
    endloop
  endfacet
  facet normal 0 -4.44089e-16 -1
    outer loop
      vertex 12.9346 10 11.5947
      vertex 12.9346 6 11.5947
      vertex 11.0654 10 11.5947
    endloop
  endfacet
  facet normal 0 -4.44089e-16 -1
    outer loop
      vertex 11.0654 10 11.5947
      vertex 12.9346 6 11.5947
      vertex 11.0654 6 11.5947
    endloop
  endfacet
  facet normal 0.433884 -4.00111e-16 -0.900969
    outer loop
      vertex 11.0654 10 11.5947
      vertex 11.0654 6 11.5947
      vertex 9.38134 10 10.7837
    endloop
  endfacet
  facet normal 0.433884 -4.00111e-16 -0.900969
    outer loop
      vertex 9.38134 10 10.7837
      vertex 11.0654 6 11.5947
      vertex 9.38134 6 10.7837
    endloop
  endfacet
  facet normal 0.781831 -2.67284e-16 -0.62349
    outer loop
      vertex 8.21593 10 9.32231
      vertex 9.38134 10 10.7837
      vertex 9.38134 6 10.7837
    endloop
  endfacet
  facet normal 0.781831 -2.76885e-16 -0.62349
    outer loop
      vertex 8.21593 6 9.32231
      vertex 8.21593 10 9.32231
      vertex 9.38134 6 10.7837
    endloop
  endfacet
endsolid OpenSCAD_Model
