solid OpenSCAD_Model
  facet normal -0.000000 0.000000 -1.000000
    outer loop
      vertex -29.000000 0.000000 0.000000
      vertex -28.366280 6.029439 0.000000
      vertex -28.366280 -6.029439 0.000000
    endloop
  endfacet
  facet normal 0.000000 -0.000000 -1.000000
    outer loop
      vertex -28.366280 -6.029439 0.000000
      vertex -28.366280 6.029439 0.000000
      vertex -26.492818 11.795363 0.000000
    endloop
  endfacet
  facet normal 0.000000 0.000000 -1.000000
    outer loop
      vertex -28.366280 -6.029439 0.000000
      vertex -26.492818 11.795363 0.000000
      vertex -23.461493 17.045772 0.000000
    endloop
  endfacet
  facet normal 0.000000 0.000000 -1.000000
    outer loop
      vertex -28.366280 -6.029439 0.000000
      vertex -23.461493 17.045772 0.000000
      vertex -19.404788 21.551200 0.000000
    endloop
  endfacet
  facet normal 0.000000 0.000000 -1.000000
    outer loop
      vertex -28.366280 -6.029439 0.000000
      vertex -19.404788 21.551200 0.000000
      vertex -14.500000 25.114737 0.000000
    endloop
  endfacet
  facet normal 0.000000 0.000000 -1.000000
    outer loop
      vertex -28.366280 -6.029439 0.000000
      vertex -14.500000 25.114737 0.000000
      vertex -8.961493 27.580639 0.000000
    endloop
  endfacet
  facet normal 0.000000 0.000000 -1.000000
    outer loop
      vertex -28.366280 -6.029439 0.000000
      vertex -8.961493 27.580639 0.000000
      vertex -3.031325 28.841135 0.000000
    endloop
  endfacet
  facet normal 0.000000 0.000000 -1.000000
    outer loop
      vertex -28.366280 -6.029439 0.000000
      vertex -3.031325 28.841135 0.000000
      vertex 3.031325 28.841135 0.000000
    endloop
  endfacet
  facet normal 0.000000 0.000000 -1.000000
    outer loop
      vertex -28.366280 -6.029439 0.000000
      vertex 3.031325 28.841135 0.000000
      vertex 8.961493 27.580639 0.000000
    endloop
  endfacet
  facet normal 0.000000 0.000000 -1.000000
    outer loop
      vertex -28.366280 -6.029439 0.000000
      vertex 8.961493 27.580639 0.000000
      vertex 14.500000 25.114737 0.000000
    endloop
  endfacet
  facet normal 0.000000 0.000000 -1.000000
    outer loop
      vertex 1.165492 11.088919 0.000000
      vertex 14.500000 25.114737 0.000000
      vertex 19.404788 21.551200 0.000000
    endloop
  endfacet
  facet normal 0.000000 0.000000 -1.000000
    outer loop
      vertex 5.575000 9.656183 0.000000
      vertex 19.404788 21.551200 0.000000
      vertex 23.461493 17.045772 0.000000
    endloop
  endfacet
  facet normal 0.000000 0.000000 -1.000000
    outer loop
      vertex 9.020539 6.553806 0.000000
      vertex 23.461493 17.045772 0.000000
      vertex 26.492818 11.795363 0.000000
    endloop
  endfacet
  facet normal 0.000000 0.000000 -1.000000
    outer loop
      vertex 10.186032 4.535114 0.000000
      vertex 26.492818 11.795363 0.000000
      vertex 28.366280 6.029439 0.000000
    endloop
  endfacet
  facet normal -0.000000 0.000000 -1.000000
    outer loop
      vertex 11.150000 0.000000 0.000000
      vertex 28.366280 6.029439 0.000000
      vertex 29.000000 0.000000 0.000000
    endloop
  endfacet
  facet normal -0.000000 0.000000 -1.000000
    outer loop
      vertex 10.186032 -4.535114 0.000000
      vertex 29.000000 0.000000 0.000000
      vertex 28.366280 -6.029439 0.000000
    endloop
  endfacet
  facet normal -0.000000 0.000000 -1.000000
    outer loop
      vertex 7.460806 -8.286065 0.000000
      vertex 28.366280 -6.029439 0.000000
      vertex 26.492818 -11.795363 0.000000
    endloop
  endfacet
  facet normal 0.000000 0.000000 -1.000000
    outer loop
      vertex 3.445539 -10.604280 0.000000
      vertex 26.492818 -11.795363 0.000000
      vertex 23.461493 -17.045772 0.000000
    endloop
  endfacet
  facet normal 0.000000 0.000000 -1.000000
    outer loop
      vertex -28.366280 -6.029439 0.000000
      vertex 23.461493 -17.045772 0.000000
      vertex 19.404788 -21.551200 0.000000
    endloop
  endfacet
  facet normal 0.000000 0.000000 -1.000000
    outer loop
      vertex -28.366280 -6.029439 0.000000
      vertex 19.404788 -21.551200 0.000000
      vertex 14.500000 -25.114737 0.000000
    endloop
  endfacet
  facet normal 0.000000 0.000000 -1.000000
    outer loop
      vertex -28.366280 -6.029439 0.000000
      vertex 14.500000 -25.114737 0.000000
      vertex 8.961493 -27.580639 0.000000
    endloop
  endfacet
  facet normal 0.000000 0.000000 -1.000000
    outer loop
      vertex -28.366280 -6.029439 0.000000
      vertex 8.961493 -27.580639 0.000000
      vertex 3.031325 -28.841135 0.000000
    endloop
  endfacet
  facet normal 0.000000 0.000000 -1.000000
    outer loop
      vertex -28.366280 -6.029439 0.000000
      vertex 3.031325 -28.841135 0.000000
      vertex -3.031325 -28.841135 0.000000
    endloop
  endfacet
  facet normal 0.000000 0.000000 -1.000000
    outer loop
      vertex -28.366280 -6.029439 0.000000
      vertex -3.031325 -28.841135 0.000000
      vertex -8.961493 -27.580639 0.000000
    endloop
  endfacet
  facet normal 0.000000 0.000000 -1.000000
    outer loop
      vertex -28.366280 -6.029439 0.000000
      vertex -8.961493 -27.580639 0.000000
      vertex -14.500000 -25.114737 0.000000
    endloop
  endfacet
  facet normal 0.000000 0.000000 -1.000000
    outer loop
      vertex -28.366280 -6.029439 0.000000
      vertex -14.500000 -25.114737 0.000000
      vertex -19.404788 -21.551200 0.000000
    endloop
  endfacet
  facet normal 0.000000 0.000000 -1.000000
    outer loop
      vertex -28.366280 -6.029439 0.000000
      vertex -19.404788 -21.551200 0.000000
      vertex -23.461493 -17.045772 0.000000
    endloop
  endfacet
  facet normal 0.000000 0.000000 -1.000000
    outer loop
      vertex -28.366280 -6.029439 0.000000
      vertex -23.461493 -17.045772 0.000000
      vertex -26.492818 -11.795363 0.000000
    endloop
  endfacet
  facet normal 0.000000 0.000000 -1.000000
    outer loop
      vertex -10.906346 -2.318215 0.000000
      vertex -28.366280 -6.029439 0.000000
      vertex -11.150000 0.000000 0.000000
    endloop
  endfacet
  facet normal 0.000000 0.000000 -1.000000
    outer loop
      vertex -10.186032 -4.535114 0.000000
      vertex -28.366280 -6.029439 0.000000
      vertex -10.906346 -2.318215 0.000000
    endloop
  endfacet
  facet normal 0.000000 0.000000 -1.000000
    outer loop
      vertex -9.020539 -6.553806 0.000000
      vertex -28.366280 -6.029439 0.000000
      vertex -10.186032 -4.535114 0.000000
    endloop
  endfacet
  facet normal 0.000000 0.000000 -1.000000
    outer loop
      vertex -7.460806 -8.286065 0.000000
      vertex -28.366280 -6.029439 0.000000
      vertex -9.020539 -6.553806 0.000000
    endloop
  endfacet
  facet normal 0.000000 0.000000 -1.000000
    outer loop
      vertex 1.165492 -11.088919 0.000000
      vertex 23.461493 -17.045772 0.000000
      vertex -1.165492 -11.088919 0.000000
    endloop
  endfacet
  facet normal 0.000000 0.000000 -1.000000
    outer loop
      vertex -28.366280 -6.029439 0.000000
      vertex -7.460806 -8.286065 0.000000
      vertex -5.575000 -9.656183 0.000000
    endloop
  endfacet
  facet normal 0.000000 0.000000 -1.000000
    outer loop
      vertex -28.366280 -6.029439 0.000000
      vertex -5.575000 -9.656183 0.000000
      vertex -3.445539 -10.604280 0.000000
    endloop
  endfacet
  facet normal 0.000000 0.000000 -1.000000
    outer loop
      vertex -28.366280 -6.029439 0.000000
      vertex -3.445539 -10.604280 0.000000
      vertex 23.461493 -17.045772 0.000000
    endloop
  endfacet
  facet normal 0.000000 0.000000 -1.000000
    outer loop
      vertex -3.445539 -10.604280 0.000000
      vertex -1.165492 -11.088919 0.000000
      vertex 23.461493 -17.045772 0.000000
    endloop
  endfacet
  facet normal 0.000000 0.000000 -1.000000
    outer loop
      vertex 3.445539 -10.604280 0.000000
      vertex 23.461493 -17.045772 0.000000
      vertex 1.165492 -11.088919 0.000000
    endloop
  endfacet
  facet normal 0.000000 0.000000 -1.000000
    outer loop
      vertex 5.575000 -9.656183 0.000000
      vertex 26.492818 -11.795363 0.000000
      vertex 3.445539 -10.604280 0.000000
    endloop
  endfacet
  facet normal 0.000000 0.000000 -1.000000
    outer loop
      vertex 7.460806 -8.286065 0.000000
      vertex 26.492818 -11.795363 0.000000
      vertex 5.575000 -9.656183 0.000000
    endloop
  endfacet
  facet normal -0.000000 0.000000 -1.000000
    outer loop
      vertex 9.020539 -6.553806 0.000000
      vertex 28.366280 -6.029439 0.000000
      vertex 7.460806 -8.286065 0.000000
    endloop
  endfacet
  facet normal 0.000000 0.000000 -1.000000
    outer loop
      vertex 10.186032 -4.535114 0.000000
      vertex 28.366280 -6.029439 0.000000
      vertex 9.020539 -6.553806 0.000000
    endloop
  endfacet
  facet normal -0.000000 0.000000 -1.000000
    outer loop
      vertex 10.906346 -2.318215 0.000000
      vertex 29.000000 0.000000 0.000000
      vertex 10.186032 -4.535114 0.000000
    endloop
  endfacet
  facet normal 0.000000 0.000000 -1.000000
    outer loop
      vertex 11.150000 0.000000 0.000000
      vertex 29.000000 0.000000 0.000000
      vertex 10.906346 -2.318215 0.000000
    endloop
  endfacet
  facet normal -0.000000 0.000000 -1.000000
    outer loop
      vertex 10.906346 2.318215 0.000000
      vertex 28.366280 6.029439 0.000000
      vertex 11.150000 0.000000 0.000000
    endloop
  endfacet
  facet normal -0.000000 0.000000 -1.000000
    outer loop
      vertex 9.020539 6.553806 0.000000
      vertex 26.492818 11.795363 0.000000
      vertex 10.186032 4.535114 0.000000
    endloop
  endfacet
  facet normal -0.000000 0.000000 -1.000000
    outer loop
      vertex 7.460806 8.286065 0.000000
      vertex 23.461493 17.045772 0.000000
      vertex 9.020539 6.553806 0.000000
    endloop
  endfacet
  facet normal -0.000000 0.000000 -1.000000
    outer loop
      vertex 5.575000 9.656183 0.000000
      vertex 23.461493 17.045772 0.000000
      vertex 7.460806 8.286065 0.000000
    endloop
  endfacet
  facet normal -0.000000 0.000000 -1.000000
    outer loop
      vertex 3.445539 10.604280 0.000000
      vertex 19.404788 21.551200 0.000000
      vertex 5.575000 9.656183 0.000000
    endloop
  endfacet
  facet normal -0.000000 0.000000 -1.000000
    outer loop
      vertex -1.165492 11.088919 0.000000
      vertex 14.500000 25.114737 0.000000
      vertex 1.165492 11.088919 0.000000
    endloop
  endfacet
  facet normal 0.000000 -0.000000 -1.000000
    outer loop
      vertex -9.020539 6.553806 0.000000
      vertex -28.366280 -6.029439 0.000000
      vertex -7.460806 8.286065 0.000000
    endloop
  endfacet
  facet normal 0.000000 0.000000 -1.000000
    outer loop
      vertex -3.445539 10.604280 0.000000
      vertex 14.500000 25.114737 0.000000
      vertex -1.165492 11.088919 0.000000
    endloop
  endfacet
  facet normal 0.000000 0.000000 -1.000000
    outer loop
      vertex -5.575000 9.656183 0.000000
      vertex 14.500000 25.114737 0.000000
      vertex -3.445539 10.604280 0.000000
    endloop
  endfacet
  facet normal 0.000000 0.000000 -1.000000
    outer loop
      vertex -28.366280 -6.029439 0.000000
      vertex 14.500000 25.114737 0.000000
      vertex -5.575000 9.656183 0.000000
    endloop
  endfacet
  facet normal 0.000000 0.000000 -1.000000
    outer loop
      vertex -28.366280 -6.029439 0.000000
      vertex -5.575000 9.656183 0.000000
      vertex -7.460806 8.286065 0.000000
    endloop
  endfacet
  facet normal 0.000000 -0.000000 -1.000000
    outer loop
      vertex -10.186032 4.535114 0.000000
      vertex -28.366280 -6.029439 0.000000
      vertex -9.020539 6.553806 0.000000
    endloop
  endfacet
  facet normal 0.000000 -0.000000 -1.000000
    outer loop
      vertex -10.906346 2.318215 0.000000
      vertex -28.366280 -6.029439 0.000000
      vertex -10.186032 4.535114 0.000000
    endloop
  endfacet
  facet normal 0.000000 -0.000000 -1.000000
    outer loop
      vertex -11.150000 0.000000 0.000000
      vertex -28.366280 -6.029439 0.000000
      vertex -10.906346 2.318215 0.000000
    endloop
  endfacet
  facet normal -0.000000 0.000000 -1.000000
    outer loop
      vertex 1.165492 11.088919 0.000000
      vertex 19.404788 21.551200 0.000000
      vertex 3.445539 10.604280 0.000000
    endloop
  endfacet
  facet normal -0.000000 0.000000 -1.000000
    outer loop
      vertex 10.186032 4.535114 0.000000
      vertex 28.366280 6.029439 0.000000
      vertex 10.906346 2.318215 0.000000
    endloop
  endfacet
  facet normal -0.994522 0.104529 0.000000
    outer loop
      vertex -29.000000 0.000000 0.000000
      vertex -29.000000 0.000000 7.000000
      vertex -28.366280 6.029439 0.000000
    endloop
  endfacet
  facet normal -0.994522 0.104529 0.000000
    outer loop
      vertex -28.366280 6.029439 0.000000
      vertex -29.000000 0.000000 7.000000
      vertex -28.366280 6.029439 7.000000
    endloop
  endfacet
  facet normal -0.994522 -0.104529 -0.000000
    outer loop
      vertex -29.000000 0.000000 0.000000
      vertex -28.366280 -6.029439 0.000000
      vertex -29.000000 0.000000 7.000000
    endloop
  endfacet
  facet normal -0.994522 -0.104529 0.000000
    outer loop
      vertex -29.000000 0.000000 7.000000
      vertex -28.366280 -6.029439 0.000000
      vertex -28.366280 -6.029439 7.000000
    endloop
  endfacet
  facet normal -0.951057 -0.309017 -0.000000
    outer loop
      vertex -28.366280 -6.029439 0.000000
      vertex -26.492818 -11.795363 0.000000
      vertex -28.366280 -6.029439 7.000000
    endloop
  endfacet
  facet normal -0.951057 -0.309017 0.000000
    outer loop
      vertex -28.366280 -6.029439 7.000000
      vertex -26.492818 -11.795363 0.000000
      vertex -26.492818 -11.795363 7.000000
    endloop
  endfacet
  facet normal -0.866025 -0.500000 -0.000000
    outer loop
      vertex -26.492818 -11.795363 0.000000
      vertex -23.461493 -17.045772 0.000000
      vertex -26.492818 -11.795363 7.000000
    endloop
  endfacet
  facet normal -0.866025 -0.500000 0.000000
    outer loop
      vertex -26.492818 -11.795363 7.000000
      vertex -23.461493 -17.045772 0.000000
      vertex -23.461493 -17.045772 7.000000
    endloop
  endfacet
  facet normal -0.743145 -0.669131 -0.000000
    outer loop
      vertex -23.461493 -17.045772 0.000000
      vertex -19.404788 -21.551200 0.000000
      vertex -23.461493 -17.045772 7.000000
    endloop
  endfacet
  facet normal -0.743145 -0.669131 0.000000
    outer loop
      vertex -23.461493 -17.045772 7.000000
      vertex -19.404788 -21.551200 0.000000
      vertex -19.404788 -21.551200 7.000000
    endloop
  endfacet
  facet normal -0.587785 -0.809017 0.000000
    outer loop
      vertex -19.404788 -21.551200 7.000000
      vertex -19.404788 -21.551200 0.000000
      vertex -14.500000 -25.114737 0.000000
    endloop
  endfacet
  facet normal -0.587785 -0.809017 0.000000
    outer loop
      vertex -14.500000 -25.114737 7.000000
      vertex -19.404788 -21.551200 7.000000
      vertex -14.500000 -25.114737 0.000000
    endloop
  endfacet
  facet normal -0.406737 -0.913545 0.000000
    outer loop
      vertex -14.500000 -25.114737 7.000000
      vertex -14.500000 -25.114737 0.000000
      vertex -8.961493 -27.580639 0.000000
    endloop
  endfacet
  facet normal -0.406737 -0.913545 0.000000
    outer loop
      vertex -8.961493 -27.580639 7.000000
      vertex -14.500000 -25.114737 7.000000
      vertex -8.961493 -27.580639 0.000000
    endloop
  endfacet
  facet normal -0.207912 -0.978148 0.000000
    outer loop
      vertex -8.961493 -27.580639 7.000000
      vertex -8.961493 -27.580639 0.000000
      vertex -3.031325 -28.841135 0.000000
    endloop
  endfacet
  facet normal -0.207912 -0.978148 0.000000
    outer loop
      vertex -3.031325 -28.841135 7.000000
      vertex -8.961493 -27.580639 7.000000
      vertex -3.031325 -28.841135 0.000000
    endloop
  endfacet
  facet normal 0.000000 -1.000000 0.000000
    outer loop
      vertex -3.031325 -28.841135 7.000000
      vertex -3.031325 -28.841135 0.000000
      vertex 3.031325 -28.841135 0.000000
    endloop
  endfacet
  facet normal 0.000000 -1.000000 0.000000
    outer loop
      vertex 3.031325 -28.841135 7.000000
      vertex -3.031325 -28.841135 7.000000
      vertex 3.031325 -28.841135 0.000000
    endloop
  endfacet
  facet normal 0.207912 -0.978148 0.000000
    outer loop
      vertex 3.031325 -28.841135 7.000000
      vertex 3.031325 -28.841135 0.000000
      vertex 8.961493 -27.580639 0.000000
    endloop
  endfacet
  facet normal 0.207912 -0.978148 0.000000
    outer loop
      vertex 8.961493 -27.580639 7.000000
      vertex 3.031325 -28.841135 7.000000
      vertex 8.961493 -27.580639 0.000000
    endloop
  endfacet
  facet normal 0.406737 -0.913545 0.000000
    outer loop
      vertex 8.961493 -27.580639 7.000000
      vertex 8.961493 -27.580639 0.000000
      vertex 14.500000 -25.114737 0.000000
    endloop
  endfacet
  facet normal 0.406737 -0.913545 0.000000
    outer loop
      vertex 14.500000 -25.114737 7.000000
      vertex 8.961493 -27.580639 7.000000
      vertex 14.500000 -25.114737 0.000000
    endloop
  endfacet
  facet normal 0.587785 -0.809017 0.000000
    outer loop
      vertex 14.500000 -25.114737 7.000000
      vertex 14.500000 -25.114737 0.000000
      vertex 19.404788 -21.551200 0.000000
    endloop
  endfacet
  facet normal 0.587785 -0.809017 0.000000
    outer loop
      vertex 19.404788 -21.551200 7.000000
      vertex 14.500000 -25.114737 7.000000
      vertex 19.404788 -21.551200 0.000000
    endloop
  endfacet
  facet normal 0.743145 -0.669131 0.000000
    outer loop
      vertex 19.404788 -21.551200 7.000000
      vertex 19.404788 -21.551200 0.000000
      vertex 23.461493 -17.045772 0.000000
    endloop
  endfacet
  facet normal 0.743145 -0.669131 0.000000
    outer loop
      vertex 23.461493 -17.045772 7.000000
      vertex 19.404788 -21.551200 7.000000
      vertex 23.461493 -17.045772 0.000000
    endloop
  endfacet
  facet normal 0.866025 -0.500000 0.000000
    outer loop
      vertex 23.461493 -17.045772 7.000000
      vertex 23.461493 -17.045772 0.000000
      vertex 26.492818 -11.795363 0.000000
    endloop
  endfacet
  facet normal 0.866025 -0.500000 0.000000
    outer loop
      vertex 26.492818 -11.795363 7.000000
      vertex 23.461493 -17.045772 7.000000
      vertex 26.492818 -11.795363 0.000000
    endloop
  endfacet
  facet normal 0.951057 -0.309017 0.000000
    outer loop
      vertex 26.492818 -11.795363 7.000000
      vertex 26.492818 -11.795363 0.000000
      vertex 28.366280 -6.029439 0.000000
    endloop
  endfacet
  facet normal 0.951057 -0.309017 0.000000
    outer loop
      vertex 28.366280 -6.029439 7.000000
      vertex 26.492818 -11.795363 7.000000
      vertex 28.366280 -6.029439 0.000000
    endloop
  endfacet
  facet normal 0.994522 -0.104529 0.000000
    outer loop
      vertex 28.366280 -6.029439 7.000000
      vertex 28.366280 -6.029439 0.000000
      vertex 29.000000 0.000000 0.000000
    endloop
  endfacet
  facet normal 0.994522 -0.104529 0.000000
    outer loop
      vertex 29.000000 0.000000 7.000000
      vertex 28.366280 -6.029439 7.000000
      vertex 29.000000 0.000000 0.000000
    endloop
  endfacet
  facet normal 0.994522 0.104529 0.000000
    outer loop
      vertex 29.000000 0.000000 0.000000
      vertex 28.366280 6.029439 0.000000
      vertex 28.366280 6.029439 7.000000
    endloop
  endfacet
  facet normal 0.994522 0.104529 -0.000000
    outer loop
      vertex 29.000000 0.000000 7.000000
      vertex 29.000000 0.000000 0.000000
      vertex 28.366280 6.029439 7.000000
    endloop
  endfacet
  facet normal 0.951057 0.309017 0.000000
    outer loop
      vertex 28.366280 6.029439 0.000000
      vertex 26.492818 11.795363 0.000000
      vertex 26.492818 11.795363 7.000000
    endloop
  endfacet
  facet normal 0.951057 0.309017 -0.000000
    outer loop
      vertex 28.366280 6.029439 7.000000
      vertex 28.366280 6.029439 0.000000
      vertex 26.492818 11.795363 7.000000
    endloop
  endfacet
  facet normal 0.866025 0.500000 0.000000
    outer loop
      vertex 26.492818 11.795363 0.000000
      vertex 23.461493 17.045772 0.000000
      vertex 23.461493 17.045772 7.000000
    endloop
  endfacet
  facet normal 0.866025 0.500000 -0.000000
    outer loop
      vertex 26.492818 11.795363 7.000000
      vertex 26.492818 11.795363 0.000000
      vertex 23.461493 17.045772 7.000000
    endloop
  endfacet
  facet normal 0.743145 0.669131 0.000000
    outer loop
      vertex 23.461493 17.045772 0.000000
      vertex 19.404788 21.551200 0.000000
      vertex 19.404788 21.551200 7.000000
    endloop
  endfacet
  facet normal 0.743145 0.669131 -0.000000
    outer loop
      vertex 23.461493 17.045772 7.000000
      vertex 23.461493 17.045772 0.000000
      vertex 19.404788 21.551200 7.000000
    endloop
  endfacet
  facet normal 0.587785 0.809017 0.000000
    outer loop
      vertex 14.500000 25.114737 0.000000
      vertex 14.500000 25.114737 7.000000
      vertex 19.404788 21.551200 0.000000
    endloop
  endfacet
  facet normal 0.587785 0.809017 0.000000
    outer loop
      vertex 19.404788 21.551200 0.000000
      vertex 14.500000 25.114737 7.000000
      vertex 19.404788 21.551200 7.000000
    endloop
  endfacet
  facet normal 0.406737 0.913545 0.000000
    outer loop
      vertex 8.961493 27.580639 0.000000
      vertex 8.961493 27.580639 7.000000
      vertex 14.500000 25.114737 0.000000
    endloop
  endfacet
  facet normal 0.406737 0.913545 0.000000
    outer loop
      vertex 14.500000 25.114737 0.000000
      vertex 8.961493 27.580639 7.000000
      vertex 14.500000 25.114737 7.000000
    endloop
  endfacet
  facet normal 0.207912 0.978148 0.000000
    outer loop
      vertex 3.031325 28.841135 0.000000
      vertex 3.031325 28.841135 7.000000
      vertex 8.961493 27.580639 0.000000
    endloop
  endfacet
  facet normal 0.207912 0.978148 0.000000
    outer loop
      vertex 8.961493 27.580639 0.000000
      vertex 3.031325 28.841135 7.000000
      vertex 8.961493 27.580639 7.000000
    endloop
  endfacet
  facet normal 0.000000 1.000000 0.000000
    outer loop
      vertex -3.031325 28.841135 0.000000
      vertex -3.031325 28.841135 7.000000
      vertex 3.031325 28.841135 0.000000
    endloop
  endfacet
  facet normal 0.000000 1.000000 0.000000
    outer loop
      vertex 3.031325 28.841135 0.000000
      vertex -3.031325 28.841135 7.000000
      vertex 3.031325 28.841135 7.000000
    endloop
  endfacet
  facet normal -0.207912 0.978148 0.000000
    outer loop
      vertex -8.961493 27.580639 0.000000
      vertex -8.961493 27.580639 7.000000
      vertex -3.031325 28.841135 0.000000
    endloop
  endfacet
  facet normal -0.207912 0.978148 0.000000
    outer loop
      vertex -3.031325 28.841135 0.000000
      vertex -8.961493 27.580639 7.000000
      vertex -3.031325 28.841135 7.000000
    endloop
  endfacet
  facet normal -0.406737 0.913545 0.000000
    outer loop
      vertex -14.500000 25.114737 0.000000
      vertex -14.500000 25.114737 7.000000
      vertex -8.961493 27.580639 0.000000
    endloop
  endfacet
  facet normal -0.406737 0.913545 0.000000
    outer loop
      vertex -8.961493 27.580639 0.000000
      vertex -14.500000 25.114737 7.000000
      vertex -8.961493 27.580639 7.000000
    endloop
  endfacet
  facet normal -0.587785 0.809017 0.000000
    outer loop
      vertex -19.404788 21.551200 0.000000
      vertex -19.404788 21.551200 7.000000
      vertex -14.500000 25.114737 0.000000
    endloop
  endfacet
  facet normal -0.587785 0.809017 0.000000
    outer loop
      vertex -14.500000 25.114737 0.000000
      vertex -19.404788 21.551200 7.000000
      vertex -14.500000 25.114737 7.000000
    endloop
  endfacet
  facet normal -0.743145 0.669131 0.000000
    outer loop
      vertex -23.461493 17.045772 0.000000
      vertex -23.461493 17.045772 7.000000
      vertex -19.404788 21.551200 0.000000
    endloop
  endfacet
  facet normal -0.743145 0.669131 0.000000
    outer loop
      vertex -19.404788 21.551200 0.000000
      vertex -23.461493 17.045772 7.000000
      vertex -19.404788 21.551200 7.000000
    endloop
  endfacet
  facet normal -0.866025 0.500000 0.000000
    outer loop
      vertex -26.492818 11.795363 0.000000
      vertex -26.492818 11.795363 7.000000
      vertex -23.461493 17.045772 0.000000
    endloop
  endfacet
  facet normal -0.866025 0.500000 0.000000
    outer loop
      vertex -23.461493 17.045772 0.000000
      vertex -26.492818 11.795363 7.000000
      vertex -23.461493 17.045772 7.000000
    endloop
  endfacet
  facet normal -0.951057 0.309017 0.000000
    outer loop
      vertex -28.366280 6.029439 0.000000
      vertex -28.366280 6.029439 7.000000
      vertex -26.492818 11.795363 0.000000
    endloop
  endfacet
  facet normal -0.951057 0.309017 0.000000
    outer loop
      vertex -26.492818 11.795363 0.000000
      vertex -28.366280 6.029439 7.000000
      vertex -26.492818 11.795363 7.000000
    endloop
  endfacet
  facet normal 0.994522 0.104528 0.000000
    outer loop
      vertex -11.150000 0.000000 7.000000
      vertex -10.906346 -2.318215 7.000000
      vertex -10.906346 -2.318215 0.000000
    endloop
  endfacet
  facet normal 0.994522 0.104528 0.000000
    outer loop
      vertex -11.150000 0.000000 0.000000
      vertex -11.150000 0.000000 7.000000
      vertex -10.906346 -2.318215 0.000000
    endloop
  endfacet
  facet normal 0.994522 -0.104528 0.000000
    outer loop
      vertex -10.906346 2.318215 0.000000
      vertex -10.906346 2.318215 7.000000
      vertex -11.150000 0.000000 7.000000
    endloop
  endfacet
  facet normal 0.994522 -0.104528 0.000000
    outer loop
      vertex -11.150000 0.000000 0.000000
      vertex -10.906346 2.318215 0.000000
      vertex -11.150000 0.000000 7.000000
    endloop
  endfacet
  facet normal 0.951057 -0.309017 0.000000
    outer loop
      vertex -10.186032 4.535114 0.000000
      vertex -10.186032 4.535114 7.000000
      vertex -10.906346 2.318215 7.000000
    endloop
  endfacet
  facet normal 0.951057 -0.309017 0.000000
    outer loop
      vertex -10.906346 2.318215 0.000000
      vertex -10.186032 4.535114 0.000000
      vertex -10.906346 2.318215 7.000000
    endloop
  endfacet
  facet normal 0.866025 -0.500000 0.000000
    outer loop
      vertex -9.020539 6.553806 0.000000
      vertex -9.020539 6.553806 7.000000
      vertex -10.186032 4.535114 7.000000
    endloop
  endfacet
  facet normal 0.866025 -0.500000 0.000000
    outer loop
      vertex -10.186032 4.535114 0.000000
      vertex -9.020539 6.553806 0.000000
      vertex -10.186032 4.535114 7.000000
    endloop
  endfacet
  facet normal 0.743145 -0.669131 0.000000
    outer loop
      vertex -7.460806 8.286065 0.000000
      vertex -7.460806 8.286065 7.000000
      vertex -9.020539 6.553806 7.000000
    endloop
  endfacet
  facet normal 0.743145 -0.669131 0.000000
    outer loop
      vertex -9.020539 6.553806 0.000000
      vertex -7.460806 8.286065 0.000000
      vertex -9.020539 6.553806 7.000000
    endloop
  endfacet
  facet normal 0.587785 -0.809017 0.000000
    outer loop
      vertex -5.575000 9.656183 0.000000
      vertex -5.575000 9.656183 7.000000
      vertex -7.460806 8.286065 7.000000
    endloop
  endfacet
  facet normal 0.587785 -0.809017 0.000000
    outer loop
      vertex -7.460806 8.286065 0.000000
      vertex -5.575000 9.656183 0.000000
      vertex -7.460806 8.286065 7.000000
    endloop
  endfacet
  facet normal 0.406737 -0.913545 0.000000
    outer loop
      vertex -3.445539 10.604280 0.000000
      vertex -3.445539 10.604280 7.000000
      vertex -5.575000 9.656183 7.000000
    endloop
  endfacet
  facet normal 0.406737 -0.913545 0.000000
    outer loop
      vertex -5.575000 9.656183 0.000000
      vertex -3.445539 10.604280 0.000000
      vertex -5.575000 9.656183 7.000000
    endloop
  endfacet
  facet normal 0.207912 -0.978148 0.000000
    outer loop
      vertex -1.165492 11.088919 0.000000
      vertex -1.165492 11.088919 7.000000
      vertex -3.445539 10.604280 7.000000
    endloop
  endfacet
  facet normal 0.207912 -0.978148 0.000000
    outer loop
      vertex -3.445539 10.604280 0.000000
      vertex -1.165492 11.088919 0.000000
      vertex -3.445539 10.604280 7.000000
    endloop
  endfacet
  facet normal 0.000000 -1.000000 0.000000
    outer loop
      vertex 1.165492 11.088919 0.000000
      vertex 1.165492 11.088919 7.000000
      vertex -1.165492 11.088919 7.000000
    endloop
  endfacet
  facet normal -0.000000 -1.000000 -0.000000
    outer loop
      vertex -1.165492 11.088919 0.000000
      vertex 1.165492 11.088919 0.000000
      vertex -1.165492 11.088919 7.000000
    endloop
  endfacet
  facet normal -0.207912 -0.978148 -0.000000
    outer loop
      vertex 3.445539 10.604280 0.000000
      vertex 3.445539 10.604280 7.000000
      vertex 1.165492 11.088919 7.000000
    endloop
  endfacet
  facet normal -0.207912 -0.978148 -0.000000
    outer loop
      vertex 1.165492 11.088919 0.000000
      vertex 3.445539 10.604280 0.000000
      vertex 1.165492 11.088919 7.000000
    endloop
  endfacet
  facet normal -0.406737 -0.913545 -0.000000
    outer loop
      vertex 5.575000 9.656183 0.000000
      vertex 5.575000 9.656183 7.000000
      vertex 3.445539 10.604280 7.000000
    endloop
  endfacet
  facet normal -0.406737 -0.913545 -0.000000
    outer loop
      vertex 3.445539 10.604280 0.000000
      vertex 5.575000 9.656183 0.000000
      vertex 3.445539 10.604280 7.000000
    endloop
  endfacet
  facet normal -0.587785 -0.809017 -0.000000
    outer loop
      vertex 7.460806 8.286065 0.000000
      vertex 7.460806 8.286065 7.000000
      vertex 5.575000 9.656183 7.000000
    endloop
  endfacet
  facet normal -0.587785 -0.809017 -0.000000
    outer loop
      vertex 5.575000 9.656183 0.000000
      vertex 7.460806 8.286065 0.000000
      vertex 5.575000 9.656183 7.000000
    endloop
  endfacet
  facet normal -0.743145 -0.669131 0.000000
    outer loop
      vertex 9.020539 6.553806 7.000000
      vertex 7.460806 8.286065 7.000000
      vertex 9.020539 6.553806 0.000000
    endloop
  endfacet
  facet normal -0.743145 -0.669131 0.000000
    outer loop
      vertex 9.020539 6.553806 0.000000
      vertex 7.460806 8.286065 7.000000
      vertex 7.460806 8.286065 0.000000
    endloop
  endfacet
  facet normal -0.866025 -0.500000 0.000000
    outer loop
      vertex 10.186032 4.535114 7.000000
      vertex 9.020539 6.553806 7.000000
      vertex 10.186032 4.535114 0.000000
    endloop
  endfacet
  facet normal -0.866025 -0.500000 0.000000
    outer loop
      vertex 10.186032 4.535114 0.000000
      vertex 9.020539 6.553806 7.000000
      vertex 9.020539 6.553806 0.000000
    endloop
  endfacet
  facet normal -0.951057 -0.309017 0.000000
    outer loop
      vertex 10.906346 2.318215 7.000000
      vertex 10.186032 4.535114 7.000000
      vertex 10.906346 2.318215 0.000000
    endloop
  endfacet
  facet normal -0.951057 -0.309017 0.000000
    outer loop
      vertex 10.906346 2.318215 0.000000
      vertex 10.186032 4.535114 7.000000
      vertex 10.186032 4.535114 0.000000
    endloop
  endfacet
  facet normal -0.994522 -0.104528 0.000000
    outer loop
      vertex 11.150000 0.000000 7.000000
      vertex 10.906346 2.318215 7.000000
      vertex 11.150000 0.000000 0.000000
    endloop
  endfacet
  facet normal -0.994522 -0.104528 0.000000
    outer loop
      vertex 11.150000 0.000000 0.000000
      vertex 10.906346 2.318215 7.000000
      vertex 10.906346 2.318215 0.000000
    endloop
  endfacet
  facet normal -0.994522 0.104528 0.000000
    outer loop
      vertex 11.150000 0.000000 7.000000
      vertex 11.150000 0.000000 0.000000
      vertex 10.906346 -2.318215 7.000000
    endloop
  endfacet
  facet normal -0.994522 0.104528 0.000000
    outer loop
      vertex 10.906346 -2.318215 7.000000
      vertex 11.150000 0.000000 0.000000
      vertex 10.906346 -2.318215 0.000000
    endloop
  endfacet
  facet normal -0.951057 0.309017 0.000000
    outer loop
      vertex 10.906346 -2.318215 7.000000
      vertex 10.906346 -2.318215 0.000000
      vertex 10.186032 -4.535114 7.000000
    endloop
  endfacet
  facet normal -0.951057 0.309017 0.000000
    outer loop
      vertex 10.186032 -4.535114 7.000000
      vertex 10.906346 -2.318215 0.000000
      vertex 10.186032 -4.535114 0.000000
    endloop
  endfacet
  facet normal -0.866025 0.500000 0.000000
    outer loop
      vertex 10.186032 -4.535114 7.000000
      vertex 10.186032 -4.535114 0.000000
      vertex 9.020539 -6.553806 7.000000
    endloop
  endfacet
  facet normal -0.866025 0.500000 0.000000
    outer loop
      vertex 9.020539 -6.553806 7.000000
      vertex 10.186032 -4.535114 0.000000
      vertex 9.020539 -6.553806 0.000000
    endloop
  endfacet
  facet normal -0.743145 0.669131 0.000000
    outer loop
      vertex 9.020539 -6.553806 7.000000
      vertex 9.020539 -6.553806 0.000000
      vertex 7.460806 -8.286065 7.000000
    endloop
  endfacet
  facet normal -0.743145 0.669131 0.000000
    outer loop
      vertex 7.460806 -8.286065 7.000000
      vertex 9.020539 -6.553806 0.000000
      vertex 7.460806 -8.286065 0.000000
    endloop
  endfacet
  facet normal -0.587785 0.809017 0.000000
    outer loop
      vertex 7.460806 -8.286065 7.000000
      vertex 7.460806 -8.286065 0.000000
      vertex 5.575000 -9.656183 7.000000
    endloop
  endfacet
  facet normal -0.587785 0.809017 0.000000
    outer loop
      vertex 5.575000 -9.656183 7.000000
      vertex 7.460806 -8.286065 0.000000
      vertex 5.575000 -9.656183 0.000000
    endloop
  endfacet
  facet normal -0.406737 0.913545 0.000000
    outer loop
      vertex 5.575000 -9.656183 7.000000
      vertex 5.575000 -9.656183 0.000000
      vertex 3.445539 -10.604280 7.000000
    endloop
  endfacet
  facet normal -0.406737 0.913545 0.000000
    outer loop
      vertex 3.445539 -10.604280 7.000000
      vertex 5.575000 -9.656183 0.000000
      vertex 3.445539 -10.604280 0.000000
    endloop
  endfacet
  facet normal -0.207912 0.978148 0.000000
    outer loop
      vertex 3.445539 -10.604280 7.000000
      vertex 3.445539 -10.604280 0.000000
      vertex 1.165492 -11.088919 7.000000
    endloop
  endfacet
  facet normal -0.207912 0.978148 0.000000
    outer loop
      vertex 1.165492 -11.088919 7.000000
      vertex 3.445539 -10.604280 0.000000
      vertex 1.165492 -11.088919 0.000000
    endloop
  endfacet
  facet normal 0.000000 1.000000 0.000000
    outer loop
      vertex 1.165492 -11.088919 7.000000
      vertex 1.165492 -11.088919 0.000000
      vertex -1.165492 -11.088919 7.000000
    endloop
  endfacet
  facet normal 0.000000 1.000000 -0.000000
    outer loop
      vertex -1.165492 -11.088919 7.000000
      vertex 1.165492 -11.088919 0.000000
      vertex -1.165492 -11.088919 0.000000
    endloop
  endfacet
  facet normal 0.207912 0.978148 -0.000000
    outer loop
      vertex -1.165492 -11.088919 7.000000
      vertex -1.165492 -11.088919 0.000000
      vertex -3.445539 -10.604280 7.000000
    endloop
  endfacet
  facet normal 0.207912 0.978148 -0.000000
    outer loop
      vertex -3.445539 -10.604280 7.000000
      vertex -1.165492 -11.088919 0.000000
      vertex -3.445539 -10.604280 0.000000
    endloop
  endfacet
  facet normal 0.406737 0.913545 -0.000000
    outer loop
      vertex -3.445539 -10.604280 7.000000
      vertex -3.445539 -10.604280 0.000000
      vertex -5.575000 -9.656183 7.000000
    endloop
  endfacet
  facet normal 0.406737 0.913545 -0.000000
    outer loop
      vertex -5.575000 -9.656183 7.000000
      vertex -3.445539 -10.604280 0.000000
      vertex -5.575000 -9.656183 0.000000
    endloop
  endfacet
  facet normal 0.587785 0.809017 -0.000000
    outer loop
      vertex -5.575000 -9.656183 7.000000
      vertex -5.575000 -9.656183 0.000000
      vertex -7.460806 -8.286065 7.000000
    endloop
  endfacet
  facet normal 0.587785 0.809017 -0.000000
    outer loop
      vertex -7.460806 -8.286065 7.000000
      vertex -5.575000 -9.656183 0.000000
      vertex -7.460806 -8.286065 0.000000
    endloop
  endfacet
  facet normal 0.743145 0.669131 0.000000
    outer loop
      vertex -9.020539 -6.553806 7.000000
      vertex -7.460806 -8.286065 7.000000
      vertex -7.460806 -8.286065 0.000000
    endloop
  endfacet
  facet normal 0.743145 0.669131 0.000000
    outer loop
      vertex -9.020539 -6.553806 0.000000
      vertex -9.020539 -6.553806 7.000000
      vertex -7.460806 -8.286065 0.000000
    endloop
  endfacet
  facet normal 0.866025 0.500000 0.000000
    outer loop
      vertex -10.186032 -4.535114 7.000000
      vertex -9.020539 -6.553806 7.000000
      vertex -9.020539 -6.553806 0.000000
    endloop
  endfacet
  facet normal 0.866025 0.500000 0.000000
    outer loop
      vertex -10.186032 -4.535114 0.000000
      vertex -10.186032 -4.535114 7.000000
      vertex -9.020539 -6.553806 0.000000
    endloop
  endfacet
  facet normal 0.951057 0.309017 0.000000
    outer loop
      vertex -10.906346 -2.318215 7.000000
      vertex -10.186032 -4.535114 7.000000
      vertex -10.186032 -4.535114 0.000000
    endloop
  endfacet
  facet normal 0.951057 0.309017 0.000000
    outer loop
      vertex -10.906346 -2.318215 0.000000
      vertex -10.906346 -2.318215 7.000000
      vertex -10.186032 -4.535114 0.000000
    endloop
  endfacet
  facet normal 0.000000 0.000000 1.000000
    outer loop
      vertex -28.366280 6.029439 7.000000
      vertex -29.000000 0.000000 7.000000
      vertex -28.366280 -6.029439 7.000000
    endloop
  endfacet
  facet normal 0.000000 0.000000 1.000000
    outer loop
      vertex -23.461493 -17.045772 7.000000
      vertex -28.366280 6.029439 7.000000
      vertex -26.492818 -11.795363 7.000000
    endloop
  endfacet
  facet normal 0.000000 0.000000 1.000000
    outer loop
      vertex -26.492818 -11.795363 7.000000
      vertex -28.366280 6.029439 7.000000
      vertex -28.366280 -6.029439 7.000000
    endloop
  endfacet
  facet normal 0.000000 0.000000 1.000000
    outer loop
      vertex -19.404788 -21.551200 7.000000
      vertex -28.366280 6.029439 7.000000
      vertex -23.461493 -17.045772 7.000000
    endloop
  endfacet
  facet normal 0.000000 0.000000 1.000000
    outer loop
      vertex -14.500000 -25.114737 7.000000
      vertex -28.366280 6.029439 7.000000
      vertex -19.404788 -21.551200 7.000000
    endloop
  endfacet
  facet normal 0.000000 0.000000 1.000000
    outer loop
      vertex -8.961493 -27.580639 7.000000
      vertex -28.366280 6.029439 7.000000
      vertex -14.500000 -25.114737 7.000000
    endloop
  endfacet
  facet normal 0.000000 0.000000 1.000000
    outer loop
      vertex -3.031325 -28.841135 7.000000
      vertex -28.366280 6.029439 7.000000
      vertex -8.961493 -27.580639 7.000000
    endloop
  endfacet
  facet normal -0.000000 0.000000 1.000000
    outer loop
      vertex 3.031325 -28.841135 7.000000
      vertex -28.366280 6.029439 7.000000
      vertex -3.031325 -28.841135 7.000000
    endloop
  endfacet
  facet normal -0.000000 0.000000 1.000000
    outer loop
      vertex 8.961493 -27.580639 7.000000
      vertex -28.366280 6.029439 7.000000
      vertex 3.031325 -28.841135 7.000000
    endloop
  endfacet
  facet normal -0.000000 0.000000 1.000000
    outer loop
      vertex 14.500000 -25.114737 7.000000
      vertex -28.366280 6.029439 7.000000
      vertex 8.961493 -27.580639 7.000000
    endloop
  endfacet
  facet normal -0.000000 -0.000000 1.000000
    outer loop
      vertex -5.575000 -9.656183 7.000000
      vertex -28.366280 6.029439 7.000000
      vertex 14.500000 -25.114737 7.000000
    endloop
  endfacet
  facet normal 0.000000 -0.000000 1.000000
    outer loop
      vertex 3.445539 -10.604280 7.000000
      vertex 1.165492 -11.088919 7.000000
      vertex 19.404788 -21.551200 7.000000
    endloop
  endfacet
  facet normal 0.000000 0.000000 1.000000
    outer loop
      vertex 10.906346 2.318215 7.000000
      vertex 11.150000 0.000000 7.000000
      vertex 29.000000 0.000000 7.000000
    endloop
  endfacet
  facet normal 0.000000 -0.000000 1.000000
    outer loop
      vertex 19.404788 21.551200 7.000000
      vertex -28.366280 6.029439 7.000000
      vertex 23.461493 17.045772 7.000000
    endloop
  endfacet
  facet normal 0.000000 -0.000000 1.000000
    outer loop
      vertex 14.500000 25.114737 7.000000
      vertex -28.366280 6.029439 7.000000
      vertex 19.404788 21.551200 7.000000
    endloop
  endfacet
  facet normal 0.000000 -0.000000 1.000000
    outer loop
      vertex 8.961493 27.580639 7.000000
      vertex -28.366280 6.029439 7.000000
      vertex 14.500000 25.114737 7.000000
    endloop
  endfacet
  facet normal 0.000000 -0.000000 1.000000
    outer loop
      vertex 3.031325 28.841135 7.000000
      vertex -28.366280 6.029439 7.000000
      vertex 8.961493 27.580639 7.000000
    endloop
  endfacet
  facet normal 0.000000 -0.000000 1.000000
    outer loop
      vertex -3.031325 28.841135 7.000000
      vertex -28.366280 6.029439 7.000000
      vertex 3.031325 28.841135 7.000000
    endloop
  endfacet
  facet normal 0.000000 -0.000000 1.000000
    outer loop
      vertex -8.961493 27.580639 7.000000
      vertex -28.366280 6.029439 7.000000
      vertex -3.031325 28.841135 7.000000
    endloop
  endfacet
  facet normal 0.000000 -0.000000 1.000000
    outer loop
      vertex -14.500000 25.114737 7.000000
      vertex -28.366280 6.029439 7.000000
      vertex -8.961493 27.580639 7.000000
    endloop
  endfacet
  facet normal 0.000000 -0.000000 1.000000
    outer loop
      vertex -19.404788 21.551200 7.000000
      vertex -28.366280 6.029439 7.000000
      vertex -14.500000 25.114737 7.000000
    endloop
  endfacet
  facet normal 0.000000 -0.000000 1.000000
    outer loop
      vertex -23.461493 17.045772 7.000000
      vertex -28.366280 6.029439 7.000000
      vertex -19.404788 21.551200 7.000000
    endloop
  endfacet
  facet normal 0.000000 -0.000000 1.000000
    outer loop
      vertex -26.492818 11.795363 7.000000
      vertex -28.366280 6.029439 7.000000
      vertex -23.461493 17.045772 7.000000
    endloop
  endfacet
  facet normal 0.000000 0.000000 1.000000
    outer loop
      vertex -7.460806 -8.286065 7.000000
      vertex -9.020539 -6.553806 7.000000
      vertex -28.366280 6.029439 7.000000
    endloop
  endfacet
  facet normal 0.000000 0.000000 1.000000
    outer loop
      vertex -11.150000 0.000000 7.000000
      vertex -10.906346 2.318215 7.000000
      vertex -28.366280 6.029439 7.000000
    endloop
  endfacet
  facet normal 0.000000 -0.000000 1.000000
    outer loop
      vertex 7.460806 -8.286065 7.000000
      vertex 5.575000 -9.656183 7.000000
      vertex 23.461493 -17.045772 7.000000
    endloop
  endfacet
  facet normal 0.000000 -0.000000 1.000000
    outer loop
      vertex 10.906346 -2.318215 7.000000
      vertex 10.186032 -4.535114 7.000000
      vertex 28.366280 -6.029439 7.000000
    endloop
  endfacet
  facet normal -0.000000 0.000000 1.000000
    outer loop
      vertex -9.020539 6.553806 7.000000
      vertex -7.460806 8.286065 7.000000
      vertex -28.366280 6.029439 7.000000
    endloop
  endfacet
  facet normal 0.000000 -0.000000 1.000000
    outer loop
      vertex 10.186032 -4.535114 7.000000
      vertex 9.020539 -6.553806 7.000000
      vertex 26.492818 -11.795363 7.000000
    endloop
  endfacet
  facet normal 0.000000 0.000000 1.000000
    outer loop
      vertex -1.165492 11.088919 7.000000
      vertex 1.165492 11.088919 7.000000
      vertex 23.461493 17.045772 7.000000
    endloop
  endfacet
  facet normal 0.000000 0.000000 1.000000
    outer loop
      vertex 9.020539 6.553806 7.000000
      vertex 10.186032 4.535114 7.000000
      vertex 28.366280 6.029439 7.000000
    endloop
  endfacet
  facet normal 0.000000 0.000000 1.000000
    outer loop
      vertex -5.575000 9.656183 7.000000
      vertex -28.366280 6.029439 7.000000
      vertex -7.460806 8.286065 7.000000
    endloop
  endfacet
  facet normal 0.000000 0.000000 1.000000
    outer loop
      vertex -3.445539 10.604280 7.000000
      vertex -28.366280 6.029439 7.000000
      vertex -5.575000 9.656183 7.000000
    endloop
  endfacet
  facet normal 0.000000 0.000000 1.000000
    outer loop
      vertex 23.461493 17.045772 7.000000
      vertex -28.366280 6.029439 7.000000
      vertex -3.445539 10.604280 7.000000
    endloop
  endfacet
  facet normal 0.000000 0.000000 1.000000
    outer loop
      vertex 1.165492 11.088919 7.000000
      vertex 3.445539 10.604280 7.000000
      vertex 23.461493 17.045772 7.000000
    endloop
  endfacet
  facet normal 0.000000 0.000000 1.000000
    outer loop
      vertex 23.461493 17.045772 7.000000
      vertex -3.445539 10.604280 7.000000
      vertex -1.165492 11.088919 7.000000
    endloop
  endfacet
  facet normal 0.000000 -0.000000 1.000000
    outer loop
      vertex 23.461493 17.045772 7.000000
      vertex 3.445539 10.604280 7.000000
      vertex 26.492818 11.795363 7.000000
    endloop
  endfacet
  facet normal 0.000000 0.000000 1.000000
    outer loop
      vertex 3.445539 10.604280 7.000000
      vertex 5.575000 9.656183 7.000000
      vertex 26.492818 11.795363 7.000000
    endloop
  endfacet
  facet normal 0.000000 -0.000000 1.000000
    outer loop
      vertex 26.492818 11.795363 7.000000
      vertex 7.460806 8.286065 7.000000
      vertex 28.366280 6.029439 7.000000
    endloop
  endfacet
  facet normal 0.000000 0.000000 1.000000
    outer loop
      vertex 7.460806 8.286065 7.000000
      vertex 9.020539 6.553806 7.000000
      vertex 28.366280 6.029439 7.000000
    endloop
  endfacet
  facet normal 0.000000 -0.000000 1.000000
    outer loop
      vertex 28.366280 6.029439 7.000000
      vertex 10.186032 4.535114 7.000000
      vertex 29.000000 0.000000 7.000000
    endloop
  endfacet
  facet normal 0.000000 0.000000 1.000000
    outer loop
      vertex 10.186032 4.535114 7.000000
      vertex 10.906346 2.318215 7.000000
      vertex 29.000000 0.000000 7.000000
    endloop
  endfacet
  facet normal 0.000000 0.000000 1.000000
    outer loop
      vertex 29.000000 0.000000 7.000000
      vertex 11.150000 0.000000 7.000000
      vertex 28.366280 -6.029439 7.000000
    endloop
  endfacet
  facet normal 0.000000 0.000000 1.000000
    outer loop
      vertex -10.186032 4.535114 7.000000
      vertex -9.020539 6.553806 7.000000
      vertex -28.366280 6.029439 7.000000
    endloop
  endfacet
  facet normal 0.000000 -0.000000 1.000000
    outer loop
      vertex 11.150000 0.000000 7.000000
      vertex 10.906346 -2.318215 7.000000
      vertex 28.366280 -6.029439 7.000000
    endloop
  endfacet
  facet normal 0.000000 0.000000 1.000000
    outer loop
      vertex 5.575000 9.656183 7.000000
      vertex 7.460806 8.286065 7.000000
      vertex 26.492818 11.795363 7.000000
    endloop
  endfacet
  facet normal -0.000000 0.000000 1.000000
    outer loop
      vertex 28.366280 -6.029439 7.000000
      vertex 10.186032 -4.535114 7.000000
      vertex 26.492818 -11.795363 7.000000
    endloop
  endfacet
  facet normal -0.000000 0.000000 1.000000
    outer loop
      vertex 26.492818 -11.795363 7.000000
      vertex 9.020539 -6.553806 7.000000
      vertex 23.461493 -17.045772 7.000000
    endloop
  endfacet
  facet normal 0.000000 -0.000000 1.000000
    outer loop
      vertex 9.020539 -6.553806 7.000000
      vertex 7.460806 -8.286065 7.000000
      vertex 23.461493 -17.045772 7.000000
    endloop
  endfacet
  facet normal -0.000000 0.000000 1.000000
    outer loop
      vertex 23.461493 -17.045772 7.000000
      vertex 5.575000 -9.656183 7.000000
      vertex 19.404788 -21.551200 7.000000
    endloop
  endfacet
  facet normal 0.000000 -0.000000 1.000000
    outer loop
      vertex 5.575000 -9.656183 7.000000
      vertex 3.445539 -10.604280 7.000000
      vertex 19.404788 -21.551200 7.000000
    endloop
  endfacet
  facet normal -0.000000 0.000000 1.000000
    outer loop
      vertex 19.404788 -21.551200 7.000000
      vertex 1.165492 -11.088919 7.000000
      vertex 14.500000 -25.114737 7.000000
    endloop
  endfacet
  facet normal 0.000000 0.000000 1.000000
    outer loop
      vertex -10.906346 -2.318215 7.000000
      vertex -11.150000 0.000000 7.000000
      vertex -28.366280 6.029439 7.000000
    endloop
  endfacet
  facet normal 0.000000 -0.000000 1.000000
    outer loop
      vertex 1.165492 -11.088919 7.000000
      vertex -1.165492 -11.088919 7.000000
      vertex 14.500000 -25.114737 7.000000
    endloop
  endfacet
  facet normal -0.000000 -0.000000 1.000000
    outer loop
      vertex -1.165492 -11.088919 7.000000
      vertex -3.445539 -10.604280 7.000000
      vertex 14.500000 -25.114737 7.000000
    endloop
  endfacet
  facet normal -0.000000 -0.000000 1.000000
    outer loop
      vertex -3.445539 -10.604280 7.000000
      vertex -5.575000 -9.656183 7.000000
      vertex 14.500000 -25.114737 7.000000
    endloop
  endfacet
  facet normal -0.000000 -0.000000 1.000000
    outer loop
      vertex -7.460806 -8.286065 7.000000
      vertex -28.366280 6.029439 7.000000
      vertex -5.575000 -9.656183 7.000000
    endloop
  endfacet
  facet normal 0.000000 0.000000 1.000000
    outer loop
      vertex -9.020539 -6.553806 7.000000
      vertex -10.186032 -4.535114 7.000000
      vertex -28.366280 6.029439 7.000000
    endloop
  endfacet
  facet normal 0.000000 0.000000 1.000000
    outer loop
      vertex -10.186032 -4.535114 7.000000
      vertex -10.906346 -2.318215 7.000000
      vertex -28.366280 6.029439 7.000000
    endloop
  endfacet
  facet normal 0.000000 0.000000 1.000000
    outer loop
      vertex -10.906346 2.318215 7.000000
      vertex -10.186032 4.535114 7.000000
      vertex -28.366280 6.029439 7.000000
    endloop
  endfacet
endsolid OpenSCAD_Model
