solid OpenSCAD_Model
  facet normal 0.000000 -1.000000 0.000000
    outer loop
      vertex -27.716386 -2.500000 5.000000
      vertex -27.716386 -2.500000 0.000000
      vertex -23.096989 -2.500000 0.000000
    endloop
  endfacet
  facet normal 0.000000 -1.000000 0.000000
    outer loop
      vertex -23.096989 -2.500000 5.000000
      vertex -27.716386 -2.500000 5.000000
      vertex -23.096989 -2.500000 0.000000
    endloop
  endfacet
  facet normal 0.000000 0.000000 -1.000000
    outer loop
      vertex -27.716386 -2.500000 0.000000
      vertex -27.716386 2.500000 0.000000
      vertex -23.096989 -2.500000 0.000000
    endloop
  endfacet
  facet normal 0.000000 -0.000000 -1.000000
    outer loop
      vertex -23.096989 -2.500000 0.000000
      vertex -27.716386 2.500000 0.000000
      vertex -23.096989 2.500000 0.000000
    endloop
  endfacet
  facet normal -1.000000 0.000000 0.000000
    outer loop
      vertex -27.716386 -2.500000 0.000000
      vertex -27.716386 -2.500000 5.000000
      vertex -27.716386 2.500000 0.000000
    endloop
  endfacet
  facet normal -1.000000 0.000000 0.000000
    outer loop
      vertex -27.716386 2.500000 0.000000
      vertex -27.716386 -2.500000 5.000000
      vertex -27.716386 2.500000 5.000000
    endloop
  endfacet
  facet normal 0.000000 0.000000 1.000000
    outer loop
      vertex -18.099804 -14.564270 5.000000
      vertex -14.564270 -18.099804 5.000000
      vertex -23.096989 -2.500000 5.000000
    endloop
  endfacet
  facet normal 0.000000 -0.000000 1.000000
    outer loop
      vertex -27.716386 2.500000 5.000000
      vertex -27.716386 -2.500000 5.000000
      vertex -23.096989 -2.500000 5.000000
    endloop
  endfacet
  facet normal 0.000000 0.000000 1.000000
    outer loop
      vertex -2.500000 -23.096989 5.000000
      vertex -27.716386 2.500000 5.000000
      vertex -23.096989 -2.500000 5.000000
    endloop
  endfacet
  facet normal 0.000000 0.000000 1.000000
    outer loop
      vertex -23.096988 -9.567086 5.000000
      vertex -18.099804 -14.564270 5.000000
      vertex -23.096989 -2.500000 5.000000
    endloop
  endfacet
  facet normal 0.000000 0.000000 1.000000
    outer loop
      vertex -2.500000 -23.096989 5.000000
      vertex 2.500000 -27.716386 5.000000
      vertex -27.716386 2.500000 5.000000
    endloop
  endfacet
  facet normal 0.000000 0.000000 1.000000
    outer loop
      vertex -21.366211 -17.830677 5.000000
      vertex -17.830677 -21.366211 5.000000
      vertex -18.099804 -14.564270 5.000000
    endloop
  endfacet
  facet normal 0.000000 0.000000 1.000000
    outer loop
      vertex -17.830677 -21.366211 5.000000
      vertex -14.564270 -18.099804 5.000000
      vertex -18.099804 -14.564270 5.000000
    endloop
  endfacet
  facet normal 0.000000 0.000000 1.000000
    outer loop
      vertex -14.564270 -18.099804 5.000000
      vertex -9.567086 -23.096989 5.000000
      vertex -23.096989 -2.500000 5.000000
    endloop
  endfacet
  facet normal 0.000000 0.000000 1.000000
    outer loop
      vertex -9.567086 -23.096989 5.000000
      vertex -2.500000 -23.096989 5.000000
      vertex -23.096989 -2.500000 5.000000
    endloop
  endfacet
  facet normal 0.000000 0.000000 1.000000
    outer loop
      vertex 2.500000 -23.096989 5.000000
      vertex 9.567086 -23.096988 5.000000
      vertex -27.716386 2.500000 5.000000
    endloop
  endfacet
  facet normal 0.000000 0.000000 1.000000
    outer loop
      vertex -2.500000 -27.716386 5.000000
      vertex 2.500000 -27.716386 5.000000
      vertex -2.500000 -23.096989 5.000000
    endloop
  endfacet
  facet normal 0.000000 0.000000 1.000000
    outer loop
      vertex 2.500000 -27.716386 5.000000
      vertex 2.500000 -23.096989 5.000000
      vertex -27.716386 2.500000 5.000000
    endloop
  endfacet
  facet normal 0.000000 -0.000000 1.000000
    outer loop
      vertex 10.186032 -4.535114 5.000000
      vertex 9.020539 -6.553806 5.000000
      vertex 23.096989 -9.567086 5.000000
    endloop
  endfacet
  facet normal 0.000000 0.000000 1.000000
    outer loop
      vertex 17.830677 -21.366211 5.000000
      vertex 21.366211 -17.830677 5.000000
      vertex 14.564270 -18.099804 5.000000
    endloop
  endfacet
  facet normal 0.000000 0.000000 1.000000
    outer loop
      vertex -10.906346 -2.318215 5.000000
      vertex -11.150000 0.000000 5.000000
      vertex -27.716386 2.500000 5.000000
    endloop
  endfacet
  facet normal 0.000000 0.000000 1.000000
    outer loop
      vertex 11.150000 0.000000 5.000000
      vertex 23.096989 -2.500000 5.000000
      vertex 27.716386 -2.500000 5.000000
    endloop
  endfacet
  facet normal 0.000000 0.000000 1.000000
    outer loop
      vertex 27.716386 -2.500000 5.000000
      vertex 27.716386 2.500000 5.000000
      vertex 23.096989 2.500000 5.000000
    endloop
  endfacet
  facet normal 0.000000 0.000000 1.000000
    outer loop
      vertex 1.165492 11.088919 5.000000
      vertex 18.099804 14.564270 5.000000
      vertex 21.366211 17.830677 5.000000
    endloop
  endfacet
  facet normal 0.000000 0.000000 1.000000
    outer loop
      vertex 5.575000 9.656183 5.000000
      vertex 23.096988 9.567086 5.000000
      vertex 18.099804 14.564270 5.000000
    endloop
  endfacet
  facet normal 0.000000 0.000000 1.000000
    outer loop
      vertex 14.564270 18.099804 5.000000
      vertex 21.366211 17.830677 5.000000
      vertex 17.830677 21.366211 5.000000
    endloop
  endfacet
  facet normal 0.000000 -0.000000 1.000000
    outer loop
      vertex -2.500000 27.716386 5.000000
      vertex -2.500000 23.096989 5.000000
      vertex 2.500000 27.716386 5.000000
    endloop
  endfacet
  facet normal 0.000000 0.000000 1.000000
    outer loop
      vertex -1.165492 11.088919 5.000000
      vertex 21.366211 17.830677 5.000000
      vertex 14.564270 18.099804 5.000000
    endloop
  endfacet
  facet normal 0.000000 0.000000 1.000000
    outer loop
      vertex -2.500000 23.096989 5.000000
      vertex 2.500000 23.096989 5.000000
      vertex 2.500000 27.716386 5.000000
    endloop
  endfacet
  facet normal 0.000000 0.000000 1.000000
    outer loop
      vertex -18.099804 14.564270 5.000000
      vertex -14.564270 18.099804 5.000000
      vertex -17.830677 21.366211 5.000000
    endloop
  endfacet
  facet normal 0.000000 0.000000 1.000000
    outer loop
      vertex -18.099804 14.564270 5.000000
      vertex -2.500000 23.096989 5.000000
      vertex -14.564270 18.099804 5.000000
    endloop
  endfacet
  facet normal 0.000000 0.000000 1.000000
    outer loop
      vertex -14.564270 18.099804 5.000000
      vertex -2.500000 23.096989 5.000000
      vertex -9.567086 23.096988 5.000000
    endloop
  endfacet
  facet normal 0.000000 0.000000 1.000000
    outer loop
      vertex -3.445539 10.604280 5.000000
      vertex -1.165492 11.088919 5.000000
      vertex 14.564270 18.099804 5.000000
    endloop
  endfacet
  facet normal 0.000000 0.000000 1.000000
    outer loop
      vertex 5.575000 -9.656183 5.000000
      vertex 21.366211 -17.830677 5.000000
      vertex 18.099804 -14.564270 5.000000
    endloop
  endfacet
  facet normal 0.000000 0.000000 1.000000
    outer loop
      vertex -10.186032 -4.535114 5.000000
      vertex -10.906346 -2.318215 5.000000
      vertex -27.716386 2.500000 5.000000
    endloop
  endfacet
  facet normal 0.000000 0.000000 1.000000
    outer loop
      vertex 7.460806 8.286065 5.000000
      vertex 9.020539 6.553806 5.000000
      vertex 23.096988 9.567086 5.000000
    endloop
  endfacet
  facet normal 0.000000 0.000000 1.000000
    outer loop
      vertex 3.445539 10.604280 5.000000
      vertex 5.575000 9.656183 5.000000
      vertex 18.099804 14.564270 5.000000
    endloop
  endfacet
  facet normal 0.000000 0.000000 1.000000
    outer loop
      vertex -10.906346 2.318215 5.000000
      vertex -10.186032 4.535114 5.000000
      vertex -23.096989 2.500000 5.000000
    endloop
  endfacet
  facet normal 0.000000 0.000000 1.000000
    outer loop
      vertex -11.150000 0.000000 5.000000
      vertex -10.906346 2.318215 5.000000
      vertex -23.096989 2.500000 5.000000
    endloop
  endfacet
  facet normal 0.000000 0.000000 1.000000
    outer loop
      vertex 7.460806 8.286065 5.000000
      vertex 23.096988 9.567086 5.000000
      vertex 5.575000 9.656183 5.000000
    endloop
  endfacet
  facet normal 0.000000 0.000000 1.000000
    outer loop
      vertex 10.186032 4.535114 5.000000
      vertex 10.906346 2.318215 5.000000
      vertex 23.096989 2.500000 5.000000
    endloop
  endfacet
  facet normal 0.000000 0.000000 1.000000
    outer loop
      vertex -1.165492 11.088919 5.000000
      vertex 1.165492 11.088919 5.000000
      vertex 21.366211 17.830677 5.000000
    endloop
  endfacet
  facet normal 0.000000 0.000000 1.000000
    outer loop
      vertex 23.096989 2.500000 5.000000
      vertex 23.096988 9.567086 5.000000
      vertex 9.020539 6.553806 5.000000
    endloop
  endfacet
  facet normal 0.000000 -0.000000 1.000000
    outer loop
      vertex 11.150000 0.000000 5.000000
      vertex 10.906346 -2.318215 5.000000
      vertex 23.096989 -2.500000 5.000000
    endloop
  endfacet
  facet normal 0.000000 0.000000 1.000000
    outer loop
      vertex 23.096989 2.500000 5.000000
      vertex 9.020539 6.553806 5.000000
      vertex 10.186032 4.535114 5.000000
    endloop
  endfacet
  facet normal 0.000000 0.000000 1.000000
    outer loop
      vertex 27.716386 -2.500000 5.000000
      vertex 23.096989 2.500000 5.000000
      vertex 10.906346 2.318215 5.000000
    endloop
  endfacet
  facet normal 0.000000 -0.000000 1.000000
    outer loop
      vertex 5.575000 -9.656183 5.000000
      vertex 3.445539 -10.604280 5.000000
      vertex 21.366211 -17.830677 5.000000
    endloop
  endfacet
  facet normal 0.000000 0.000000 1.000000
    outer loop
      vertex 27.716386 -2.500000 5.000000
      vertex 10.906346 2.318215 5.000000
      vertex 11.150000 0.000000 5.000000
    endloop
  endfacet
  facet normal 0.000000 0.000000 1.000000
    outer loop
      vertex 23.096989 -9.567086 5.000000
      vertex 23.096989 -2.500000 5.000000
      vertex 10.906346 -2.318215 5.000000
    endloop
  endfacet
  facet normal 0.000000 -0.000000 1.000000
    outer loop
      vertex 9.020539 -6.553806 5.000000
      vertex 7.460806 -8.286065 5.000000
      vertex 23.096989 -9.567086 5.000000
    endloop
  endfacet
  facet normal 0.000000 0.000000 1.000000
    outer loop
      vertex 23.096989 -9.567086 5.000000
      vertex 10.906346 -2.318215 5.000000
      vertex 10.186032 -4.535114 5.000000
    endloop
  endfacet
  facet normal 0.000000 0.000000 1.000000
    outer loop
      vertex -11.150000 0.000000 5.000000
      vertex -23.096989 2.500000 5.000000
      vertex -27.716386 2.500000 5.000000
    endloop
  endfacet
  facet normal 0.000000 -0.000000 1.000000
    outer loop
      vertex 7.460806 -8.286065 5.000000
      vertex 5.575000 -9.656183 5.000000
      vertex 18.099804 -14.564270 5.000000
    endloop
  endfacet
  facet normal 0.000000 0.000000 1.000000
    outer loop
      vertex 18.099804 -14.564270 5.000000
      vertex 23.096989 -9.567086 5.000000
      vertex 7.460806 -8.286065 5.000000
    endloop
  endfacet
  facet normal 0.000000 0.000000 1.000000
    outer loop
      vertex 14.564270 -18.099804 5.000000
      vertex 21.366211 -17.830677 5.000000
      vertex 3.445539 -10.604280 5.000000
    endloop
  endfacet
  facet normal 0.000000 0.000000 1.000000
    outer loop
      vertex 14.564270 -18.099804 5.000000
      vertex 3.445539 -10.604280 5.000000
      vertex 1.165492 -11.088919 5.000000
    endloop
  endfacet
  facet normal 0.000000 0.000000 1.000000
    outer loop
      vertex 9.567086 -23.096988 5.000000
      vertex 14.564270 -18.099804 5.000000
      vertex -1.165492 -11.088919 5.000000
    endloop
  endfacet
  facet normal 0.000000 0.000000 1.000000
    outer loop
      vertex -7.460806 -8.286065 5.000000
      vertex -9.020539 -6.553806 5.000000
      vertex -27.716386 2.500000 5.000000
    endloop
  endfacet
  facet normal 0.000000 0.000000 1.000000
    outer loop
      vertex 9.567086 -23.096988 5.000000
      vertex -1.165492 -11.088919 5.000000
      vertex -3.445539 -10.604280 5.000000
    endloop
  endfacet
  facet normal 0.000000 0.000000 1.000000
    outer loop
      vertex 9.567086 -23.096988 5.000000
      vertex -5.575000 -9.656183 5.000000
      vertex -27.716386 2.500000 5.000000
    endloop
  endfacet
  facet normal 0.000000 0.000000 1.000000
    outer loop
      vertex 9.567086 -23.096988 5.000000
      vertex -3.445539 -10.604280 5.000000
      vertex -5.575000 -9.656183 5.000000
    endloop
  endfacet
  facet normal 0.000000 0.000000 1.000000
    outer loop
      vertex -5.575000 -9.656183 5.000000
      vertex -7.460806 -8.286065 5.000000
      vertex -27.716386 2.500000 5.000000
    endloop
  endfacet
  facet normal 0.000000 0.000000 1.000000
    outer loop
      vertex -9.020539 -6.553806 5.000000
      vertex -10.186032 -4.535114 5.000000
      vertex -27.716386 2.500000 5.000000
    endloop
  endfacet
  facet normal 0.000000 -0.000000 1.000000
    outer loop
      vertex 1.165492 -11.088919 5.000000
      vertex -1.165492 -11.088919 5.000000
      vertex 14.564270 -18.099804 5.000000
    endloop
  endfacet
  facet normal 0.000000 0.000000 1.000000
    outer loop
      vertex -21.366211 17.830677 5.000000
      vertex -18.099804 14.564270 5.000000
      vertex -17.830677 21.366211 5.000000
    endloop
  endfacet
  facet normal 0.000000 0.000000 1.000000
    outer loop
      vertex -23.096989 9.567086 5.000000
      vertex -2.500000 23.096989 5.000000
      vertex -18.099804 14.564270 5.000000
    endloop
  endfacet
  facet normal 0.000000 0.000000 1.000000
    outer loop
      vertex -23.096989 9.567086 5.000000
      vertex 2.500000 23.096989 5.000000
      vertex -2.500000 23.096989 5.000000
    endloop
  endfacet
  facet normal 0.000000 0.000000 1.000000
    outer loop
      vertex -23.096989 9.567086 5.000000
      vertex 9.567086 23.096989 5.000000
      vertex 2.500000 23.096989 5.000000
    endloop
  endfacet
  facet normal 0.000000 0.000000 1.000000
    outer loop
      vertex -23.096989 9.567086 5.000000
      vertex 14.564270 18.099804 5.000000
      vertex 9.567086 23.096989 5.000000
    endloop
  endfacet
  facet normal 0.000000 0.000000 1.000000
    outer loop
      vertex -23.096989 9.567086 5.000000
      vertex -3.445539 10.604280 5.000000
      vertex 14.564270 18.099804 5.000000
    endloop
  endfacet
  facet normal 0.000000 0.000000 1.000000
    outer loop
      vertex -23.096989 9.567086 5.000000
      vertex -5.575000 9.656183 5.000000
      vertex -3.445539 10.604280 5.000000
    endloop
  endfacet
  facet normal 0.000000 0.000000 1.000000
    outer loop
      vertex 1.165492 11.088919 5.000000
      vertex 3.445539 10.604280 5.000000
      vertex 18.099804 14.564270 5.000000
    endloop
  endfacet
  facet normal 0.000000 0.000000 1.000000
    outer loop
      vertex -23.096989 9.567086 5.000000
      vertex -7.460806 8.286065 5.000000
      vertex -5.575000 9.656183 5.000000
    endloop
  endfacet
  facet normal 0.000000 0.000000 1.000000
    outer loop
      vertex -23.096989 9.567086 5.000000
      vertex -9.020539 6.553806 5.000000
      vertex -7.460806 8.286065 5.000000
    endloop
  endfacet
  facet normal 0.000000 0.000000 1.000000
    outer loop
      vertex -23.096989 9.567086 5.000000
      vertex -10.186032 4.535114 5.000000
      vertex -9.020539 6.553806 5.000000
    endloop
  endfacet
  facet normal 0.000000 0.000000 1.000000
    outer loop
      vertex -23.096989 9.567086 5.000000
      vertex -23.096989 2.500000 5.000000
      vertex -10.186032 4.535114 5.000000
    endloop
  endfacet
  facet normal -1.000000 -0.000000 0.000000
    outer loop
      vertex -23.096989 2.500000 5.000000
      vertex -23.096989 9.567086 5.000000
      vertex -23.096989 2.500000 0.000000
    endloop
  endfacet
  facet normal -1.000000 -0.000000 0.000000
    outer loop
      vertex -23.096989 -2.500000 5.000000
      vertex -23.096988 -9.567086 0.000000
      vertex -23.096988 -9.567086 5.000000
    endloop
  endfacet
  facet normal -0.000000 -0.000000 -0.000000
    outer loop
      vertex -23.096989 9.567086 0.000000
      vertex -23.096988 -9.567086 0.000000
      vertex -23.096989 -2.500000 0.000000
    endloop
  endfacet
  facet normal -0.000000 -0.000000 0.000000
    outer loop
      vertex -23.096989 9.567086 0.000000
      vertex -23.096989 -2.500000 0.000000
      vertex -23.096989 2.500000 0.000000
    endloop
  endfacet
  facet normal -1.000000 -0.000000 -0.000000
    outer loop
      vertex -23.096989 9.567086 0.000000
      vertex -23.096989 2.500000 0.000000
      vertex -23.096989 9.567086 5.000000
    endloop
  endfacet
  facet normal -1.000000 -0.000000 -0.000000
    outer loop
      vertex -23.096989 -2.500000 0.000000
      vertex -23.096988 -9.567086 0.000000
      vertex -23.096989 -2.500000 5.000000
    endloop
  endfacet
  facet normal 0.000000 1.000000 0.000000
    outer loop
      vertex -27.716386 2.500000 0.000000
      vertex -27.716386 2.500000 5.000000
      vertex -23.096989 2.500000 0.000000
    endloop
  endfacet
  facet normal 0.000000 1.000000 0.000000
    outer loop
      vertex -23.096989 2.500000 0.000000
      vertex -27.716386 2.500000 5.000000
      vertex -23.096989 2.500000 5.000000
    endloop
  endfacet
  facet normal -0.707107 0.707107 0.000000
    outer loop
      vertex -23.096989 9.567086 0.000000
      vertex -23.096989 9.567086 5.000000
      vertex -18.099804 14.564270 0.000000
    endloop
  endfacet
  facet normal -0.000000 0.000000 -0.000000
    outer loop
      vertex -23.096989 9.567086 0.000000
      vertex -18.099804 14.564270 0.000000
      vertex -9.567086 23.096988 0.000000
    endloop
  endfacet
  facet normal -0.707107 0.707107 0.000000
    outer loop
      vertex -14.564270 18.099804 5.000000
      vertex -9.567086 23.096988 0.000000
      vertex -14.564270 18.099804 0.000000
    endloop
  endfacet
  facet normal -0.000000 0.000000 0.000000
    outer loop
      vertex -18.099804 14.564270 0.000000
      vertex -14.564270 18.099804 0.000000
      vertex -9.567086 23.096988 0.000000
    endloop
  endfacet
  facet normal -0.707107 0.707107 0.000000
    outer loop
      vertex -9.567086 23.096988 0.000000
      vertex -14.564270 18.099804 5.000000
      vertex -9.567086 23.096988 5.000000
    endloop
  endfacet
  facet normal -0.707107 0.707107 0.000000
    outer loop
      vertex -18.099804 14.564270 0.000000
      vertex -23.096989 9.567086 5.000000
      vertex -18.099804 14.564270 5.000000
    endloop
  endfacet
  facet normal -0.707107 -0.707107 -0.000000
    outer loop
      vertex -21.366211 17.830677 0.000000
      vertex -18.099804 14.564270 0.000000
      vertex -21.366211 17.830677 5.000000
    endloop
  endfacet
  facet normal -0.707107 -0.707107 0.000000
    outer loop
      vertex -21.366211 17.830677 5.000000
      vertex -18.099804 14.564270 0.000000
      vertex -18.099804 14.564270 5.000000
    endloop
  endfacet
  facet normal -0.707107 0.707107 0.000000
    outer loop
      vertex -21.366211 17.830677 0.000000
      vertex -21.366211 17.830677 5.000000
      vertex -17.830677 21.366211 0.000000
    endloop
  endfacet
  facet normal -0.707107 0.707107 0.000000
    outer loop
      vertex -17.830677 21.366211 0.000000
      vertex -21.366211 17.830677 5.000000
      vertex -17.830677 21.366211 5.000000
    endloop
  endfacet
  facet normal 0.707107 0.707107 0.000000
    outer loop
      vertex -14.564270 18.099804 0.000000
      vertex -17.830677 21.366211 0.000000
      vertex -17.830677 21.366211 5.000000
    endloop
  endfacet
  facet normal 0.707107 0.707107 -0.000000
    outer loop
      vertex -14.564270 18.099804 5.000000
      vertex -14.564270 18.099804 0.000000
      vertex -17.830677 21.366211 5.000000
    endloop
  endfacet
  facet normal -0.000000 1.000000 0.000000
    outer loop
      vertex -9.567086 23.096988 0.000000
      vertex -9.567086 23.096988 5.000000
      vertex -2.500000 23.096989 0.000000
    endloop
  endfacet
  facet normal -0.000000 0.000000 -0.000000
    outer loop
      vertex -9.567086 23.096988 0.000000
      vertex -2.500000 23.096989 0.000000
      vertex 9.567086 23.096989 0.000000
    endloop
  endfacet
  facet normal -0.000000 1.000000 0.000000
    outer loop
      vertex 2.500000 23.096989 5.000000
      vertex 9.567086 23.096989 0.000000
      vertex 2.500000 23.096989 0.000000
    endloop
  endfacet
  facet normal -0.000000 0.000000 0.000000
    outer loop
      vertex -2.500000 23.096989 0.000000
      vertex 2.500000 23.096989 0.000000
      vertex 9.567086 23.096989 0.000000
    endloop
  endfacet
  facet normal -0.000000 1.000000 0.000000
    outer loop
      vertex 9.567086 23.096989 0.000000
      vertex 2.500000 23.096989 5.000000
      vertex 9.567086 23.096989 5.000000
    endloop
  endfacet
  facet normal -0.000000 1.000000 0.000000
    outer loop
      vertex -2.500000 23.096989 0.000000
      vertex -9.567086 23.096988 5.000000
      vertex -2.500000 23.096989 5.000000
    endloop
  endfacet
  facet normal -1.000000 -0.000000 -0.000000
    outer loop
      vertex -2.500000 23.096989 0.000000
      vertex -2.500000 23.096989 5.000000
      vertex -2.500000 27.716386 0.000000
    endloop
  endfacet
  facet normal -1.000000 0.000000 0.000000
    outer loop
      vertex -2.500000 27.716386 0.000000
      vertex -2.500000 23.096989 5.000000
      vertex -2.500000 27.716386 5.000000
    endloop
  endfacet
  facet normal 0.000000 1.000000 0.000000
    outer loop
      vertex -2.500000 27.716386 0.000000
      vertex -2.500000 27.716386 5.000000
      vertex 2.500000 27.716386 0.000000
    endloop
  endfacet
  facet normal 0.000000 1.000000 0.000000
    outer loop
      vertex 2.500000 27.716386 0.000000
      vertex -2.500000 27.716386 5.000000
      vertex 2.500000 27.716386 5.000000
    endloop
  endfacet
  facet normal 1.000000 0.000000 -0.000000
    outer loop
      vertex 2.500000 23.096989 5.000000
      vertex 2.500000 23.096989 0.000000
      vertex 2.500000 27.716386 0.000000
    endloop
  endfacet
  facet normal 1.000000 0.000000 0.000000
    outer loop
      vertex 2.500000 27.716386 5.000000
      vertex 2.500000 23.096989 5.000000
      vertex 2.500000 27.716386 0.000000
    endloop
  endfacet
  facet normal 0.707107 0.707107 0.000000
    outer loop
      vertex 14.564270 18.099804 0.000000
      vertex 9.567086 23.096989 0.000000
      vertex 9.567086 23.096989 5.000000
    endloop
  endfacet
  facet normal 0.000000 0.000000 -0.000000
    outer loop
      vertex 23.096988 9.567086 0.000000
      vertex 9.567086 23.096989 0.000000
      vertex 14.564270 18.099804 0.000000
    endloop
  endfacet
  facet normal 0.707107 0.707107 0.000000
    outer loop
      vertex 18.099804 14.564270 0.000000
      vertex 18.099804 14.564270 5.000000
      vertex 23.096988 9.567086 0.000000
    endloop
  endfacet
  facet normal 0.000000 0.000000 0.000000
    outer loop
      vertex 23.096988 9.567086 0.000000
      vertex 14.564270 18.099804 0.000000
      vertex 18.099804 14.564270 0.000000
    endloop
  endfacet
  facet normal 0.707107 0.707107 -0.000000
    outer loop
      vertex 23.096988 9.567086 5.000000
      vertex 23.096988 9.567086 0.000000
      vertex 18.099804 14.564270 5.000000
    endloop
  endfacet
  facet normal 0.707107 0.707107 -0.000000
    outer loop
      vertex 14.564270 18.099804 5.000000
      vertex 14.564270 18.099804 0.000000
      vertex 9.567086 23.096989 5.000000
    endloop
  endfacet
  facet normal -0.707107 0.707107 0.000000
    outer loop
      vertex 14.564270 18.099804 0.000000
      vertex 14.564270 18.099804 5.000000
      vertex 17.830677 21.366211 0.000000
    endloop
  endfacet
  facet normal -0.707107 0.707107 0.000000
    outer loop
      vertex 17.830677 21.366211 0.000000
      vertex 14.564270 18.099804 5.000000
      vertex 17.830677 21.366211 5.000000
    endloop
  endfacet
  facet normal 0.707107 0.707107 0.000000
    outer loop
      vertex 17.830677 21.366211 0.000000
      vertex 17.830677 21.366211 5.000000
      vertex 21.366211 17.830677 0.000000
    endloop
  endfacet
  facet normal 0.707107 0.707107 0.000000
    outer loop
      vertex 21.366211 17.830677 0.000000
      vertex 17.830677 21.366211 5.000000
      vertex 21.366211 17.830677 5.000000
    endloop
  endfacet
  facet normal 0.707107 -0.707107 0.000000
    outer loop
      vertex 18.099804 14.564270 5.000000
      vertex 18.099804 14.564270 0.000000
      vertex 21.366211 17.830677 0.000000
    endloop
  endfacet
  facet normal 0.707107 -0.707107 0.000000
    outer loop
      vertex 21.366211 17.830677 5.000000
      vertex 18.099804 14.564270 5.000000
      vertex 21.366211 17.830677 0.000000
    endloop
  endfacet
  facet normal 1.000000 0.000000 0.000000
    outer loop
      vertex 23.096989 2.500000 0.000000
      vertex 23.096988 9.567086 0.000000
      vertex 23.096988 9.567086 5.000000
    endloop
  endfacet
  facet normal 0.000000 0.000000 -0.000000
    outer loop
      vertex 23.096989 -9.567086 0.000000
      vertex 23.096988 9.567086 0.000000
      vertex 23.096989 2.500000 0.000000
    endloop
  endfacet
  facet normal 1.000000 0.000000 0.000000
    outer loop
      vertex 23.096989 -2.500000 0.000000
      vertex 23.096989 -2.500000 5.000000
      vertex 23.096989 -9.567086 0.000000
    endloop
  endfacet
  facet normal 0.000000 0.000000 0.000000
    outer loop
      vertex 23.096989 -9.567086 0.000000
      vertex 23.096989 2.500000 0.000000
      vertex 23.096989 -2.500000 0.000000
    endloop
  endfacet
  facet normal 1.000000 0.000000 -0.000000
    outer loop
      vertex 23.096989 -9.567086 5.000000
      vertex 23.096989 -9.567086 0.000000
      vertex 23.096989 -2.500000 5.000000
    endloop
  endfacet
  facet normal 1.000000 0.000000 -0.000000
    outer loop
      vertex 23.096989 2.500000 5.000000
      vertex 23.096989 2.500000 0.000000
      vertex 23.096988 9.567086 5.000000
    endloop
  endfacet
  facet normal 0.000000 1.000000 0.000000
    outer loop
      vertex 23.096989 2.500000 0.000000
      vertex 23.096989 2.500000 5.000000
      vertex 27.716386 2.500000 0.000000
    endloop
  endfacet
  facet normal 0.000000 1.000000 0.000000
    outer loop
      vertex 27.716386 2.500000 0.000000
      vertex 23.096989 2.500000 5.000000
      vertex 27.716386 2.500000 5.000000
    endloop
  endfacet
  facet normal 1.000000 -0.000000 0.000000
    outer loop
      vertex 27.716386 -2.500000 5.000000
      vertex 27.716386 -2.500000 0.000000
      vertex 27.716386 2.500000 0.000000
    endloop
  endfacet
  facet normal 1.000000 -0.000000 0.000000
    outer loop
      vertex 27.716386 2.500000 5.000000
      vertex 27.716386 -2.500000 5.000000
      vertex 27.716386 2.500000 0.000000
    endloop
  endfacet
  facet normal 0.000000 -1.000000 0.000000
    outer loop
      vertex 23.096989 -2.500000 5.000000
      vertex 23.096989 -2.500000 0.000000
      vertex 27.716386 -2.500000 0.000000
    endloop
  endfacet
  facet normal 0.000000 -1.000000 0.000000
    outer loop
      vertex 27.716386 -2.500000 5.000000
      vertex 23.096989 -2.500000 5.000000
      vertex 27.716386 -2.500000 0.000000
    endloop
  endfacet
  facet normal 0.000000 -0.000000 -0.000000
    outer loop
      vertex 18.099804 -14.564270 0.000000
      vertex 9.567086 -23.096988 0.000000
      vertex 23.096989 -9.567086 0.000000
    endloop
  endfacet
  facet normal 0.707107 -0.707107 0.000000
    outer loop
      vertex 14.564270 -18.099804 0.000000
      vertex 14.564270 -18.099804 5.000000
      vertex 9.567086 -23.096988 5.000000
    endloop
  endfacet
  facet normal 0.707107 -0.707107 0.000000
    outer loop
      vertex 23.096989 -9.567086 5.000000
      vertex 18.099804 -14.564270 5.000000
      vertex 23.096989 -9.567086 0.000000
    endloop
  endfacet
  facet normal 0.000000 -0.000000 0.000000
    outer loop
      vertex 14.564270 -18.099804 0.000000
      vertex 9.567086 -23.096988 0.000000
      vertex 18.099804 -14.564270 0.000000
    endloop
  endfacet
  facet normal 0.707107 -0.707107 0.000000
    outer loop
      vertex 9.567086 -23.096988 5.000000
      vertex 9.567086 -23.096988 0.000000
      vertex 14.564270 -18.099804 0.000000
    endloop
  endfacet
  facet normal 0.707107 -0.707107 0.000000
    outer loop
      vertex 18.099804 -14.564270 5.000000
      vertex 18.099804 -14.564270 0.000000
      vertex 23.096989 -9.567086 0.000000
    endloop
  endfacet
  facet normal 0.707107 0.707107 0.000000
    outer loop
      vertex 21.366211 -17.830677 0.000000
      vertex 18.099804 -14.564270 0.000000
      vertex 18.099804 -14.564270 5.000000
    endloop
  endfacet
  facet normal 0.707107 0.707107 -0.000000
    outer loop
      vertex 21.366211 -17.830677 5.000000
      vertex 21.366211 -17.830677 0.000000
      vertex 18.099804 -14.564270 5.000000
    endloop
  endfacet
  facet normal 0.707107 -0.707107 0.000000
    outer loop
      vertex 17.830677 -21.366211 5.000000
      vertex 17.830677 -21.366211 0.000000
      vertex 21.366211 -17.830677 0.000000
    endloop
  endfacet
  facet normal 0.707107 -0.707107 0.000000
    outer loop
      vertex 21.366211 -17.830677 5.000000
      vertex 17.830677 -21.366211 5.000000
      vertex 21.366211 -17.830677 0.000000
    endloop
  endfacet
  facet normal -0.707107 -0.707107 -0.000000
    outer loop
      vertex 14.564270 -18.099804 0.000000
      vertex 17.830677 -21.366211 0.000000
      vertex 14.564270 -18.099804 5.000000
    endloop
  endfacet
  facet normal -0.707107 -0.707107 0.000000
    outer loop
      vertex 14.564270 -18.099804 5.000000
      vertex 17.830677 -21.366211 0.000000
      vertex 17.830677 -21.366211 5.000000
    endloop
  endfacet
  facet normal 0.000000 -0.000000 -0.000000
    outer loop
      vertex 2.500000 -23.096989 0.000000
      vertex -9.567086 -23.096989 0.000000
      vertex 9.567086 -23.096988 0.000000
    endloop
  endfacet
  facet normal 0.000000 -1.000000 0.000000
    outer loop
      vertex -2.500000 -23.096989 0.000000
      vertex -2.500000 -23.096989 5.000000
      vertex -9.567086 -23.096989 5.000000
    endloop
  endfacet
  facet normal 0.000000 -1.000000 0.000000
    outer loop
      vertex 9.567086 -23.096988 5.000000
      vertex 2.500000 -23.096989 5.000000
      vertex 9.567086 -23.096988 0.000000
    endloop
  endfacet
  facet normal 0.000000 -0.000000 0.000000
    outer loop
      vertex -2.500000 -23.096989 0.000000
      vertex -9.567086 -23.096989 0.000000
      vertex 2.500000 -23.096989 0.000000
    endloop
  endfacet
  facet normal 0.000000 -1.000000 0.000000
    outer loop
      vertex -9.567086 -23.096989 5.000000
      vertex -9.567086 -23.096989 0.000000
      vertex -2.500000 -23.096989 0.000000
    endloop
  endfacet
  facet normal 0.000000 -1.000000 0.000000
    outer loop
      vertex 2.500000 -23.096989 5.000000
      vertex 2.500000 -23.096989 0.000000
      vertex 9.567086 -23.096988 0.000000
    endloop
  endfacet
  facet normal 1.000000 0.000000 -0.000000
    outer loop
      vertex 2.500000 -27.716386 5.000000
      vertex 2.500000 -27.716386 0.000000
      vertex 2.500000 -23.096989 0.000000
    endloop
  endfacet
  facet normal 1.000000 0.000000 0.000000
    outer loop
      vertex 2.500000 -23.096989 5.000000
      vertex 2.500000 -27.716386 5.000000
      vertex 2.500000 -23.096989 0.000000
    endloop
  endfacet
  facet normal -0.000000 -1.000000 0.000000
    outer loop
      vertex -2.500000 -27.716386 5.000000
      vertex -2.500000 -27.716386 0.000000
      vertex 2.500000 -27.716386 0.000000
    endloop
  endfacet
  facet normal -0.000000 -1.000000 0.000000
    outer loop
      vertex 2.500000 -27.716386 5.000000
      vertex -2.500000 -27.716386 5.000000
      vertex 2.500000 -27.716386 0.000000
    endloop
  endfacet
  facet normal -1.000000 -0.000000 -0.000000
    outer loop
      vertex -2.500000 -27.716386 0.000000
      vertex -2.500000 -27.716386 5.000000
      vertex -2.500000 -23.096989 0.000000
    endloop
  endfacet
  facet normal -1.000000 0.000000 0.000000
    outer loop
      vertex -2.500000 -23.096989 0.000000
      vertex -2.500000 -27.716386 5.000000
      vertex -2.500000 -23.096989 5.000000
    endloop
  endfacet
  facet normal -0.707107 -0.707107 0.000000
    outer loop
      vertex -18.099804 -14.564270 5.000000
      vertex -23.096988 -9.567086 5.000000
      vertex -18.099804 -14.564270 0.000000
    endloop
  endfacet
  facet normal -0.707107 -0.707107 0.000000
    outer loop
      vertex -14.564270 -18.099804 5.000000
      vertex -9.567086 -23.096989 0.000000
      vertex -9.567086 -23.096989 5.000000
    endloop
  endfacet
  facet normal -0.000000 -0.000000 -0.000000
    outer loop
      vertex -23.096988 -9.567086 0.000000
      vertex -9.567086 -23.096989 0.000000
      vertex -14.564270 -18.099804 0.000000
    endloop
  endfacet
  facet normal -0.000000 -0.000000 0.000000
    outer loop
      vertex -23.096988 -9.567086 0.000000
      vertex -14.564270 -18.099804 0.000000
      vertex -18.099804 -14.564270 0.000000
    endloop
  endfacet
  facet normal -0.707107 -0.707107 -0.000000
    outer loop
      vertex -23.096988 -9.567086 0.000000
      vertex -18.099804 -14.564270 0.000000
      vertex -23.096988 -9.567086 5.000000
    endloop
  endfacet
  facet normal -0.707107 -0.707107 -0.000000
    outer loop
      vertex -14.564270 -18.099804 0.000000
      vertex -9.567086 -23.096989 0.000000
      vertex -14.564270 -18.099804 5.000000
    endloop
  endfacet
  facet normal 0.707107 -0.707107 0.000000
    outer loop
      vertex -17.830677 -21.366211 5.000000
      vertex -17.830677 -21.366211 0.000000
      vertex -14.564270 -18.099804 0.000000
    endloop
  endfacet
  facet normal 0.707107 -0.707107 0.000000
    outer loop
      vertex -14.564270 -18.099804 5.000000
      vertex -17.830677 -21.366211 5.000000
      vertex -14.564270 -18.099804 0.000000
    endloop
  endfacet
  facet normal -0.707107 -0.707107 0.000000
    outer loop
      vertex -21.366211 -17.830677 5.000000
      vertex -21.366211 -17.830677 0.000000
      vertex -17.830677 -21.366211 0.000000
    endloop
  endfacet
  facet normal -0.707107 -0.707107 0.000000
    outer loop
      vertex -17.830677 -21.366211 5.000000
      vertex -21.366211 -17.830677 5.000000
      vertex -17.830677 -21.366211 0.000000
    endloop
  endfacet
  facet normal -0.707107 0.707107 0.000000
    outer loop
      vertex -21.366211 -17.830677 0.000000
      vertex -21.366211 -17.830677 5.000000
      vertex -18.099804 -14.564270 0.000000
    endloop
  endfacet
  facet normal -0.707107 0.707107 0.000000
    outer loop
      vertex -18.099804 -14.564270 0.000000
      vertex -21.366211 -17.830677 5.000000
      vertex -18.099804 -14.564270 5.000000
    endloop
  endfacet
  facet normal 0.951057 0.309017 0.000000
    outer loop
      vertex -10.906346 -2.318215 5.000000
      vertex -10.186032 -4.535114 5.000000
      vertex -10.186032 -4.535114 0.000000
    endloop
  endfacet
  facet normal 0.951057 0.309017 0.000000
    outer loop
      vertex -10.906346 -2.318215 0.000000
      vertex -10.906346 -2.318215 5.000000
      vertex -10.186032 -4.535114 0.000000
    endloop
  endfacet
  facet normal 0.994522 0.104528 0.000000
    outer loop
      vertex -11.150000 0.000000 5.000000
      vertex -10.906346 -2.318215 5.000000
      vertex -10.906346 -2.318215 0.000000
    endloop
  endfacet
  facet normal 0.994522 0.104528 0.000000
    outer loop
      vertex -11.150000 0.000000 0.000000
      vertex -11.150000 0.000000 5.000000
      vertex -10.906346 -2.318215 0.000000
    endloop
  endfacet
  facet normal 0.866025 0.500000 0.000000
    outer loop
      vertex -10.186032 -4.535114 5.000000
      vertex -9.020539 -6.553806 5.000000
      vertex -9.020539 -6.553806 0.000000
    endloop
  endfacet
  facet normal 0.866025 0.500000 0.000000
    outer loop
      vertex -10.186032 -4.535114 0.000000
      vertex -10.186032 -4.535114 5.000000
      vertex -9.020539 -6.553806 0.000000
    endloop
  endfacet
  facet normal 0.743145 0.669131 0.000000
    outer loop
      vertex -9.020539 -6.553806 5.000000
      vertex -7.460806 -8.286065 5.000000
      vertex -7.460806 -8.286065 0.000000
    endloop
  endfacet
  facet normal 0.743145 0.669131 0.000000
    outer loop
      vertex -9.020539 -6.553806 0.000000
      vertex -9.020539 -6.553806 5.000000
      vertex -7.460806 -8.286065 0.000000
    endloop
  endfacet
  facet normal 0.587785 0.809017 -0.000000
    outer loop
      vertex -5.575000 -9.656183 5.000000
      vertex -5.575000 -9.656183 0.000000
      vertex -7.460806 -8.286065 5.000000
    endloop
  endfacet
  facet normal 0.587785 0.809017 -0.000000
    outer loop
      vertex -7.460806 -8.286065 5.000000
      vertex -5.575000 -9.656183 0.000000
      vertex -7.460806 -8.286065 0.000000
    endloop
  endfacet
  facet normal 0.406737 0.913545 -0.000000
    outer loop
      vertex -3.445539 -10.604280 5.000000
      vertex -3.445539 -10.604280 0.000000
      vertex -5.575000 -9.656183 5.000000
    endloop
  endfacet
  facet normal 0.406737 0.913545 -0.000000
    outer loop
      vertex -5.575000 -9.656183 5.000000
      vertex -3.445539 -10.604280 0.000000
      vertex -5.575000 -9.656183 0.000000
    endloop
  endfacet
  facet normal 0.207912 0.978148 -0.000000
    outer loop
      vertex -1.165492 -11.088919 5.000000
      vertex -1.165492 -11.088919 0.000000
      vertex -3.445539 -10.604280 5.000000
    endloop
  endfacet
  facet normal 0.207912 0.978148 -0.000000
    outer loop
      vertex -3.445539 -10.604280 5.000000
      vertex -1.165492 -11.088919 0.000000
      vertex -3.445539 -10.604280 0.000000
    endloop
  endfacet
  facet normal 0.000000 1.000000 0.000000
    outer loop
      vertex 1.165492 -11.088919 5.000000
      vertex 1.165492 -11.088919 0.000000
      vertex -1.165492 -11.088919 5.000000
    endloop
  endfacet
  facet normal 0.000000 1.000000 -0.000000
    outer loop
      vertex -1.165492 -11.088919 5.000000
      vertex 1.165492 -11.088919 0.000000
      vertex -1.165492 -11.088919 0.000000
    endloop
  endfacet
  facet normal -0.207912 0.978148 0.000000
    outer loop
      vertex 3.445539 -10.604280 5.000000
      vertex 3.445539 -10.604280 0.000000
      vertex 1.165492 -11.088919 5.000000
    endloop
  endfacet
  facet normal -0.207912 0.978148 0.000000
    outer loop
      vertex 1.165492 -11.088919 5.000000
      vertex 3.445539 -10.604280 0.000000
      vertex 1.165492 -11.088919 0.000000
    endloop
  endfacet
  facet normal -0.406737 0.913545 0.000000
    outer loop
      vertex 5.575000 -9.656183 5.000000
      vertex 5.575000 -9.656183 0.000000
      vertex 3.445539 -10.604280 5.000000
    endloop
  endfacet
  facet normal -0.406737 0.913545 0.000000
    outer loop
      vertex 3.445539 -10.604280 5.000000
      vertex 5.575000 -9.656183 0.000000
      vertex 3.445539 -10.604280 0.000000
    endloop
  endfacet
  facet normal -0.587785 0.809017 0.000000
    outer loop
      vertex 7.460806 -8.286065 5.000000
      vertex 7.460806 -8.286065 0.000000
      vertex 5.575000 -9.656183 5.000000
    endloop
  endfacet
  facet normal -0.587785 0.809017 0.000000
    outer loop
      vertex 5.575000 -9.656183 5.000000
      vertex 7.460806 -8.286065 0.000000
      vertex 5.575000 -9.656183 0.000000
    endloop
  endfacet
  facet normal -0.743145 0.669131 0.000000
    outer loop
      vertex 9.020539 -6.553806 5.000000
      vertex 9.020539 -6.553806 0.000000
      vertex 7.460806 -8.286065 5.000000
    endloop
  endfacet
  facet normal -0.743145 0.669131 0.000000
    outer loop
      vertex 7.460806 -8.286065 5.000000
      vertex 9.020539 -6.553806 0.000000
      vertex 7.460806 -8.286065 0.000000
    endloop
  endfacet
  facet normal -0.866025 0.500000 0.000000
    outer loop
      vertex 10.186032 -4.535114 5.000000
      vertex 10.186032 -4.535114 0.000000
      vertex 9.020539 -6.553806 5.000000
    endloop
  endfacet
  facet normal -0.866025 0.500000 0.000000
    outer loop
      vertex 9.020539 -6.553806 5.000000
      vertex 10.186032 -4.535114 0.000000
      vertex 9.020539 -6.553806 0.000000
    endloop
  endfacet
  facet normal -0.951057 0.309017 0.000000
    outer loop
      vertex 10.906346 -2.318215 5.000000
      vertex 10.906346 -2.318215 0.000000
      vertex 10.186032 -4.535114 5.000000
    endloop
  endfacet
  facet normal -0.951057 0.309017 0.000000
    outer loop
      vertex 10.186032 -4.535114 5.000000
      vertex 10.906346 -2.318215 0.000000
      vertex 10.186032 -4.535114 0.000000
    endloop
  endfacet
  facet normal -0.994522 0.104528 0.000000
    outer loop
      vertex 11.150000 0.000000 5.000000
      vertex 11.150000 0.000000 0.000000
      vertex 10.906346 -2.318215 5.000000
    endloop
  endfacet
  facet normal -0.994522 0.104528 0.000000
    outer loop
      vertex 10.906346 -2.318215 5.000000
      vertex 11.150000 0.000000 0.000000
      vertex 10.906346 -2.318215 0.000000
    endloop
  endfacet
  facet normal -0.994522 -0.104528 0.000000
    outer loop
      vertex 11.150000 0.000000 5.000000
      vertex 10.906346 2.318215 5.000000
      vertex 11.150000 0.000000 0.000000
    endloop
  endfacet
  facet normal -0.994522 -0.104528 0.000000
    outer loop
      vertex 11.150000 0.000000 0.000000
      vertex 10.906346 2.318215 5.000000
      vertex 10.906346 2.318215 0.000000
    endloop
  endfacet
  facet normal -0.951057 -0.309017 0.000000
    outer loop
      vertex 10.906346 2.318215 5.000000
      vertex 10.186032 4.535114 5.000000
      vertex 10.906346 2.318215 0.000000
    endloop
  endfacet
  facet normal -0.951057 -0.309017 0.000000
    outer loop
      vertex 10.906346 2.318215 0.000000
      vertex 10.186032 4.535114 5.000000
      vertex 10.186032 4.535114 0.000000
    endloop
  endfacet
  facet normal -0.866025 -0.500000 0.000000
    outer loop
      vertex 10.186032 4.535114 5.000000
      vertex 9.020539 6.553806 5.000000
      vertex 10.186032 4.535114 0.000000
    endloop
  endfacet
  facet normal -0.866025 -0.500000 0.000000
    outer loop
      vertex 10.186032 4.535114 0.000000
      vertex 9.020539 6.553806 5.000000
      vertex 9.020539 6.553806 0.000000
    endloop
  endfacet
  facet normal -0.743145 -0.669131 0.000000
    outer loop
      vertex 9.020539 6.553806 5.000000
      vertex 7.460806 8.286065 5.000000
      vertex 9.020539 6.553806 0.000000
    endloop
  endfacet
  facet normal -0.743145 -0.669131 0.000000
    outer loop
      vertex 9.020539 6.553806 0.000000
      vertex 7.460806 8.286065 5.000000
      vertex 7.460806 8.286065 0.000000
    endloop
  endfacet
  facet normal -0.587785 -0.809017 -0.000000
    outer loop
      vertex 7.460806 8.286065 0.000000
      vertex 7.460806 8.286065 5.000000
      vertex 5.575000 9.656183 5.000000
    endloop
  endfacet
  facet normal -0.587785 -0.809017 -0.000000
    outer loop
      vertex 5.575000 9.656183 0.000000
      vertex 7.460806 8.286065 0.000000
      vertex 5.575000 9.656183 5.000000
    endloop
  endfacet
  facet normal -0.406737 -0.913545 -0.000000
    outer loop
      vertex 5.575000 9.656183 0.000000
      vertex 5.575000 9.656183 5.000000
      vertex 3.445539 10.604280 5.000000
    endloop
  endfacet
  facet normal -0.406737 -0.913545 -0.000000
    outer loop
      vertex 3.445539 10.604280 0.000000
      vertex 5.575000 9.656183 0.000000
      vertex 3.445539 10.604280 5.000000
    endloop
  endfacet
  facet normal -0.207912 -0.978148 -0.000000
    outer loop
      vertex 3.445539 10.604280 0.000000
      vertex 3.445539 10.604280 5.000000
      vertex 1.165492 11.088919 5.000000
    endloop
  endfacet
  facet normal -0.207912 -0.978148 -0.000000
    outer loop
      vertex 1.165492 11.088919 0.000000
      vertex 3.445539 10.604280 0.000000
      vertex 1.165492 11.088919 5.000000
    endloop
  endfacet
  facet normal 0.000000 -1.000000 0.000000
    outer loop
      vertex 1.165492 11.088919 0.000000
      vertex 1.165492 11.088919 5.000000
      vertex -1.165492 11.088919 5.000000
    endloop
  endfacet
  facet normal -0.000000 -1.000000 -0.000000
    outer loop
      vertex -1.165492 11.088919 0.000000
      vertex 1.165492 11.088919 0.000000
      vertex -1.165492 11.088919 5.000000
    endloop
  endfacet
  facet normal 0.207912 -0.978148 0.000000
    outer loop
      vertex -1.165492 11.088919 0.000000
      vertex -1.165492 11.088919 5.000000
      vertex -3.445539 10.604280 5.000000
    endloop
  endfacet
  facet normal 0.207912 -0.978148 0.000000
    outer loop
      vertex -3.445539 10.604280 0.000000
      vertex -1.165492 11.088919 0.000000
      vertex -3.445539 10.604280 5.000000
    endloop
  endfacet
  facet normal 0.406737 -0.913545 0.000000
    outer loop
      vertex -3.445539 10.604280 0.000000
      vertex -3.445539 10.604280 5.000000
      vertex -5.575000 9.656183 5.000000
    endloop
  endfacet
  facet normal 0.406737 -0.913545 0.000000
    outer loop
      vertex -5.575000 9.656183 0.000000
      vertex -3.445539 10.604280 0.000000
      vertex -5.575000 9.656183 5.000000
    endloop
  endfacet
  facet normal 0.587785 -0.809017 0.000000
    outer loop
      vertex -5.575000 9.656183 0.000000
      vertex -5.575000 9.656183 5.000000
      vertex -7.460806 8.286065 5.000000
    endloop
  endfacet
  facet normal 0.587785 -0.809017 0.000000
    outer loop
      vertex -7.460806 8.286065 0.000000
      vertex -5.575000 9.656183 0.000000
      vertex -7.460806 8.286065 5.000000
    endloop
  endfacet
  facet normal 0.743145 -0.669131 0.000000
    outer loop
      vertex -7.460806 8.286065 0.000000
      vertex -7.460806 8.286065 5.000000
      vertex -9.020539 6.553806 5.000000
    endloop
  endfacet
  facet normal 0.743145 -0.669131 0.000000
    outer loop
      vertex -9.020539 6.553806 0.000000
      vertex -7.460806 8.286065 0.000000
      vertex -9.020539 6.553806 5.000000
    endloop
  endfacet
  facet normal 0.866025 -0.500000 0.000000
    outer loop
      vertex -9.020539 6.553806 0.000000
      vertex -9.020539 6.553806 5.000000
      vertex -10.186032 4.535114 5.000000
    endloop
  endfacet
  facet normal 0.866025 -0.500000 0.000000
    outer loop
      vertex -10.186032 4.535114 0.000000
      vertex -9.020539 6.553806 0.000000
      vertex -10.186032 4.535114 5.000000
    endloop
  endfacet
  facet normal 0.951057 -0.309017 0.000000
    outer loop
      vertex -10.186032 4.535114 0.000000
      vertex -10.186032 4.535114 5.000000
      vertex -10.906346 2.318215 5.000000
    endloop
  endfacet
  facet normal 0.951057 -0.309017 0.000000
    outer loop
      vertex -10.906346 2.318215 0.000000
      vertex -10.186032 4.535114 0.000000
      vertex -10.906346 2.318215 5.000000
    endloop
  endfacet
  facet normal 0.994522 -0.104528 0.000000
    outer loop
      vertex -10.906346 2.318215 0.000000
      vertex -10.906346 2.318215 5.000000
      vertex -11.150000 0.000000 5.000000
    endloop
  endfacet
  facet normal 0.994522 -0.104528 0.000000
    outer loop
      vertex -11.150000 0.000000 0.000000
      vertex -10.906346 2.318215 0.000000
      vertex -11.150000 0.000000 5.000000
    endloop
  endfacet
  facet normal -0.000000 0.000000 -1.000000
    outer loop
      vertex -23.096989 9.567086 0.000000
      vertex -9.567086 23.096988 0.000000
      vertex -23.096988 -9.567086 0.000000
    endloop
  endfacet
  facet normal 0.000000 -0.000000 -1.000000
    outer loop
      vertex -3.445539 10.604280 0.000000
      vertex -9.567086 23.096988 0.000000
      vertex 9.567086 23.096989 0.000000
    endloop
  endfacet
  facet normal 0.000000 0.000000 -1.000000
    outer loop
      vertex 9.020539 6.553806 0.000000
      vertex 9.567086 23.096989 0.000000
      vertex 23.096988 9.567086 0.000000
    endloop
  endfacet
  facet normal -0.000000 0.000000 -1.000000
    outer loop
      vertex 9.020539 -6.553806 0.000000
      vertex 23.096988 9.567086 0.000000
      vertex 23.096989 -9.567086 0.000000
    endloop
  endfacet
  facet normal -0.000000 0.000000 -1.000000
    outer loop
      vertex 1.165492 -11.088919 0.000000
      vertex 23.096989 -9.567086 0.000000
      vertex 9.567086 -23.096988 0.000000
    endloop
  endfacet
  facet normal 0.000000 0.000000 -1.000000
    outer loop
      vertex -23.096988 -9.567086 0.000000
      vertex 9.567086 -23.096988 0.000000
      vertex -9.567086 -23.096989 0.000000
    endloop
  endfacet
  facet normal 0.000000 0.000000 -1.000000
    outer loop
      vertex -23.096988 -9.567086 0.000000
      vertex -11.150000 0.000000 0.000000
      vertex -10.906346 -2.318215 0.000000
    endloop
  endfacet
  facet normal 0.000000 0.000000 -1.000000
    outer loop
      vertex -5.575000 -9.656183 0.000000
      vertex -23.096988 -9.567086 0.000000
      vertex -7.460806 -8.286065 0.000000
    endloop
  endfacet
  facet normal 0.000000 0.000000 -1.000000
    outer loop
      vertex -23.096988 -9.567086 0.000000
      vertex -10.186032 -4.535114 0.000000
      vertex -9.020539 -6.553806 0.000000
    endloop
  endfacet
  facet normal 0.000000 0.000000 -1.000000
    outer loop
      vertex -23.096988 -9.567086 0.000000
      vertex -9.020539 -6.553806 0.000000
      vertex -7.460806 -8.286065 0.000000
    endloop
  endfacet
  facet normal -0.000000 0.000000 -1.000000
    outer loop
      vertex 3.445539 -10.604280 0.000000
      vertex 23.096989 -9.567086 0.000000
      vertex 1.165492 -11.088919 0.000000
    endloop
  endfacet
  facet normal 0.000000 0.000000 -1.000000
    outer loop
      vertex -23.096988 -9.567086 0.000000
      vertex -5.575000 -9.656183 0.000000
      vertex 9.567086 -23.096988 0.000000
    endloop
  endfacet
  facet normal 0.000000 0.000000 -1.000000
    outer loop
      vertex 7.460806 -8.286065 0.000000
      vertex 23.096989 -9.567086 0.000000
      vertex 5.575000 -9.656183 0.000000
    endloop
  endfacet
  facet normal 0.000000 0.000000 -1.000000
    outer loop
      vertex -5.575000 -9.656183 0.000000
      vertex -3.445539 -10.604280 0.000000
      vertex 9.567086 -23.096988 0.000000
    endloop
  endfacet
  facet normal -0.000000 0.000000 -1.000000
    outer loop
      vertex 5.575000 -9.656183 0.000000
      vertex 23.096989 -9.567086 0.000000
      vertex 3.445539 -10.604280 0.000000
    endloop
  endfacet
  facet normal 0.000000 0.000000 -1.000000
    outer loop
      vertex -3.445539 -10.604280 0.000000
      vertex -1.165492 -11.088919 0.000000
      vertex 9.567086 -23.096988 0.000000
    endloop
  endfacet
  facet normal 0.000000 0.000000 -1.000000
    outer loop
      vertex -1.165492 -11.088919 0.000000
      vertex 1.165492 -11.088919 0.000000
      vertex 9.567086 -23.096988 0.000000
    endloop
  endfacet
  facet normal 0.000000 0.000000 -1.000000
    outer loop
      vertex 9.020539 -6.553806 0.000000
      vertex 23.096989 -9.567086 0.000000
      vertex 7.460806 -8.286065 0.000000
    endloop
  endfacet
  facet normal -0.000000 0.000000 -1.000000
    outer loop
      vertex 10.186032 -4.535114 0.000000
      vertex 23.096988 9.567086 0.000000
      vertex 9.020539 -6.553806 0.000000
    endloop
  endfacet
  facet normal -0.000000 0.000000 -1.000000
    outer loop
      vertex 10.186032 4.535114 0.000000
      vertex 23.096988 9.567086 0.000000
      vertex 10.906346 2.318215 0.000000
    endloop
  endfacet
  facet normal -0.000000 0.000000 -1.000000
    outer loop
      vertex 10.906346 -2.318215 0.000000
      vertex 23.096988 9.567086 0.000000
      vertex 10.186032 -4.535114 0.000000
    endloop
  endfacet
  facet normal -0.000000 0.000000 -1.000000
    outer loop
      vertex 11.150000 0.000000 0.000000
      vertex 23.096988 9.567086 0.000000
      vertex 10.906346 -2.318215 0.000000
    endloop
  endfacet
  facet normal -0.000000 0.000000 -1.000000
    outer loop
      vertex 10.906346 2.318215 0.000000
      vertex 23.096988 9.567086 0.000000
      vertex 11.150000 0.000000 0.000000
    endloop
  endfacet
  facet normal -0.000000 0.000000 -1.000000
    outer loop
      vertex 7.460806 8.286065 0.000000
      vertex 9.567086 23.096989 0.000000
      vertex 9.020539 6.553806 0.000000
    endloop
  endfacet
  facet normal 0.000000 0.000000 -1.000000
    outer loop
      vertex -3.445539 10.604280 0.000000
      vertex 9.567086 23.096989 0.000000
      vertex -1.165492 11.088919 0.000000
    endloop
  endfacet
  facet normal -0.000000 0.000000 -1.000000
    outer loop
      vertex 5.575000 9.656183 0.000000
      vertex 9.567086 23.096989 0.000000
      vertex 7.460806 8.286065 0.000000
    endloop
  endfacet
  facet normal -0.000000 0.000000 -1.000000
    outer loop
      vertex 3.445539 10.604280 0.000000
      vertex 9.567086 23.096989 0.000000
      vertex 5.575000 9.656183 0.000000
    endloop
  endfacet
  facet normal -0.000000 0.000000 -1.000000
    outer loop
      vertex 1.165492 11.088919 0.000000
      vertex 9.567086 23.096989 0.000000
      vertex 3.445539 10.604280 0.000000
    endloop
  endfacet
  facet normal -0.000000 0.000000 -1.000000
    outer loop
      vertex -1.165492 11.088919 0.000000
      vertex 9.567086 23.096989 0.000000
      vertex 1.165492 11.088919 0.000000
    endloop
  endfacet
  facet normal 0.000000 -0.000000 -1.000000
    outer loop
      vertex -5.575000 9.656183 0.000000
      vertex -9.567086 23.096988 0.000000
      vertex -3.445539 10.604280 0.000000
    endloop
  endfacet
  facet normal 0.000000 -0.000000 -1.000000
    outer loop
      vertex -10.186032 4.535114 0.000000
      vertex -23.096988 -9.567086 0.000000
      vertex -9.020539 6.553806 0.000000
    endloop
  endfacet
  facet normal 0.000000 -0.000000 -1.000000
    outer loop
      vertex -7.460806 8.286065 0.000000
      vertex -9.567086 23.096988 0.000000
      vertex -5.575000 9.656183 0.000000
    endloop
  endfacet
  facet normal 0.000000 -0.000000 -1.000000
    outer loop
      vertex -9.020539 6.553806 0.000000
      vertex -9.567086 23.096988 0.000000
      vertex -7.460806 8.286065 0.000000
    endloop
  endfacet
  facet normal 0.000000 0.000000 -1.000000
    outer loop
      vertex -23.096988 -9.567086 0.000000
      vertex -9.567086 23.096988 0.000000
      vertex -9.020539 6.553806 0.000000
    endloop
  endfacet
  facet normal 0.000000 -0.000000 -1.000000
    outer loop
      vertex -10.906346 2.318215 0.000000
      vertex -23.096988 -9.567086 0.000000
      vertex -10.186032 4.535114 0.000000
    endloop
  endfacet
  facet normal 0.000000 0.000000 -1.000000
    outer loop
      vertex -23.096988 -9.567086 0.000000
      vertex -10.906346 2.318215 0.000000
      vertex -11.150000 0.000000 0.000000
    endloop
  endfacet
  facet normal 0.000000 0.000000 -1.000000
    outer loop
      vertex -10.186032 -4.535114 0.000000
      vertex -23.096988 -9.567086 0.000000
      vertex -10.906346 -2.318215 0.000000
    endloop
  endfacet
  facet normal -0.000000 0.000000 -1.000000
    outer loop
      vertex 9.020539 6.553806 0.000000
      vertex 23.096988 9.567086 0.000000
      vertex 10.186032 4.535114 0.000000
    endloop
  endfacet
  facet normal 0.000000 -0.000000 -1.000000
    outer loop
      vertex -21.366211 17.830677 0.000000
      vertex -17.830677 21.366211 0.000000
      vertex -18.099804 14.564270 0.000000
    endloop
  endfacet
  facet normal 0.000000 -0.000000 -1.000000
    outer loop
      vertex -18.099804 14.564270 0.000000
      vertex -17.830677 21.366211 0.000000
      vertex -14.564270 18.099804 0.000000
    endloop
  endfacet
  facet normal -0.000000 -0.000000 -1.000000
    outer loop
      vertex -2.500000 23.096989 0.000000
      vertex -2.500000 27.716386 0.000000
      vertex 2.500000 23.096989 0.000000
    endloop
  endfacet
  facet normal 0.000000 -0.000000 -1.000000
    outer loop
      vertex 2.500000 23.096989 0.000000
      vertex -2.500000 27.716386 0.000000
      vertex 2.500000 27.716386 0.000000
    endloop
  endfacet
  facet normal 0.000000 0.000000 -1.000000
    outer loop
      vertex 14.564270 18.099804 0.000000
      vertex 17.830677 21.366211 0.000000
      vertex 18.099804 14.564270 0.000000
    endloop
  endfacet
  facet normal 0.000000 0.000000 -1.000000
    outer loop
      vertex 18.099804 14.564270 0.000000
      vertex 17.830677 21.366211 0.000000
      vertex 21.366211 17.830677 0.000000
    endloop
  endfacet
  facet normal 0.000000 -0.000000 -1.000000
    outer loop
      vertex 23.096989 2.500000 0.000000
      vertex 27.716386 2.500000 0.000000
      vertex 23.096989 -2.500000 0.000000
    endloop
  endfacet
  facet normal 0.000000 0.000000 -1.000000
    outer loop
      vertex 23.096989 -2.500000 0.000000
      vertex 27.716386 2.500000 0.000000
      vertex 27.716386 -2.500000 0.000000
    endloop
  endfacet
  facet normal 0.000000 -0.000000 -1.000000
    outer loop
      vertex 14.564270 -18.099804 0.000000
      vertex 18.099804 -14.564270 0.000000
      vertex 17.830677 -21.366211 0.000000
    endloop
  endfacet
  facet normal 0.000000 -0.000000 -1.000000
    outer loop
      vertex 17.830677 -21.366211 0.000000
      vertex 18.099804 -14.564270 0.000000
      vertex 21.366211 -17.830677 0.000000
    endloop
  endfacet
  facet normal 0.000000 -0.000000 -1.000000
    outer loop
      vertex -2.500000 -27.716386 0.000000
      vertex -2.500000 -23.096989 0.000000
      vertex 2.500000 -27.716386 0.000000
    endloop
  endfacet
  facet normal -0.000000 -0.000000 -1.000000
    outer loop
      vertex 2.500000 -27.716386 0.000000
      vertex -2.500000 -23.096989 0.000000
      vertex 2.500000 -23.096989 0.000000
    endloop
  endfacet
  facet normal 0.000000 0.000000 -1.000000
    outer loop
      vertex -21.366211 -17.830677 0.000000
      vertex -18.099804 -14.564270 0.000000
      vertex -17.830677 -21.366211 0.000000
    endloop
  endfacet
  facet normal 0.000000 0.000000 -1.000000
    outer loop
      vertex -17.830677 -21.366211 0.000000
      vertex -18.099804 -14.564270 0.000000
      vertex -14.564270 -18.099804 0.000000
    endloop
  endfacet
endsolid OpenSCAD_Model
