  0
SECTION
  2
BLOCKS
  0
ENDSEC
  0
SECTION
  2
ENTITIES
  0
LINE
  8
0
 10
-107.95
 11
-105.591
 20
0
 21
22.444
  0
LINE
  8
0
 10
-105.591
 11
-98.617
 20
22.444
 21
43.907
  0
LINE
  8
0
 10
-98.617
 11
-87.333
 20
43.907
 21
63.451
  0
LINE
  8
0
 10
-87.333
 11
-72.233
 20
63.451
 21
80.222
  0
LINE
  8
0
 10
-72.233
 11
-53.975
 20
80.222
 21
93.487
  0
LINE
  8
0
 10
-53.975
 11
-33.358
 20
93.487
 21
102.667
  0
LINE
  8
0
 10
-33.358
 11
-11.284
 20
102.667
 21
107.359
  0
LINE
  8
0
 10
-11.284
 11
11.284
 20
107.359
 21
107.359
  0
LINE
  8
0
 10
11.284
 11
33.358
 20
107.359
 21
102.667
  0
LINE
  8
0
 10
33.358
 11
53.975
 20
102.667
 21
93.487
  0
LINE
  8
0
 10
53.975
 11
72.233
 20
93.487
 21
80.222
  0
LINE
  8
0
 10
72.233
 11
87.333
 20
80.222
 21
63.451
  0
LINE
  8
0
 10
87.333
 11
98.617
 20
63.451
 21
43.907
  0
LINE
  8
0
 10
98.617
 11
105.591
 20
43.907
 21
22.444
  0
LINE
  8
0
 10
105.591
 11
107.95
 20
22.444
 21
0
  0
LINE
  8
0
 10
107.95
 11
105.591
 20
0
 21
-22.444
  0
LINE
  8
0
 10
105.591
 11
98.617
 20
-22.444
 21
-43.907
  0
LINE
  8
0
 10
98.617
 11
87.333
 20
-43.907
 21
-63.451
  0
LINE
  8
0
 10
87.333
 11
72.233
 20
-63.451
 21
-80.222
  0
LINE
  8
0
 10
72.233
 11
53.975
 20
-80.222
 21
-93.487
  0
LINE
  8
0
 10
53.975
 11
33.358
 20
-93.487
 21
-102.667
  0
LINE
  8
0
 10
33.358
 11
11.284
 20
-102.667
 21
-107.359
  0
LINE
  8
0
 10
11.284
 11
-11.284
 20
-107.359
 21
-107.359
  0
LINE
  8
0
 10
-11.284
 11
-33.358
 20
-107.359
 21
-102.667
  0
LINE
  8
0
 10
-33.358
 11
-53.975
 20
-102.667
 21
-93.487
  0
LINE
  8
0
 10
-53.975
 11
-72.233
 20
-93.487
 21
-80.222
  0
LINE
  8
0
 10
-72.233
 11
-87.333
 20
-80.222
 21
-63.451
  0
LINE
  8
0
 10
-87.333
 11
-98.617
 20
-63.451
 21
-43.907
  0
LINE
  8
0
 10
-98.617
 11
-105.591
 20
-43.907
 21
-22.444
  0
LINE
  8
0
 10
-105.591
 11
-107.95
 20
-22.444
 21
0
  0
LINE
  8
0
 10
-72.6
 11
-71.8
 20
-71
 21
-69.614
  0
LINE
  8
0
 10
-71.8
 11
-70.2
 20
-69.614
 21
-69.614
  0
LINE
  8
0
 10
-70.2
 11
-69.4
 20
-69.614
 21
-71
  0
LINE
  8
0
 10
-69.4
 11
-70.2
 20
-71
 21
-72.386
  0
LINE
  8
0
 10
-70.2
 11
-71.8
 20
-72.386
 21
-72.386
  0
LINE
  8
0
 10
-71.8
 11
-72.6
 20
-72.386
 21
-71
  0
LINE
  8
0
 10
-72.386
 11
-72.386
 20
70.2
 21
71.8
  0
LINE
  8
0
 10
-72.386
 11
-71
 20
71.8
 21
72.6
  0
LINE
  8
0
 10
-71
 11
-69.614
 20
72.6
 21
71.8
  0
LINE
  8
0
 10
-69.614
 11
-69.614
 20
71.8
 21
70.2
  0
LINE
  8
0
 10
-69.614
 11
-71
 20
70.2
 21
69.4
  0
LINE
  8
0
 10
-71
 11
-72.386
 20
69.4
 21
70.2
  0
LINE
  8
0
 10
-9.058
 11
-8.135
 20
7.295
 21
8.765
  0
LINE
  8
0
 10
-8.135
 11
-6.411
 20
8.765
 21
8.959
  0
LINE
  8
0
 10
-6.411
 11
-5.183
 20
8.959
 21
7.732
  0
LINE
  8
0
 10
-5.183
 11
-5.378
 20
7.732
 21
6.007
  0
LINE
  8
0
 10
-5.378
 11
-6.847
 20
6.007
 21
5.084
  0
LINE
  8
0
 10
-6.847
 11
-8.485
 20
5.084
 21
5.657
  0
LINE
  8
0
 10
-8.485
 11
-9.058
 20
5.657
 21
7.295
  0
LINE
  8
0
 10
-8.959
 11
-7.732
 20
-6.411
 21
-5.183
  0
LINE
  8
0
 10
-7.732
 11
-6.007
 20
-5.183
 21
-5.378
  0
LINE
  8
0
 10
-6.007
 11
-5.084
 20
-5.378
 21
-6.847
  0
LINE
  8
0
 10
-5.084
 11
-5.657
 20
-6.847
 21
-8.485
  0
LINE
  8
0
 10
-5.657
 11
-7.295
 20
-8.485
 21
-9.058
  0
LINE
  8
0
 10
-7.295
 11
-8.765
 20
-9.058
 21
-8.135
  0
LINE
  8
0
 10
-8.765
 11
-8.959
 20
-8.135
 21
-6.411
  0
LINE
  8
0
 10
-2.5
 11
-1.768
 20
0
 21
1.768
  0
LINE
  8
0
 10
-1.768
 11
0
 20
1.768
 21
2.5
  0
LINE
  8
0
 10
0
 11
1.768
 20
2.5
 21
1.768
  0
LINE
  8
0
 10
1.768
 11
2.5
 20
1.768
 21
0
  0
LINE
  8
0
 10
2.5
 11
1.768
 20
0
 21
-1.768
  0
LINE
  8
0
 10
1.768
 11
0
 20
-1.768
 21
-2.5
  0
LINE
  8
0
 10
0
 11
-1.768
 20
-2.5
 21
-1.768
  0
LINE
  8
0
 10
-1.768
 11
-2.5
 20
-1.768
 21
0
  0
LINE
  8
0
 10
5.084
 11
5.657
 20
6.847
 21
8.485
  0
LINE
  8
0
 10
5.657
 11
7.295
 20
8.485
 21
9.058
  0
LINE
  8
0
 10
7.295
 11
8.765
 20
9.058
 21
8.135
  0
LINE
  8
0
 10
8.765
 11
8.959
 20
8.135
 21
6.411
  0
LINE
  8
0
 10
8.959
 11
7.732
 20
6.411
 21
5.183
  0
LINE
  8
0
 10
7.732
 11
6.007
 20
5.183
 21
5.378
  0
LINE
  8
0
 10
6.007
 11
5.084
 20
5.378
 21
6.847
  0
LINE
  8
0
 10
5.183
 11
5.378
 20
-7.732
 21
-6.007
  0
LINE
  8
0
 10
5.378
 11
6.847
 20
-6.007
 21
-5.084
  0
LINE
  8
0
 10
6.847
 11
8.485
 20
-5.084
 21
-5.657
  0
LINE
  8
0
 10
8.485
 11
9.058
 20
-5.657
 21
-7.295
  0
LINE
  8
0
 10
9.058
 11
8.135
 20
-7.295
 21
-8.765
  0
LINE
  8
0
 10
8.135
 11
6.411
 20
-8.765
 21
-8.959
  0
LINE
  8
0
 10
6.411
 11
5.183
 20
-8.959
 21
-7.732
  0
LINE
  8
0
 10
69.4
 11
70.2
 20
71
 21
72.386
  0
LINE
  8
0
 10
70.2
 11
71.8
 20
72.386
 21
72.386
  0
LINE
  8
0
 10
71.8
 11
72.6
 20
72.386
 21
71
  0
LINE
  8
0
 10
72.6
 11
71.8
 20
71
 21
69.614
  0
LINE
  8
0
 10
71.8
 11
70.2
 20
69.614
 21
69.614
  0
LINE
  8
0
 10
70.2
 11
69.4
 20
69.614
 21
71
  0
LINE
  8
0
 10
69.614
 11
69.614
 20
-71.8
 21
-70.2
  0
LINE
  8
0
 10
69.614
 11
71
 20
-70.2
 21
-69.4
  0
LINE
  8
0
 10
71
 11
72.386
 20
-69.4
 21
-70.2
  0
LINE
  8
0
 10
72.386
 11
72.386
 20
-70.2
 21
-71.8
  0
LINE
  8
0
 10
72.386
 11
71
 20
-71.8
 21
-72.6
  0
LINE
  8
0
 10
71
 11
69.614
 20
-72.6
 21
-71.8
  0
ENDSEC
  0
SECTION
  2
OBJECTS
  0
DICTIONARY
  0
ENDSEC
  0
EOF
