solid OpenSCAD_Model
  facet normal 0.000000 -1.000000 0.000000
    outer loop
      vertex -27.716386 -2.500000 5.000000
      vertex -27.716386 -2.500000 0.000000
      vertex -23.096989 -2.500000 0.000000
    endloop
  endfacet
  facet normal 0.000000 -1.000000 0.000000
    outer loop
      vertex -23.096989 -2.500000 5.000000
      vertex -27.716386 -2.500000 5.000000
      vertex -23.096989 -2.500000 0.000000
    endloop
  endfacet
  facet normal 0.000000 0.000000 -1.000000
    outer loop
      vertex -27.716386 -2.500000 0.000000
      vertex -27.716386 2.500000 0.000000
      vertex -23.096989 -2.500000 0.000000
    endloop
  endfacet
  facet normal 0.000000 -0.000000 -1.000000
    outer loop
      vertex -23.096989 -2.500000 0.000000
      vertex -27.716386 2.500000 0.000000
      vertex -23.096989 2.500000 0.000000
    endloop
  endfacet
  facet normal -1.000000 0.000000 0.000000
    outer loop
      vertex -27.716386 -2.500000 0.000000
      vertex -27.716386 -2.500000 5.000000
      vertex -27.716386 2.500000 0.000000
    endloop
  endfacet
  facet normal -1.000000 0.000000 0.000000
    outer loop
      vertex -27.716386 2.500000 0.000000
      vertex -27.716386 -2.500000 5.000000
      vertex -27.716386 2.500000 5.000000
    endloop
  endfacet
  facet normal 0.000000 0.000000 1.000000
    outer loop
      vertex -18.099804 -14.564270 5.000000
      vertex -14.564270 -18.099804 5.000000
      vertex -23.096989 -2.500000 5.000000
    endloop
  endfacet
  facet normal 0.000000 -0.000000 1.000000
    outer loop
      vertex -27.716386 2.500000 5.000000
      vertex -27.716386 -2.500000 5.000000
      vertex -23.096989 -2.500000 5.000000
    endloop
  endfacet
  facet normal 0.000000 0.000000 1.000000
    outer loop
      vertex -2.500000 -23.096989 5.000000
      vertex -27.716386 2.500000 5.000000
      vertex -23.096989 -2.500000 5.000000
    endloop
  endfacet
  facet normal 0.000000 0.000000 1.000000
    outer loop
      vertex -23.096988 -9.567086 5.000000
      vertex -18.099804 -14.564270 5.000000
      vertex -23.096989 -2.500000 5.000000
    endloop
  endfacet
  facet normal 0.000000 0.000000 1.000000
    outer loop
      vertex -2.500000 -23.096989 5.000000
      vertex 2.500000 -27.716386 5.000000
      vertex -27.716386 2.500000 5.000000
    endloop
  endfacet
  facet normal 0.000000 0.000000 1.000000
    outer loop
      vertex -21.366211 -17.830677 5.000000
      vertex -17.830677 -21.366211 5.000000
      vertex -18.099804 -14.564270 5.000000
    endloop
  endfacet
  facet normal 0.000000 0.000000 1.000000
    outer loop
      vertex -17.830677 -21.366211 5.000000
      vertex -14.564270 -18.099804 5.000000
      vertex -18.099804 -14.564270 5.000000
    endloop
  endfacet
  facet normal 0.000000 0.000000 1.000000
    outer loop
      vertex -14.564270 -18.099804 5.000000
      vertex -9.567086 -23.096989 5.000000
      vertex -23.096989 -2.500000 5.000000
    endloop
  endfacet
  facet normal 0.000000 0.000000 1.000000
    outer loop
      vertex -9.567086 -23.096989 5.000000
      vertex -2.500000 -23.096989 5.000000
      vertex -23.096989 -2.500000 5.000000
    endloop
  endfacet
  facet normal 0.000000 0.000000 1.000000
    outer loop
      vertex -4.150000 0.000000 5.000000
      vertex -3.739021 1.800618 5.000000
      vertex -11.260979 1.800618 5.000000
    endloop
  endfacet
  facet normal 0.000000 0.000000 1.000000
    outer loop
      vertex -2.500000 -27.716386 5.000000
      vertex 2.500000 -27.716386 5.000000
      vertex -2.500000 -23.096989 5.000000
    endloop
  endfacet
  facet normal 0.000000 0.000000 1.000000
    outer loop
      vertex 2.500000 -27.716386 5.000000
      vertex 2.500000 -23.096989 5.000000
      vertex -27.716386 2.500000 5.000000
    endloop
  endfacet
  facet normal 0.000000 0.000000 1.000000
    outer loop
      vertex 17.830677 -21.366211 5.000000
      vertex 21.366211 -17.830677 5.000000
      vertex 14.564270 -18.099804 5.000000
    endloop
  endfacet
  facet normal -0.000000 -0.000000 1.000000
    outer loop
      vertex -0.923462 -4.045951 5.000000
      vertex -11.260979 -1.800618 5.000000
      vertex 23.096989 -9.567086 5.000000
    endloop
  endfacet
  facet normal 0.000000 0.000000 1.000000
    outer loop
      vertex 27.716386 -2.500000 5.000000
      vertex 27.716386 2.500000 5.000000
      vertex 23.096989 2.500000 5.000000
    endloop
  endfacet
  facet normal 0.000000 0.000000 1.000000
    outer loop
      vertex 2.587483 11.755399 5.000000
      vertex 18.099804 14.564270 5.000000
      vertex 21.366211 17.830677 5.000000
    endloop
  endfacet
  facet normal 0.000000 0.000000 1.000000
    outer loop
      vertex 14.564270 18.099804 5.000000
      vertex 21.366211 17.830677 5.000000
      vertex 17.830677 21.366211 5.000000
    endloop
  endfacet
  facet normal 0.000000 0.000000 1.000000
    outer loop
      vertex -23.096989 9.567086 5.000000
      vertex 2.500000 23.096989 5.000000
      vertex -2.500000 23.096989 5.000000
    endloop
  endfacet
  facet normal 0.000000 0.000000 1.000000
    outer loop
      vertex 3.739021 13.199382 5.000000
      vertex 21.366211 17.830677 5.000000
      vertex 14.564270 18.099804 5.000000
    endloop
  endfacet
  facet normal 0.000000 0.000000 1.000000
    outer loop
      vertex -2.500000 23.096989 5.000000
      vertex 2.500000 23.096989 5.000000
      vertex 2.500000 27.716386 5.000000
    endloop
  endfacet
  facet normal 0.000000 0.000000 1.000000
    outer loop
      vertex -0.923462 19.045951 5.000000
      vertex 9.567086 23.096989 5.000000
      vertex 2.500000 23.096989 5.000000
    endloop
  endfacet
  facet normal 0.000000 0.000000 1.000000
    outer loop
      vertex -18.099804 14.564270 5.000000
      vertex -14.564270 18.099804 5.000000
      vertex -17.830677 21.366211 5.000000
    endloop
  endfacet
  facet normal 0.000000 0.000000 1.000000
    outer loop
      vertex -18.099804 14.564270 5.000000
      vertex -2.500000 23.096989 5.000000
      vertex -14.564270 18.099804 5.000000
    endloop
  endfacet
  facet normal 0.000000 0.000000 1.000000
    outer loop
      vertex -14.564270 18.099804 5.000000
      vertex -2.500000 23.096989 5.000000
      vertex -9.567086 23.096988 5.000000
    endloop
  endfacet
  facet normal 0.000000 0.000000 1.000000
    outer loop
      vertex -18.739021 1.800618 5.000000
      vertex -23.096989 2.500000 5.000000
      vertex -27.716386 2.500000 5.000000
    endloop
  endfacet
  facet normal 0.000000 0.000000 1.000000
    outer loop
      vertex -3.739021 1.800618 5.000000
      vertex -2.587483 3.244601 5.000000
      vertex -12.412517 3.244601 5.000000
    endloop
  endfacet
  facet normal 0.000000 0.000000 1.000000
    outer loop
      vertex -10.850000 0.000000 5.000000
      vertex -0.923462 -4.045951 5.000000
      vertex -2.587483 -3.244601 5.000000
    endloop
  endfacet
  facet normal 0.000000 0.000000 1.000000
    outer loop
      vertex -0.923462 4.045951 5.000000
      vertex 0.923462 4.045951 5.000000
      vertex 23.096988 9.567086 5.000000
    endloop
  endfacet
  facet normal 0.000000 0.000000 1.000000
    outer loop
      vertex -2.587483 -3.244601 5.000000
      vertex -3.739021 -1.800618 5.000000
      vertex -10.850000 0.000000 5.000000
    endloop
  endfacet
  facet normal -0.000000 0.000000 1.000000
    outer loop
      vertex -14.076538 4.045951 5.000000
      vertex 23.096988 9.567086 5.000000
      vertex -15.923462 4.045951 5.000000
    endloop
  endfacet
  facet normal 0.000000 0.000000 1.000000
    outer loop
      vertex -14.076538 4.045951 5.000000
      vertex -12.412517 3.244601 5.000000
      vertex 23.096988 9.567086 5.000000
    endloop
  endfacet
  facet normal 0.000000 0.000000 1.000000
    outer loop
      vertex 10.850000 0.000000 5.000000
      vertex 11.260979 1.800618 5.000000
      vertex 3.739021 1.800618 5.000000
    endloop
  endfacet
  facet normal -0.000000 0.000000 1.000000
    outer loop
      vertex -0.923462 4.045951 5.000000
      vertex 23.096988 9.567086 5.000000
      vertex -12.412517 3.244601 5.000000
    endloop
  endfacet
  facet normal -0.000000 0.000000 1.000000
    outer loop
      vertex -17.587483 3.244601 5.000000
      vertex -15.923462 4.045951 5.000000
      vertex -23.096989 2.500000 5.000000
    endloop
  endfacet
  facet normal 0.000000 0.000000 1.000000
    outer loop
      vertex -11.260979 1.800618 5.000000
      vertex -10.850000 0.000000 5.000000
      vertex -4.150000 0.000000 5.000000
    endloop
  endfacet
  facet normal 0.000000 0.000000 1.000000
    outer loop
      vertex 11.260979 1.800618 5.000000
      vertex 12.412517 3.244601 5.000000
      vertex 2.587483 3.244601 5.000000
    endloop
  endfacet
  facet normal 0.000000 -0.000000 1.000000
    outer loop
      vertex -12.412517 -3.244601 5.000000
      vertex -14.076538 -4.045951 5.000000
      vertex 21.366211 -17.830677 5.000000
    endloop
  endfacet
  facet normal 0.000000 0.000000 1.000000
    outer loop
      vertex 18.099804 -14.564270 5.000000
      vertex 23.096989 -9.567086 5.000000
      vertex -11.260979 -1.800618 5.000000
    endloop
  endfacet
  facet normal 0.000000 0.000000 1.000000
    outer loop
      vertex 21.366211 -17.830677 5.000000
      vertex 18.099804 -14.564270 5.000000
      vertex -12.412517 -3.244601 5.000000
    endloop
  endfacet
  facet normal 0.000000 0.000000 1.000000
    outer loop
      vertex 0.923462 -10.954049 5.000000
      vertex 21.366211 -17.830677 5.000000
      vertex -14.076538 -4.045951 5.000000
    endloop
  endfacet
  facet normal 0.000000 0.000000 1.000000
    outer loop
      vertex -18.739021 -1.800618 5.000000
      vertex -19.150000 0.000000 5.000000
      vertex -27.716386 2.500000 5.000000
    endloop
  endfacet
  facet normal 0.000000 0.000000 1.000000
    outer loop
      vertex -0.923462 -10.954049 5.000000
      vertex 0.923462 -10.954049 5.000000
      vertex -14.076538 -4.045951 5.000000
    endloop
  endfacet
  facet normal 0.000000 0.000000 1.000000
    outer loop
      vertex -2.587483 -11.755399 5.000000
      vertex -0.923462 -10.954049 5.000000
      vertex -15.923462 -4.045951 5.000000
    endloop
  endfacet
  facet normal 0.000000 0.000000 1.000000
    outer loop
      vertex -3.739021 -13.199382 5.000000
      vertex -15.923462 -4.045951 5.000000
      vertex -17.587483 -3.244601 5.000000
    endloop
  endfacet
  facet normal 0.000000 0.000000 1.000000
    outer loop
      vertex -2.587483 -18.244601 5.000000
      vertex -3.739021 -16.800618 5.000000
      vertex -27.716386 2.500000 5.000000
    endloop
  endfacet
  facet normal 0.000000 0.000000 1.000000
    outer loop
      vertex -3.739021 -16.800618 5.000000
      vertex -4.150000 -15.000000 5.000000
      vertex -27.716386 2.500000 5.000000
    endloop
  endfacet
  facet normal -0.000000 -0.000000 1.000000
    outer loop
      vertex -0.923462 -19.045951 5.000000
      vertex -2.587483 -18.244601 5.000000
      vertex 2.500000 -23.096989 5.000000
    endloop
  endfacet
  facet normal 0.000000 0.000000 1.000000
    outer loop
      vertex 3.739021 -13.199382 5.000000
      vertex 4.150000 -15.000000 5.000000
      vertex 14.564270 -18.099804 5.000000
    endloop
  endfacet
  facet normal 0.000000 0.000000 1.000000
    outer loop
      vertex 2.587483 -11.755399 5.000000
      vertex 21.366211 -17.830677 5.000000
      vertex 0.923462 -10.954049 5.000000
    endloop
  endfacet
  facet normal 0.000000 -0.000000 1.000000
    outer loop
      vertex 3.739021 -16.800618 5.000000
      vertex 2.587483 -18.244601 5.000000
      vertex 9.567086 -23.096988 5.000000
    endloop
  endfacet
  facet normal 0.000000 0.000000 1.000000
    outer loop
      vertex 14.564270 -18.099804 5.000000
      vertex 21.366211 -17.830677 5.000000
      vertex 2.587483 -11.755399 5.000000
    endloop
  endfacet
  facet normal 0.000000 0.000000 1.000000
    outer loop
      vertex 2.587483 -11.755399 5.000000
      vertex 3.739021 -13.199382 5.000000
      vertex 14.564270 -18.099804 5.000000
    endloop
  endfacet
  facet normal 0.000000 0.000000 1.000000
    outer loop
      vertex 9.567086 -23.096988 5.000000
      vertex 14.564270 -18.099804 5.000000
      vertex 4.150000 -15.000000 5.000000
    endloop
  endfacet
  facet normal 0.000000 -0.000000 1.000000
    outer loop
      vertex 2.587483 -18.244601 5.000000
      vertex 0.923462 -19.045951 5.000000
      vertex 9.567086 -23.096988 5.000000
    endloop
  endfacet
  facet normal 0.000000 0.000000 1.000000
    outer loop
      vertex 9.567086 -23.096988 5.000000
      vertex 4.150000 -15.000000 5.000000
      vertex 3.739021 -16.800618 5.000000
    endloop
  endfacet
  facet normal 0.000000 0.000000 1.000000
    outer loop
      vertex -3.739021 -1.800618 5.000000
      vertex -4.150000 0.000000 5.000000
      vertex -10.850000 0.000000 5.000000
    endloop
  endfacet
  facet normal 0.000000 0.000000 1.000000
    outer loop
      vertex -3.739021 -13.199382 5.000000
      vertex -2.587483 -11.755399 5.000000
      vertex -15.923462 -4.045951 5.000000
    endloop
  endfacet
  facet normal 0.000000 0.000000 1.000000
    outer loop
      vertex 2.500000 -23.096989 5.000000
      vertex 9.567086 -23.096988 5.000000
      vertex 0.923462 -19.045951 5.000000
    endloop
  endfacet
  facet normal 0.000000 0.000000 1.000000
    outer loop
      vertex 2.500000 -23.096989 5.000000
      vertex 0.923462 -19.045951 5.000000
      vertex -0.923462 -19.045951 5.000000
    endloop
  endfacet
  facet normal 0.000000 0.000000 1.000000
    outer loop
      vertex 2.500000 -23.096989 5.000000
      vertex -2.587483 -18.244601 5.000000
      vertex -27.716386 2.500000 5.000000
    endloop
  endfacet
  facet normal 0.000000 0.000000 1.000000
    outer loop
      vertex -18.739021 1.800618 5.000000
      vertex -17.587483 3.244601 5.000000
      vertex -23.096989 2.500000 5.000000
    endloop
  endfacet
  facet normal -0.000000 0.000000 1.000000
    outer loop
      vertex -2.587483 3.244601 5.000000
      vertex -0.923462 4.045951 5.000000
      vertex -12.412517 3.244601 5.000000
    endloop
  endfacet
  facet normal -0.000000 0.000000 1.000000
    outer loop
      vertex 14.076538 4.045951 5.000000
      vertex 23.096988 9.567086 5.000000
      vertex 0.923462 4.045951 5.000000
    endloop
  endfacet
  facet normal 0.000000 0.000000 1.000000
    outer loop
      vertex 3.739021 1.800618 5.000000
      vertex 4.150000 0.000000 5.000000
      vertex 10.850000 0.000000 5.000000
    endloop
  endfacet
  facet normal -0.000000 0.000000 1.000000
    outer loop
      vertex 12.412517 3.244601 5.000000
      vertex 0.923462 4.045951 5.000000
      vertex 2.587483 3.244601 5.000000
    endloop
  endfacet
  facet normal 0.000000 -0.000000 1.000000
    outer loop
      vertex 4.150000 0.000000 5.000000
      vertex 3.739021 -1.800618 5.000000
      vertex 11.260979 -1.800618 5.000000
    endloop
  endfacet
  facet normal 0.000000 0.000000 1.000000
    outer loop
      vertex 12.412517 3.244601 5.000000
      vertex 14.076538 4.045951 5.000000
      vertex 0.923462 4.045951 5.000000
    endloop
  endfacet
  facet normal 0.000000 0.000000 1.000000
    outer loop
      vertex 11.260979 -1.800618 5.000000
      vertex 10.850000 0.000000 5.000000
      vertex 4.150000 0.000000 5.000000
    endloop
  endfacet
  facet normal -0.000000 0.000000 1.000000
    outer loop
      vertex -3.739021 1.800618 5.000000
      vertex -12.412517 3.244601 5.000000
      vertex -11.260979 1.800618 5.000000
    endloop
  endfacet
  facet normal 0.000000 -0.000000 1.000000
    outer loop
      vertex 2.587483 -3.244601 5.000000
      vertex 0.923462 -4.045951 5.000000
      vertex 23.096989 -9.567086 5.000000
    endloop
  endfacet
  facet normal 0.000000 -0.000000 1.000000
    outer loop
      vertex 0.923462 -4.045951 5.000000
      vertex -0.923462 -4.045951 5.000000
      vertex 23.096989 -9.567086 5.000000
    endloop
  endfacet
  facet normal 0.000000 -0.000000 1.000000
    outer loop
      vertex -11.260979 -1.800618 5.000000
      vertex -12.412517 -3.244601 5.000000
      vertex 18.099804 -14.564270 5.000000
    endloop
  endfacet
  facet normal 0.000000 0.000000 1.000000
    outer loop
      vertex -2.587483 18.244601 5.000000
      vertex -0.923462 19.045951 5.000000
      vertex 2.500000 23.096989 5.000000
    endloop
  endfacet
  facet normal 0.000000 0.000000 1.000000
    outer loop
      vertex 3.739021 16.800618 5.000000
      vertex 4.150000 15.000000 5.000000
      vertex 14.564270 18.099804 5.000000
    endloop
  endfacet
  facet normal 0.000000 0.000000 1.000000
    outer loop
      vertex -21.366211 17.830677 5.000000
      vertex -18.099804 14.564270 5.000000
      vertex -17.830677 21.366211 5.000000
    endloop
  endfacet
  facet normal -0.000000 0.000000 1.000000
    outer loop
      vertex 0.923462 19.045951 5.000000
      vertex 9.567086 23.096989 5.000000
      vertex -0.923462 19.045951 5.000000
    endloop
  endfacet
  facet normal 0.000000 0.000000 1.000000
    outer loop
      vertex 12.412517 -3.244601 5.000000
      vertex 11.260979 -1.800618 5.000000
      vertex 3.739021 -1.800618 5.000000
    endloop
  endfacet
  facet normal 0.000000 -0.000000 1.000000
    outer loop
      vertex -2.500000 27.716386 5.000000
      vertex -2.500000 23.096989 5.000000
      vertex 2.500000 27.716386 5.000000
    endloop
  endfacet
  facet normal 0.000000 0.000000 1.000000
    outer loop
      vertex -23.096989 9.567086 5.000000
      vertex -2.500000 23.096989 5.000000
      vertex -18.099804 14.564270 5.000000
    endloop
  endfacet
  facet normal -0.000000 0.000000 1.000000
    outer loop
      vertex 12.412517 -3.244601 5.000000
      vertex 3.739021 -1.800618 5.000000
      vertex 2.587483 -3.244601 5.000000
    endloop
  endfacet
  facet normal 0.000000 0.000000 1.000000
    outer loop
      vertex -4.150000 -15.000000 5.000000
      vertex -3.739021 -13.199382 5.000000
      vertex -17.587483 -3.244601 5.000000
    endloop
  endfacet
  facet normal 0.000000 0.000000 1.000000
    outer loop
      vertex 0.923462 10.954049 5.000000
      vertex 18.099804 14.564270 5.000000
      vertex 2.587483 11.755399 5.000000
    endloop
  endfacet
  facet normal 0.000000 0.000000 1.000000
    outer loop
      vertex -17.587483 -3.244601 5.000000
      vertex -18.739021 -1.800618 5.000000
      vertex -27.716386 2.500000 5.000000
    endloop
  endfacet
  facet normal 0.000000 0.000000 1.000000
    outer loop
      vertex -4.150000 -15.000000 5.000000
      vertex -17.587483 -3.244601 5.000000
      vertex -27.716386 2.500000 5.000000
    endloop
  endfacet
  facet normal 0.000000 0.000000 1.000000
    outer loop
      vertex -19.150000 0.000000 5.000000
      vertex -18.739021 1.800618 5.000000
      vertex -27.716386 2.500000 5.000000
    endloop
  endfacet
  facet normal 0.000000 -0.000000 1.000000
    outer loop
      vertex -14.076538 -4.045951 5.000000
      vertex -15.923462 -4.045951 5.000000
      vertex -0.923462 -10.954049 5.000000
    endloop
  endfacet
  facet normal 0.000000 0.000000 1.000000
    outer loop
      vertex 0.923462 19.045951 5.000000
      vertex 2.587483 18.244601 5.000000
      vertex 9.567086 23.096989 5.000000
    endloop
  endfacet
  facet normal -0.000000 0.000000 1.000000
    outer loop
      vertex 11.260979 1.800618 5.000000
      vertex 2.587483 3.244601 5.000000
      vertex 3.739021 1.800618 5.000000
    endloop
  endfacet
  facet normal 0.000000 -0.000000 1.000000
    outer loop
      vertex 19.150000 0.000000 5.000000
      vertex 18.739021 -1.800618 5.000000
      vertex 27.716386 -2.500000 5.000000
    endloop
  endfacet
  facet normal 0.000000 0.000000 1.000000
    outer loop
      vertex 17.587483 3.244601 5.000000
      vertex 18.739021 1.800618 5.000000
      vertex 23.096989 2.500000 5.000000
    endloop
  endfacet
  facet normal -0.000000 0.000000 1.000000
    outer loop
      vertex 15.923462 4.045951 5.000000
      vertex 23.096988 9.567086 5.000000
      vertex 14.076538 4.045951 5.000000
    endloop
  endfacet
  facet normal 0.000000 0.000000 1.000000
    outer loop
      vertex 23.096989 2.500000 5.000000
      vertex 23.096988 9.567086 5.000000
      vertex 15.923462 4.045951 5.000000
    endloop
  endfacet
  facet normal 0.000000 0.000000 1.000000
    outer loop
      vertex 15.923462 4.045951 5.000000
      vertex 17.587483 3.244601 5.000000
      vertex 23.096989 2.500000 5.000000
    endloop
  endfacet
  facet normal 0.000000 0.000000 1.000000
    outer loop
      vertex 27.716386 -2.500000 5.000000
      vertex 23.096989 2.500000 5.000000
      vertex 18.739021 1.800618 5.000000
    endloop
  endfacet
  facet normal 0.000000 -0.000000 1.000000
    outer loop
      vertex 18.739021 -1.800618 5.000000
      vertex 17.587483 -3.244601 5.000000
      vertex 23.096989 -2.500000 5.000000
    endloop
  endfacet
  facet normal 0.000000 0.000000 1.000000
    outer loop
      vertex 27.716386 -2.500000 5.000000
      vertex 18.739021 1.800618 5.000000
      vertex 19.150000 0.000000 5.000000
    endloop
  endfacet
  facet normal 0.000000 -0.000000 1.000000
    outer loop
      vertex -10.850000 0.000000 5.000000
      vertex -11.260979 -1.800618 5.000000
      vertex -0.923462 -4.045951 5.000000
    endloop
  endfacet
  facet normal 0.000000 0.000000 1.000000
    outer loop
      vertex 23.096989 -2.500000 5.000000
      vertex 27.716386 -2.500000 5.000000
      vertex 18.739021 -1.800618 5.000000
    endloop
  endfacet
  facet normal 0.000000 0.000000 1.000000
    outer loop
      vertex 23.096989 -9.567086 5.000000
      vertex 23.096989 -2.500000 5.000000
      vertex 17.587483 -3.244601 5.000000
    endloop
  endfacet
  facet normal 0.000000 0.000000 1.000000
    outer loop
      vertex 23.096989 -9.567086 5.000000
      vertex 17.587483 -3.244601 5.000000
      vertex 15.923462 -4.045951 5.000000
    endloop
  endfacet
  facet normal 0.000000 0.000000 1.000000
    outer loop
      vertex 23.096989 -9.567086 5.000000
      vertex 14.076538 -4.045951 5.000000
      vertex 2.587483 -3.244601 5.000000
    endloop
  endfacet
  facet normal 0.000000 0.000000 1.000000
    outer loop
      vertex 23.096989 -9.567086 5.000000
      vertex 15.923462 -4.045951 5.000000
      vertex 14.076538 -4.045951 5.000000
    endloop
  endfacet
  facet normal 0.000000 -0.000000 1.000000
    outer loop
      vertex 4.150000 15.000000 5.000000
      vertex 3.739021 13.199382 5.000000
      vertex 14.564270 18.099804 5.000000
    endloop
  endfacet
  facet normal -0.000000 0.000000 1.000000
    outer loop
      vertex 14.564270 18.099804 5.000000
      vertex 9.567086 23.096989 5.000000
      vertex 3.739021 16.800618 5.000000
    endloop
  endfacet
  facet normal 0.000000 0.000000 1.000000
    outer loop
      vertex -23.096989 9.567086 5.000000
      vertex -2.587483 18.244601 5.000000
      vertex 2.500000 23.096989 5.000000
    endloop
  endfacet
  facet normal 0.000000 0.000000 1.000000
    outer loop
      vertex -23.096989 9.567086 5.000000
      vertex -3.739021 16.800618 5.000000
      vertex -2.587483 18.244601 5.000000
    endloop
  endfacet
  facet normal 0.000000 0.000000 1.000000
    outer loop
      vertex 2.587483 18.244601 5.000000
      vertex 3.739021 16.800618 5.000000
      vertex 9.567086 23.096989 5.000000
    endloop
  endfacet
  facet normal 0.000000 0.000000 1.000000
    outer loop
      vertex -23.096989 9.567086 5.000000
      vertex -4.150000 15.000000 5.000000
      vertex -3.739021 16.800618 5.000000
    endloop
  endfacet
  facet normal 0.000000 0.000000 1.000000
    outer loop
      vertex -23.096989 9.567086 5.000000
      vertex -3.739021 13.199382 5.000000
      vertex -4.150000 15.000000 5.000000
    endloop
  endfacet
  facet normal 0.000000 -0.000000 1.000000
    outer loop
      vertex 3.739021 13.199382 5.000000
      vertex 2.587483 11.755399 5.000000
      vertex 21.366211 17.830677 5.000000
    endloop
  endfacet
  facet normal 0.000000 0.000000 1.000000
    outer loop
      vertex -23.096989 9.567086 5.000000
      vertex -2.587483 11.755399 5.000000
      vertex -3.739021 13.199382 5.000000
    endloop
  endfacet
  facet normal 0.000000 0.000000 1.000000
    outer loop
      vertex -23.096989 9.567086 5.000000
      vertex -0.923462 10.954049 5.000000
      vertex -2.587483 11.755399 5.000000
    endloop
  endfacet
  facet normal 0.000000 0.000000 1.000000
    outer loop
      vertex 14.076538 -4.045951 5.000000
      vertex 12.412517 -3.244601 5.000000
      vertex 2.587483 -3.244601 5.000000
    endloop
  endfacet
  facet normal 0.000000 0.000000 1.000000
    outer loop
      vertex -23.096989 9.567086 5.000000
      vertex 0.923462 10.954049 5.000000
      vertex -0.923462 10.954049 5.000000
    endloop
  endfacet
  facet normal 0.000000 0.000000 1.000000
    outer loop
      vertex 0.923462 10.954049 5.000000
      vertex 23.096988 9.567086 5.000000
      vertex 18.099804 14.564270 5.000000
    endloop
  endfacet
  facet normal 0.000000 0.000000 1.000000
    outer loop
      vertex -23.096989 9.567086 5.000000
      vertex 23.096988 9.567086 5.000000
      vertex 0.923462 10.954049 5.000000
    endloop
  endfacet
  facet normal 0.000000 0.000000 1.000000
    outer loop
      vertex -23.096989 9.567086 5.000000
      vertex -15.923462 4.045951 5.000000
      vertex 23.096988 9.567086 5.000000
    endloop
  endfacet
  facet normal 0.000000 0.000000 1.000000
    outer loop
      vertex -23.096989 9.567086 5.000000
      vertex -23.096989 2.500000 5.000000
      vertex -15.923462 4.045951 5.000000
    endloop
  endfacet
  facet normal -1.000000 -0.000000 0.000000
    outer loop
      vertex -23.096989 2.500000 5.000000
      vertex -23.096989 9.567086 5.000000
      vertex -23.096989 2.500000 0.000000
    endloop
  endfacet
  facet normal -1.000000 -0.000000 0.000000
    outer loop
      vertex -23.096989 -2.500000 5.000000
      vertex -23.096988 -9.567086 0.000000
      vertex -23.096988 -9.567086 5.000000
    endloop
  endfacet
  facet normal -0.000000 -0.000000 -0.000000
    outer loop
      vertex -23.096989 9.567086 0.000000
      vertex -23.096988 -9.567086 0.000000
      vertex -23.096989 -2.500000 0.000000
    endloop
  endfacet
  facet normal -0.000000 -0.000000 0.000000
    outer loop
      vertex -23.096989 9.567086 0.000000
      vertex -23.096989 -2.500000 0.000000
      vertex -23.096989 2.500000 0.000000
    endloop
  endfacet
  facet normal -1.000000 -0.000000 -0.000000
    outer loop
      vertex -23.096989 9.567086 0.000000
      vertex -23.096989 2.500000 0.000000
      vertex -23.096989 9.567086 5.000000
    endloop
  endfacet
  facet normal -1.000000 -0.000000 -0.000000
    outer loop
      vertex -23.096989 -2.500000 0.000000
      vertex -23.096988 -9.567086 0.000000
      vertex -23.096989 -2.500000 5.000000
    endloop
  endfacet
  facet normal 0.000000 1.000000 0.000000
    outer loop
      vertex -27.716386 2.500000 0.000000
      vertex -27.716386 2.500000 5.000000
      vertex -23.096989 2.500000 0.000000
    endloop
  endfacet
  facet normal 0.000000 1.000000 0.000000
    outer loop
      vertex -23.096989 2.500000 0.000000
      vertex -27.716386 2.500000 5.000000
      vertex -23.096989 2.500000 5.000000
    endloop
  endfacet
  facet normal -0.707107 0.707107 0.000000
    outer loop
      vertex -23.096989 9.567086 0.000000
      vertex -23.096989 9.567086 5.000000
      vertex -18.099804 14.564270 0.000000
    endloop
  endfacet
  facet normal -0.000000 0.000000 -0.000000
    outer loop
      vertex -23.096989 9.567086 0.000000
      vertex -18.099804 14.564270 0.000000
      vertex -9.567086 23.096988 0.000000
    endloop
  endfacet
  facet normal -0.707107 0.707107 0.000000
    outer loop
      vertex -14.564270 18.099804 5.000000
      vertex -9.567086 23.096988 0.000000
      vertex -14.564270 18.099804 0.000000
    endloop
  endfacet
  facet normal -0.000000 0.000000 0.000000
    outer loop
      vertex -18.099804 14.564270 0.000000
      vertex -14.564270 18.099804 0.000000
      vertex -9.567086 23.096988 0.000000
    endloop
  endfacet
  facet normal -0.707107 0.707107 0.000000
    outer loop
      vertex -9.567086 23.096988 0.000000
      vertex -14.564270 18.099804 5.000000
      vertex -9.567086 23.096988 5.000000
    endloop
  endfacet
  facet normal -0.707107 0.707107 0.000000
    outer loop
      vertex -18.099804 14.564270 0.000000
      vertex -23.096989 9.567086 5.000000
      vertex -18.099804 14.564270 5.000000
    endloop
  endfacet
  facet normal -0.707107 -0.707107 -0.000000
    outer loop
      vertex -21.366211 17.830677 0.000000
      vertex -18.099804 14.564270 0.000000
      vertex -21.366211 17.830677 5.000000
    endloop
  endfacet
  facet normal -0.707107 -0.707107 0.000000
    outer loop
      vertex -21.366211 17.830677 5.000000
      vertex -18.099804 14.564270 0.000000
      vertex -18.099804 14.564270 5.000000
    endloop
  endfacet
  facet normal -0.707107 0.707107 0.000000
    outer loop
      vertex -21.366211 17.830677 0.000000
      vertex -21.366211 17.830677 5.000000
      vertex -17.830677 21.366211 0.000000
    endloop
  endfacet
  facet normal -0.707107 0.707107 0.000000
    outer loop
      vertex -17.830677 21.366211 0.000000
      vertex -21.366211 17.830677 5.000000
      vertex -17.830677 21.366211 5.000000
    endloop
  endfacet
  facet normal 0.707107 0.707107 0.000000
    outer loop
      vertex -14.564270 18.099804 0.000000
      vertex -17.830677 21.366211 0.000000
      vertex -17.830677 21.366211 5.000000
    endloop
  endfacet
  facet normal 0.707107 0.707107 -0.000000
    outer loop
      vertex -14.564270 18.099804 5.000000
      vertex -14.564270 18.099804 0.000000
      vertex -17.830677 21.366211 5.000000
    endloop
  endfacet
  facet normal -0.000000 1.000000 0.000000
    outer loop
      vertex -9.567086 23.096988 0.000000
      vertex -9.567086 23.096988 5.000000
      vertex -2.500000 23.096989 0.000000
    endloop
  endfacet
  facet normal -0.000000 0.000000 -0.000000
    outer loop
      vertex -9.567086 23.096988 0.000000
      vertex -2.500000 23.096989 0.000000
      vertex 9.567086 23.096989 0.000000
    endloop
  endfacet
  facet normal -0.000000 1.000000 0.000000
    outer loop
      vertex 2.500000 23.096989 5.000000
      vertex 9.567086 23.096989 0.000000
      vertex 2.500000 23.096989 0.000000
    endloop
  endfacet
  facet normal -0.000000 0.000000 0.000000
    outer loop
      vertex -2.500000 23.096989 0.000000
      vertex 2.500000 23.096989 0.000000
      vertex 9.567086 23.096989 0.000000
    endloop
  endfacet
  facet normal -0.000000 1.000000 0.000000
    outer loop
      vertex 9.567086 23.096989 0.000000
      vertex 2.500000 23.096989 5.000000
      vertex 9.567086 23.096989 5.000000
    endloop
  endfacet
  facet normal -0.000000 1.000000 0.000000
    outer loop
      vertex -2.500000 23.096989 0.000000
      vertex -9.567086 23.096988 5.000000
      vertex -2.500000 23.096989 5.000000
    endloop
  endfacet
  facet normal -1.000000 -0.000000 -0.000000
    outer loop
      vertex -2.500000 23.096989 0.000000
      vertex -2.500000 23.096989 5.000000
      vertex -2.500000 27.716386 0.000000
    endloop
  endfacet
  facet normal -1.000000 0.000000 0.000000
    outer loop
      vertex -2.500000 27.716386 0.000000
      vertex -2.500000 23.096989 5.000000
      vertex -2.500000 27.716386 5.000000
    endloop
  endfacet
  facet normal 0.000000 1.000000 0.000000
    outer loop
      vertex -2.500000 27.716386 0.000000
      vertex -2.500000 27.716386 5.000000
      vertex 2.500000 27.716386 0.000000
    endloop
  endfacet
  facet normal 0.000000 1.000000 0.000000
    outer loop
      vertex 2.500000 27.716386 0.000000
      vertex -2.500000 27.716386 5.000000
      vertex 2.500000 27.716386 5.000000
    endloop
  endfacet
  facet normal 1.000000 0.000000 -0.000000
    outer loop
      vertex 2.500000 23.096989 5.000000
      vertex 2.500000 23.096989 0.000000
      vertex 2.500000 27.716386 0.000000
    endloop
  endfacet
  facet normal 1.000000 0.000000 0.000000
    outer loop
      vertex 2.500000 27.716386 5.000000
      vertex 2.500000 23.096989 5.000000
      vertex 2.500000 27.716386 0.000000
    endloop
  endfacet
  facet normal 0.707107 0.707107 0.000000
    outer loop
      vertex 14.564270 18.099804 0.000000
      vertex 9.567086 23.096989 0.000000
      vertex 9.567086 23.096989 5.000000
    endloop
  endfacet
  facet normal 0.000000 0.000000 -0.000000
    outer loop
      vertex 23.096988 9.567086 0.000000
      vertex 9.567086 23.096989 0.000000
      vertex 14.564270 18.099804 0.000000
    endloop
  endfacet
  facet normal 0.707107 0.707107 0.000000
    outer loop
      vertex 18.099804 14.564270 0.000000
      vertex 18.099804 14.564270 5.000000
      vertex 23.096988 9.567086 0.000000
    endloop
  endfacet
  facet normal 0.000000 0.000000 0.000000
    outer loop
      vertex 23.096988 9.567086 0.000000
      vertex 14.564270 18.099804 0.000000
      vertex 18.099804 14.564270 0.000000
    endloop
  endfacet
  facet normal 0.707107 0.707107 -0.000000
    outer loop
      vertex 23.096988 9.567086 5.000000
      vertex 23.096988 9.567086 0.000000
      vertex 18.099804 14.564270 5.000000
    endloop
  endfacet
  facet normal 0.707107 0.707107 -0.000000
    outer loop
      vertex 14.564270 18.099804 5.000000
      vertex 14.564270 18.099804 0.000000
      vertex 9.567086 23.096989 5.000000
    endloop
  endfacet
  facet normal -0.707107 0.707107 0.000000
    outer loop
      vertex 14.564270 18.099804 0.000000
      vertex 14.564270 18.099804 5.000000
      vertex 17.830677 21.366211 0.000000
    endloop
  endfacet
  facet normal -0.707107 0.707107 0.000000
    outer loop
      vertex 17.830677 21.366211 0.000000
      vertex 14.564270 18.099804 5.000000
      vertex 17.830677 21.366211 5.000000
    endloop
  endfacet
  facet normal 0.707107 0.707107 0.000000
    outer loop
      vertex 17.830677 21.366211 0.000000
      vertex 17.830677 21.366211 5.000000
      vertex 21.366211 17.830677 0.000000
    endloop
  endfacet
  facet normal 0.707107 0.707107 0.000000
    outer loop
      vertex 21.366211 17.830677 0.000000
      vertex 17.830677 21.366211 5.000000
      vertex 21.366211 17.830677 5.000000
    endloop
  endfacet
  facet normal 0.707107 -0.707107 0.000000
    outer loop
      vertex 18.099804 14.564270 5.000000
      vertex 18.099804 14.564270 0.000000
      vertex 21.366211 17.830677 0.000000
    endloop
  endfacet
  facet normal 0.707107 -0.707107 0.000000
    outer loop
      vertex 21.366211 17.830677 5.000000
      vertex 18.099804 14.564270 5.000000
      vertex 21.366211 17.830677 0.000000
    endloop
  endfacet
  facet normal 1.000000 0.000000 0.000000
    outer loop
      vertex 23.096989 2.500000 0.000000
      vertex 23.096988 9.567086 0.000000
      vertex 23.096988 9.567086 5.000000
    endloop
  endfacet
  facet normal 0.000000 0.000000 -0.000000
    outer loop
      vertex 23.096989 -9.567086 0.000000
      vertex 23.096988 9.567086 0.000000
      vertex 23.096989 2.500000 0.000000
    endloop
  endfacet
  facet normal 1.000000 0.000000 0.000000
    outer loop
      vertex 23.096989 -2.500000 0.000000
      vertex 23.096989 -2.500000 5.000000
      vertex 23.096989 -9.567086 0.000000
    endloop
  endfacet
  facet normal 0.000000 0.000000 0.000000
    outer loop
      vertex 23.096989 -9.567086 0.000000
      vertex 23.096989 2.500000 0.000000
      vertex 23.096989 -2.500000 0.000000
    endloop
  endfacet
  facet normal 1.000000 0.000000 -0.000000
    outer loop
      vertex 23.096989 -9.567086 5.000000
      vertex 23.096989 -9.567086 0.000000
      vertex 23.096989 -2.500000 5.000000
    endloop
  endfacet
  facet normal 1.000000 0.000000 -0.000000
    outer loop
      vertex 23.096989 2.500000 5.000000
      vertex 23.096989 2.500000 0.000000
      vertex 23.096988 9.567086 5.000000
    endloop
  endfacet
  facet normal 0.000000 1.000000 0.000000
    outer loop
      vertex 23.096989 2.500000 0.000000
      vertex 23.096989 2.500000 5.000000
      vertex 27.716386 2.500000 0.000000
    endloop
  endfacet
  facet normal 0.000000 1.000000 0.000000
    outer loop
      vertex 27.716386 2.500000 0.000000
      vertex 23.096989 2.500000 5.000000
      vertex 27.716386 2.500000 5.000000
    endloop
  endfacet
  facet normal 1.000000 -0.000000 0.000000
    outer loop
      vertex 27.716386 -2.500000 5.000000
      vertex 27.716386 -2.500000 0.000000
      vertex 27.716386 2.500000 0.000000
    endloop
  endfacet
  facet normal 1.000000 -0.000000 0.000000
    outer loop
      vertex 27.716386 2.500000 5.000000
      vertex 27.716386 -2.500000 5.000000
      vertex 27.716386 2.500000 0.000000
    endloop
  endfacet
  facet normal 0.000000 -1.000000 0.000000
    outer loop
      vertex 23.096989 -2.500000 5.000000
      vertex 23.096989 -2.500000 0.000000
      vertex 27.716386 -2.500000 0.000000
    endloop
  endfacet
  facet normal 0.000000 -1.000000 0.000000
    outer loop
      vertex 27.716386 -2.500000 5.000000
      vertex 23.096989 -2.500000 5.000000
      vertex 27.716386 -2.500000 0.000000
    endloop
  endfacet
  facet normal 0.000000 -0.000000 -0.000000
    outer loop
      vertex 18.099804 -14.564270 0.000000
      vertex 9.567086 -23.096988 0.000000
      vertex 23.096989 -9.567086 0.000000
    endloop
  endfacet
  facet normal 0.707107 -0.707107 0.000000
    outer loop
      vertex 14.564270 -18.099804 0.000000
      vertex 14.564270 -18.099804 5.000000
      vertex 9.567086 -23.096988 5.000000
    endloop
  endfacet
  facet normal 0.707107 -0.707107 0.000000
    outer loop
      vertex 23.096989 -9.567086 5.000000
      vertex 18.099804 -14.564270 5.000000
      vertex 23.096989 -9.567086 0.000000
    endloop
  endfacet
  facet normal 0.000000 -0.000000 0.000000
    outer loop
      vertex 14.564270 -18.099804 0.000000
      vertex 9.567086 -23.096988 0.000000
      vertex 18.099804 -14.564270 0.000000
    endloop
  endfacet
  facet normal 0.707107 -0.707107 0.000000
    outer loop
      vertex 9.567086 -23.096988 5.000000
      vertex 9.567086 -23.096988 0.000000
      vertex 14.564270 -18.099804 0.000000
    endloop
  endfacet
  facet normal 0.707107 -0.707107 0.000000
    outer loop
      vertex 18.099804 -14.564270 5.000000
      vertex 18.099804 -14.564270 0.000000
      vertex 23.096989 -9.567086 0.000000
    endloop
  endfacet
  facet normal 0.707107 0.707107 0.000000
    outer loop
      vertex 21.366211 -17.830677 0.000000
      vertex 18.099804 -14.564270 0.000000
      vertex 18.099804 -14.564270 5.000000
    endloop
  endfacet
  facet normal 0.707107 0.707107 -0.000000
    outer loop
      vertex 21.366211 -17.830677 5.000000
      vertex 21.366211 -17.830677 0.000000
      vertex 18.099804 -14.564270 5.000000
    endloop
  endfacet
  facet normal 0.707107 -0.707107 0.000000
    outer loop
      vertex 17.830677 -21.366211 5.000000
      vertex 17.830677 -21.366211 0.000000
      vertex 21.366211 -17.830677 0.000000
    endloop
  endfacet
  facet normal 0.707107 -0.707107 0.000000
    outer loop
      vertex 21.366211 -17.830677 5.000000
      vertex 17.830677 -21.366211 5.000000
      vertex 21.366211 -17.830677 0.000000
    endloop
  endfacet
  facet normal -0.707107 -0.707107 -0.000000
    outer loop
      vertex 14.564270 -18.099804 0.000000
      vertex 17.830677 -21.366211 0.000000
      vertex 14.564270 -18.099804 5.000000
    endloop
  endfacet
  facet normal -0.707107 -0.707107 0.000000
    outer loop
      vertex 14.564270 -18.099804 5.000000
      vertex 17.830677 -21.366211 0.000000
      vertex 17.830677 -21.366211 5.000000
    endloop
  endfacet
  facet normal 0.000000 -0.000000 -0.000000
    outer loop
      vertex 2.500000 -23.096989 0.000000
      vertex -9.567086 -23.096989 0.000000
      vertex 9.567086 -23.096988 0.000000
    endloop
  endfacet
  facet normal 0.000000 -1.000000 0.000000
    outer loop
      vertex -2.500000 -23.096989 0.000000
      vertex -2.500000 -23.096989 5.000000
      vertex -9.567086 -23.096989 5.000000
    endloop
  endfacet
  facet normal 0.000000 -1.000000 0.000000
    outer loop
      vertex 9.567086 -23.096988 5.000000
      vertex 2.500000 -23.096989 5.000000
      vertex 9.567086 -23.096988 0.000000
    endloop
  endfacet
  facet normal 0.000000 -0.000000 0.000000
    outer loop
      vertex -2.500000 -23.096989 0.000000
      vertex -9.567086 -23.096989 0.000000
      vertex 2.500000 -23.096989 0.000000
    endloop
  endfacet
  facet normal 0.000000 -1.000000 0.000000
    outer loop
      vertex -9.567086 -23.096989 5.000000
      vertex -9.567086 -23.096989 0.000000
      vertex -2.500000 -23.096989 0.000000
    endloop
  endfacet
  facet normal 0.000000 -1.000000 0.000000
    outer loop
      vertex 2.500000 -23.096989 5.000000
      vertex 2.500000 -23.096989 0.000000
      vertex 9.567086 -23.096988 0.000000
    endloop
  endfacet
  facet normal 1.000000 0.000000 -0.000000
    outer loop
      vertex 2.500000 -27.716386 5.000000
      vertex 2.500000 -27.716386 0.000000
      vertex 2.500000 -23.096989 0.000000
    endloop
  endfacet
  facet normal 1.000000 0.000000 0.000000
    outer loop
      vertex 2.500000 -23.096989 5.000000
      vertex 2.500000 -27.716386 5.000000
      vertex 2.500000 -23.096989 0.000000
    endloop
  endfacet
  facet normal -0.000000 -1.000000 0.000000
    outer loop
      vertex -2.500000 -27.716386 5.000000
      vertex -2.500000 -27.716386 0.000000
      vertex 2.500000 -27.716386 0.000000
    endloop
  endfacet
  facet normal -0.000000 -1.000000 0.000000
    outer loop
      vertex 2.500000 -27.716386 5.000000
      vertex -2.500000 -27.716386 5.000000
      vertex 2.500000 -27.716386 0.000000
    endloop
  endfacet
  facet normal -1.000000 -0.000000 -0.000000
    outer loop
      vertex -2.500000 -27.716386 0.000000
      vertex -2.500000 -27.716386 5.000000
      vertex -2.500000 -23.096989 0.000000
    endloop
  endfacet
  facet normal -1.000000 0.000000 0.000000
    outer loop
      vertex -2.500000 -23.096989 0.000000
      vertex -2.500000 -27.716386 5.000000
      vertex -2.500000 -23.096989 5.000000
    endloop
  endfacet
  facet normal -0.707107 -0.707107 0.000000
    outer loop
      vertex -18.099804 -14.564270 5.000000
      vertex -23.096988 -9.567086 5.000000
      vertex -18.099804 -14.564270 0.000000
    endloop
  endfacet
  facet normal -0.707107 -0.707107 0.000000
    outer loop
      vertex -14.564270 -18.099804 5.000000
      vertex -9.567086 -23.096989 0.000000
      vertex -9.567086 -23.096989 5.000000
    endloop
  endfacet
  facet normal -0.000000 -0.000000 -0.000000
    outer loop
      vertex -23.096988 -9.567086 0.000000
      vertex -9.567086 -23.096989 0.000000
      vertex -14.564270 -18.099804 0.000000
    endloop
  endfacet
  facet normal -0.000000 -0.000000 0.000000
    outer loop
      vertex -23.096988 -9.567086 0.000000
      vertex -14.564270 -18.099804 0.000000
      vertex -18.099804 -14.564270 0.000000
    endloop
  endfacet
  facet normal -0.707107 -0.707107 -0.000000
    outer loop
      vertex -23.096988 -9.567086 0.000000
      vertex -18.099804 -14.564270 0.000000
      vertex -23.096988 -9.567086 5.000000
    endloop
  endfacet
  facet normal -0.707107 -0.707107 -0.000000
    outer loop
      vertex -14.564270 -18.099804 0.000000
      vertex -9.567086 -23.096989 0.000000
      vertex -14.564270 -18.099804 5.000000
    endloop
  endfacet
  facet normal 0.707107 -0.707107 0.000000
    outer loop
      vertex -17.830677 -21.366211 5.000000
      vertex -17.830677 -21.366211 0.000000
      vertex -14.564270 -18.099804 0.000000
    endloop
  endfacet
  facet normal 0.707107 -0.707107 0.000000
    outer loop
      vertex -14.564270 -18.099804 5.000000
      vertex -17.830677 -21.366211 5.000000
      vertex -14.564270 -18.099804 0.000000
    endloop
  endfacet
  facet normal -0.707107 -0.707107 0.000000
    outer loop
      vertex -21.366211 -17.830677 5.000000
      vertex -21.366211 -17.830677 0.000000
      vertex -17.830677 -21.366211 0.000000
    endloop
  endfacet
  facet normal -0.707107 -0.707107 0.000000
    outer loop
      vertex -17.830677 -21.366211 5.000000
      vertex -21.366211 -17.830677 5.000000
      vertex -17.830677 -21.366211 0.000000
    endloop
  endfacet
  facet normal -0.707107 0.707107 0.000000
    outer loop
      vertex -21.366211 -17.830677 0.000000
      vertex -21.366211 -17.830677 5.000000
      vertex -18.099804 -14.564270 0.000000
    endloop
  endfacet
  facet normal -0.707107 0.707107 0.000000
    outer loop
      vertex -18.099804 -14.564270 0.000000
      vertex -21.366211 -17.830677 5.000000
      vertex -18.099804 -14.564270 5.000000
    endloop
  endfacet
  facet normal 0.974928 0.222521 0.000000
    outer loop
      vertex -19.150000 0.000000 5.000000
      vertex -18.739021 -1.800618 5.000000
      vertex -18.739021 -1.800618 0.000000
    endloop
  endfacet
  facet normal 0.974928 0.222521 0.000000
    outer loop
      vertex -19.150000 0.000000 0.000000
      vertex -19.150000 0.000000 5.000000
      vertex -18.739021 -1.800618 0.000000
    endloop
  endfacet
  facet normal 0.781831 0.623490 0.000000
    outer loop
      vertex -18.739021 -1.800618 5.000000
      vertex -17.587483 -3.244601 5.000000
      vertex -17.587483 -3.244601 0.000000
    endloop
  endfacet
  facet normal 0.781831 0.623490 0.000000
    outer loop
      vertex -18.739021 -1.800618 0.000000
      vertex -18.739021 -1.800618 5.000000
      vertex -17.587483 -3.244601 0.000000
    endloop
  endfacet
  facet normal 0.433884 0.900969 -0.000000
    outer loop
      vertex -15.923462 -4.045951 5.000000
      vertex -15.923462 -4.045951 0.000000
      vertex -17.587483 -3.244601 5.000000
    endloop
  endfacet
  facet normal 0.433884 0.900969 -0.000000
    outer loop
      vertex -17.587483 -3.244601 5.000000
      vertex -15.923462 -4.045951 0.000000
      vertex -17.587483 -3.244601 0.000000
    endloop
  endfacet
  facet normal 0.000000 1.000000 0.000000
    outer loop
      vertex -14.076538 -4.045951 5.000000
      vertex -14.076538 -4.045951 0.000000
      vertex -15.923462 -4.045951 5.000000
    endloop
  endfacet
  facet normal 0.000000 1.000000 -0.000000
    outer loop
      vertex -15.923462 -4.045951 5.000000
      vertex -14.076538 -4.045951 0.000000
      vertex -15.923462 -4.045951 0.000000
    endloop
  endfacet
  facet normal -0.433884 0.900969 0.000000
    outer loop
      vertex -12.412517 -3.244601 5.000000
      vertex -12.412517 -3.244601 0.000000
      vertex -14.076538 -4.045951 5.000000
    endloop
  endfacet
  facet normal -0.433884 0.900969 0.000000
    outer loop
      vertex -14.076538 -4.045951 5.000000
      vertex -12.412517 -3.244601 0.000000
      vertex -14.076538 -4.045951 0.000000
    endloop
  endfacet
  facet normal -0.781831 0.623490 0.000000
    outer loop
      vertex -11.260979 -1.800618 5.000000
      vertex -11.260979 -1.800618 0.000000
      vertex -12.412517 -3.244601 5.000000
    endloop
  endfacet
  facet normal -0.781831 0.623490 0.000000
    outer loop
      vertex -12.412517 -3.244601 5.000000
      vertex -11.260979 -1.800618 0.000000
      vertex -12.412517 -3.244601 0.000000
    endloop
  endfacet
  facet normal -0.974928 0.222521 0.000000
    outer loop
      vertex -10.850000 0.000000 5.000000
      vertex -10.850000 0.000000 0.000000
      vertex -11.260979 -1.800618 5.000000
    endloop
  endfacet
  facet normal -0.974928 0.222521 0.000000
    outer loop
      vertex -11.260979 -1.800618 5.000000
      vertex -10.850000 0.000000 0.000000
      vertex -11.260979 -1.800618 0.000000
    endloop
  endfacet
  facet normal -0.974928 -0.222521 0.000000
    outer loop
      vertex -10.850000 0.000000 5.000000
      vertex -11.260979 1.800618 5.000000
      vertex -10.850000 0.000000 0.000000
    endloop
  endfacet
  facet normal -0.974928 -0.222521 0.000000
    outer loop
      vertex -10.850000 0.000000 0.000000
      vertex -11.260979 1.800618 5.000000
      vertex -11.260979 1.800618 0.000000
    endloop
  endfacet
  facet normal -0.781831 -0.623490 0.000000
    outer loop
      vertex -11.260979 1.800618 5.000000
      vertex -12.412517 3.244601 5.000000
      vertex -11.260979 1.800618 0.000000
    endloop
  endfacet
  facet normal -0.781831 -0.623490 0.000000
    outer loop
      vertex -11.260979 1.800618 0.000000
      vertex -12.412517 3.244601 5.000000
      vertex -12.412517 3.244601 0.000000
    endloop
  endfacet
  facet normal -0.433884 -0.900969 -0.000000
    outer loop
      vertex -12.412517 3.244601 0.000000
      vertex -12.412517 3.244601 5.000000
      vertex -14.076538 4.045951 5.000000
    endloop
  endfacet
  facet normal -0.433884 -0.900969 -0.000000
    outer loop
      vertex -14.076538 4.045951 0.000000
      vertex -12.412517 3.244601 0.000000
      vertex -14.076538 4.045951 5.000000
    endloop
  endfacet
  facet normal 0.000000 -1.000000 0.000000
    outer loop
      vertex -14.076538 4.045951 0.000000
      vertex -14.076538 4.045951 5.000000
      vertex -15.923462 4.045951 5.000000
    endloop
  endfacet
  facet normal -0.000000 -1.000000 -0.000000
    outer loop
      vertex -15.923462 4.045951 0.000000
      vertex -14.076538 4.045951 0.000000
      vertex -15.923462 4.045951 5.000000
    endloop
  endfacet
  facet normal 0.433884 -0.900969 0.000000
    outer loop
      vertex -15.923462 4.045951 0.000000
      vertex -15.923462 4.045951 5.000000
      vertex -17.587483 3.244601 5.000000
    endloop
  endfacet
  facet normal 0.433884 -0.900969 0.000000
    outer loop
      vertex -17.587483 3.244601 0.000000
      vertex -15.923462 4.045951 0.000000
      vertex -17.587483 3.244601 5.000000
    endloop
  endfacet
  facet normal 0.781831 -0.623490 0.000000
    outer loop
      vertex -17.587483 3.244601 0.000000
      vertex -17.587483 3.244601 5.000000
      vertex -18.739021 1.800618 5.000000
    endloop
  endfacet
  facet normal 0.781831 -0.623490 0.000000
    outer loop
      vertex -18.739021 1.800618 0.000000
      vertex -17.587483 3.244601 0.000000
      vertex -18.739021 1.800618 5.000000
    endloop
  endfacet
  facet normal 0.974928 -0.222521 0.000000
    outer loop
      vertex -18.739021 1.800618 0.000000
      vertex -18.739021 1.800618 5.000000
      vertex -19.150000 0.000000 5.000000
    endloop
  endfacet
  facet normal 0.974928 -0.222521 0.000000
    outer loop
      vertex -19.150000 0.000000 0.000000
      vertex -18.739021 1.800618 0.000000
      vertex -19.150000 0.000000 5.000000
    endloop
  endfacet
  facet normal 0.974928 0.222521 0.000000
    outer loop
      vertex -4.150000 -15.000000 5.000000
      vertex -3.739021 -16.800618 5.000000
      vertex -3.739021 -16.800618 0.000000
    endloop
  endfacet
  facet normal 0.974928 0.222521 0.000000
    outer loop
      vertex -4.150000 -15.000000 0.000000
      vertex -4.150000 -15.000000 5.000000
      vertex -3.739021 -16.800618 0.000000
    endloop
  endfacet
  facet normal 0.781831 0.623490 0.000000
    outer loop
      vertex -3.739021 -16.800618 5.000000
      vertex -2.587483 -18.244601 5.000000
      vertex -2.587483 -18.244601 0.000000
    endloop
  endfacet
  facet normal 0.781831 0.623490 0.000000
    outer loop
      vertex -3.739021 -16.800618 0.000000
      vertex -3.739021 -16.800618 5.000000
      vertex -2.587483 -18.244601 0.000000
    endloop
  endfacet
  facet normal 0.433884 0.900969 -0.000000
    outer loop
      vertex -0.923462 -19.045951 5.000000
      vertex -0.923462 -19.045951 0.000000
      vertex -2.587483 -18.244601 5.000000
    endloop
  endfacet
  facet normal 0.433884 0.900969 -0.000000
    outer loop
      vertex -2.587483 -18.244601 5.000000
      vertex -0.923462 -19.045951 0.000000
      vertex -2.587483 -18.244601 0.000000
    endloop
  endfacet
  facet normal 0.000000 1.000000 0.000000
    outer loop
      vertex 0.923462 -19.045951 5.000000
      vertex 0.923462 -19.045951 0.000000
      vertex -0.923462 -19.045951 5.000000
    endloop
  endfacet
  facet normal 0.000000 1.000000 -0.000000
    outer loop
      vertex -0.923462 -19.045951 5.000000
      vertex 0.923462 -19.045951 0.000000
      vertex -0.923462 -19.045951 0.000000
    endloop
  endfacet
  facet normal -0.433884 0.900969 0.000000
    outer loop
      vertex 2.587483 -18.244601 5.000000
      vertex 2.587483 -18.244601 0.000000
      vertex 0.923462 -19.045951 5.000000
    endloop
  endfacet
  facet normal -0.433884 0.900969 0.000000
    outer loop
      vertex 0.923462 -19.045951 5.000000
      vertex 2.587483 -18.244601 0.000000
      vertex 0.923462 -19.045951 0.000000
    endloop
  endfacet
  facet normal -0.781831 0.623490 0.000000
    outer loop
      vertex 3.739021 -16.800618 5.000000
      vertex 3.739021 -16.800618 0.000000
      vertex 2.587483 -18.244601 5.000000
    endloop
  endfacet
  facet normal -0.781831 0.623490 0.000000
    outer loop
      vertex 2.587483 -18.244601 5.000000
      vertex 3.739021 -16.800618 0.000000
      vertex 2.587483 -18.244601 0.000000
    endloop
  endfacet
  facet normal -0.974928 0.222521 0.000000
    outer loop
      vertex 4.150000 -15.000000 5.000000
      vertex 4.150000 -15.000000 0.000000
      vertex 3.739021 -16.800618 5.000000
    endloop
  endfacet
  facet normal -0.974928 0.222521 0.000000
    outer loop
      vertex 3.739021 -16.800618 5.000000
      vertex 4.150000 -15.000000 0.000000
      vertex 3.739021 -16.800618 0.000000
    endloop
  endfacet
  facet normal -0.974928 -0.222521 0.000000
    outer loop
      vertex 4.150000 -15.000000 5.000000
      vertex 3.739021 -13.199382 5.000000
      vertex 4.150000 -15.000000 0.000000
    endloop
  endfacet
  facet normal -0.974928 -0.222521 0.000000
    outer loop
      vertex 4.150000 -15.000000 0.000000
      vertex 3.739021 -13.199382 5.000000
      vertex 3.739021 -13.199382 0.000000
    endloop
  endfacet
  facet normal -0.781831 -0.623490 0.000000
    outer loop
      vertex 3.739021 -13.199382 5.000000
      vertex 2.587483 -11.755399 5.000000
      vertex 3.739021 -13.199382 0.000000
    endloop
  endfacet
  facet normal -0.781831 -0.623490 0.000000
    outer loop
      vertex 3.739021 -13.199382 0.000000
      vertex 2.587483 -11.755399 5.000000
      vertex 2.587483 -11.755399 0.000000
    endloop
  endfacet
  facet normal -0.433884 -0.900969 -0.000000
    outer loop
      vertex 2.587483 -11.755399 0.000000
      vertex 2.587483 -11.755399 5.000000
      vertex 0.923462 -10.954049 5.000000
    endloop
  endfacet
  facet normal -0.433884 -0.900969 -0.000000
    outer loop
      vertex 0.923462 -10.954049 0.000000
      vertex 2.587483 -11.755399 0.000000
      vertex 0.923462 -10.954049 5.000000
    endloop
  endfacet
  facet normal 0.000000 -1.000000 0.000000
    outer loop
      vertex 0.923462 -10.954049 0.000000
      vertex 0.923462 -10.954049 5.000000
      vertex -0.923462 -10.954049 5.000000
    endloop
  endfacet
  facet normal -0.000000 -1.000000 -0.000000
    outer loop
      vertex -0.923462 -10.954049 0.000000
      vertex 0.923462 -10.954049 0.000000
      vertex -0.923462 -10.954049 5.000000
    endloop
  endfacet
  facet normal 0.433884 -0.900969 0.000000
    outer loop
      vertex -0.923462 -10.954049 0.000000
      vertex -0.923462 -10.954049 5.000000
      vertex -2.587483 -11.755399 5.000000
    endloop
  endfacet
  facet normal 0.433884 -0.900969 0.000000
    outer loop
      vertex -2.587483 -11.755399 0.000000
      vertex -0.923462 -10.954049 0.000000
      vertex -2.587483 -11.755399 5.000000
    endloop
  endfacet
  facet normal 0.781831 -0.623490 0.000000
    outer loop
      vertex -2.587483 -11.755399 0.000000
      vertex -2.587483 -11.755399 5.000000
      vertex -3.739021 -13.199382 5.000000
    endloop
  endfacet
  facet normal 0.781831 -0.623490 0.000000
    outer loop
      vertex -3.739021 -13.199382 0.000000
      vertex -2.587483 -11.755399 0.000000
      vertex -3.739021 -13.199382 5.000000
    endloop
  endfacet
  facet normal 0.974928 -0.222521 0.000000
    outer loop
      vertex -3.739021 -13.199382 0.000000
      vertex -3.739021 -13.199382 5.000000
      vertex -4.150000 -15.000000 5.000000
    endloop
  endfacet
  facet normal 0.974928 -0.222521 0.000000
    outer loop
      vertex -4.150000 -15.000000 0.000000
      vertex -3.739021 -13.199382 0.000000
      vertex -4.150000 -15.000000 5.000000
    endloop
  endfacet
  facet normal 0.974928 0.222521 0.000000
    outer loop
      vertex -4.150000 0.000000 5.000000
      vertex -3.739021 -1.800618 5.000000
      vertex -3.739021 -1.800618 0.000000
    endloop
  endfacet
  facet normal 0.974928 0.222521 0.000000
    outer loop
      vertex -4.150000 0.000000 0.000000
      vertex -4.150000 0.000000 5.000000
      vertex -3.739021 -1.800618 0.000000
    endloop
  endfacet
  facet normal 0.781831 0.623490 0.000000
    outer loop
      vertex -3.739021 -1.800618 5.000000
      vertex -2.587483 -3.244601 5.000000
      vertex -2.587483 -3.244601 0.000000
    endloop
  endfacet
  facet normal 0.781831 0.623490 0.000000
    outer loop
      vertex -3.739021 -1.800618 0.000000
      vertex -3.739021 -1.800618 5.000000
      vertex -2.587483 -3.244601 0.000000
    endloop
  endfacet
  facet normal 0.433884 0.900969 -0.000000
    outer loop
      vertex -0.923462 -4.045951 5.000000
      vertex -0.923462 -4.045951 0.000000
      vertex -2.587483 -3.244601 5.000000
    endloop
  endfacet
  facet normal 0.433884 0.900969 -0.000000
    outer loop
      vertex -2.587483 -3.244601 5.000000
      vertex -0.923462 -4.045951 0.000000
      vertex -2.587483 -3.244601 0.000000
    endloop
  endfacet
  facet normal 0.000000 1.000000 0.000000
    outer loop
      vertex 0.923462 -4.045951 5.000000
      vertex 0.923462 -4.045951 0.000000
      vertex -0.923462 -4.045951 5.000000
    endloop
  endfacet
  facet normal 0.000000 1.000000 -0.000000
    outer loop
      vertex -0.923462 -4.045951 5.000000
      vertex 0.923462 -4.045951 0.000000
      vertex -0.923462 -4.045951 0.000000
    endloop
  endfacet
  facet normal -0.433884 0.900969 0.000000
    outer loop
      vertex 2.587483 -3.244601 5.000000
      vertex 2.587483 -3.244601 0.000000
      vertex 0.923462 -4.045951 5.000000
    endloop
  endfacet
  facet normal -0.433884 0.900969 0.000000
    outer loop
      vertex 0.923462 -4.045951 5.000000
      vertex 2.587483 -3.244601 0.000000
      vertex 0.923462 -4.045951 0.000000
    endloop
  endfacet
  facet normal -0.781831 0.623490 0.000000
    outer loop
      vertex 3.739021 -1.800618 5.000000
      vertex 3.739021 -1.800618 0.000000
      vertex 2.587483 -3.244601 5.000000
    endloop
  endfacet
  facet normal -0.781831 0.623490 0.000000
    outer loop
      vertex 2.587483 -3.244601 5.000000
      vertex 3.739021 -1.800618 0.000000
      vertex 2.587483 -3.244601 0.000000
    endloop
  endfacet
  facet normal -0.974928 0.222521 0.000000
    outer loop
      vertex 4.150000 0.000000 5.000000
      vertex 4.150000 0.000000 0.000000
      vertex 3.739021 -1.800618 5.000000
    endloop
  endfacet
  facet normal -0.974928 0.222521 0.000000
    outer loop
      vertex 3.739021 -1.800618 5.000000
      vertex 4.150000 0.000000 0.000000
      vertex 3.739021 -1.800618 0.000000
    endloop
  endfacet
  facet normal -0.974928 -0.222521 0.000000
    outer loop
      vertex 4.150000 0.000000 5.000000
      vertex 3.739021 1.800618 5.000000
      vertex 4.150000 0.000000 0.000000
    endloop
  endfacet
  facet normal -0.974928 -0.222521 0.000000
    outer loop
      vertex 4.150000 0.000000 0.000000
      vertex 3.739021 1.800618 5.000000
      vertex 3.739021 1.800618 0.000000
    endloop
  endfacet
  facet normal -0.781831 -0.623490 0.000000
    outer loop
      vertex 3.739021 1.800618 5.000000
      vertex 2.587483 3.244601 5.000000
      vertex 3.739021 1.800618 0.000000
    endloop
  endfacet
  facet normal -0.781831 -0.623490 0.000000
    outer loop
      vertex 3.739021 1.800618 0.000000
      vertex 2.587483 3.244601 5.000000
      vertex 2.587483 3.244601 0.000000
    endloop
  endfacet
  facet normal -0.433884 -0.900969 -0.000000
    outer loop
      vertex 2.587483 3.244601 0.000000
      vertex 2.587483 3.244601 5.000000
      vertex 0.923462 4.045951 5.000000
    endloop
  endfacet
  facet normal -0.433884 -0.900969 -0.000000
    outer loop
      vertex 0.923462 4.045951 0.000000
      vertex 2.587483 3.244601 0.000000
      vertex 0.923462 4.045951 5.000000
    endloop
  endfacet
  facet normal 0.000000 -1.000000 0.000000
    outer loop
      vertex 0.923462 4.045951 0.000000
      vertex 0.923462 4.045951 5.000000
      vertex -0.923462 4.045951 5.000000
    endloop
  endfacet
  facet normal -0.000000 -1.000000 -0.000000
    outer loop
      vertex -0.923462 4.045951 0.000000
      vertex 0.923462 4.045951 0.000000
      vertex -0.923462 4.045951 5.000000
    endloop
  endfacet
  facet normal 0.433884 -0.900969 0.000000
    outer loop
      vertex -0.923462 4.045951 0.000000
      vertex -0.923462 4.045951 5.000000
      vertex -2.587483 3.244601 5.000000
    endloop
  endfacet
  facet normal 0.433884 -0.900969 0.000000
    outer loop
      vertex -2.587483 3.244601 0.000000
      vertex -0.923462 4.045951 0.000000
      vertex -2.587483 3.244601 5.000000
    endloop
  endfacet
  facet normal 0.781831 -0.623490 0.000000
    outer loop
      vertex -2.587483 3.244601 0.000000
      vertex -2.587483 3.244601 5.000000
      vertex -3.739021 1.800618 5.000000
    endloop
  endfacet
  facet normal 0.781831 -0.623490 0.000000
    outer loop
      vertex -3.739021 1.800618 0.000000
      vertex -2.587483 3.244601 0.000000
      vertex -3.739021 1.800618 5.000000
    endloop
  endfacet
  facet normal 0.974928 -0.222521 0.000000
    outer loop
      vertex -3.739021 1.800618 0.000000
      vertex -3.739021 1.800618 5.000000
      vertex -4.150000 0.000000 5.000000
    endloop
  endfacet
  facet normal 0.974928 -0.222521 0.000000
    outer loop
      vertex -4.150000 0.000000 0.000000
      vertex -3.739021 1.800618 0.000000
      vertex -4.150000 0.000000 5.000000
    endloop
  endfacet
  facet normal 0.974928 0.222521 0.000000
    outer loop
      vertex -4.150000 15.000000 5.000000
      vertex -3.739021 13.199382 5.000000
      vertex -3.739021 13.199382 0.000000
    endloop
  endfacet
  facet normal 0.974928 0.222521 0.000000
    outer loop
      vertex -4.150000 15.000000 0.000000
      vertex -4.150000 15.000000 5.000000
      vertex -3.739021 13.199382 0.000000
    endloop
  endfacet
  facet normal 0.781831 0.623490 0.000000
    outer loop
      vertex -3.739021 13.199382 5.000000
      vertex -2.587483 11.755399 5.000000
      vertex -2.587483 11.755399 0.000000
    endloop
  endfacet
  facet normal 0.781831 0.623490 0.000000
    outer loop
      vertex -3.739021 13.199382 0.000000
      vertex -3.739021 13.199382 5.000000
      vertex -2.587483 11.755399 0.000000
    endloop
  endfacet
  facet normal 0.433884 0.900969 -0.000000
    outer loop
      vertex -0.923462 10.954049 5.000000
      vertex -0.923462 10.954049 0.000000
      vertex -2.587483 11.755399 5.000000
    endloop
  endfacet
  facet normal 0.433884 0.900969 -0.000000
    outer loop
      vertex -2.587483 11.755399 5.000000
      vertex -0.923462 10.954049 0.000000
      vertex -2.587483 11.755399 0.000000
    endloop
  endfacet
  facet normal 0.000000 1.000000 0.000000
    outer loop
      vertex 0.923462 10.954049 5.000000
      vertex 0.923462 10.954049 0.000000
      vertex -0.923462 10.954049 5.000000
    endloop
  endfacet
  facet normal 0.000000 1.000000 -0.000000
    outer loop
      vertex -0.923462 10.954049 5.000000
      vertex 0.923462 10.954049 0.000000
      vertex -0.923462 10.954049 0.000000
    endloop
  endfacet
  facet normal -0.433884 0.900969 0.000000
    outer loop
      vertex 2.587483 11.755399 5.000000
      vertex 2.587483 11.755399 0.000000
      vertex 0.923462 10.954049 5.000000
    endloop
  endfacet
  facet normal -0.433884 0.900969 0.000000
    outer loop
      vertex 0.923462 10.954049 5.000000
      vertex 2.587483 11.755399 0.000000
      vertex 0.923462 10.954049 0.000000
    endloop
  endfacet
  facet normal -0.781831 0.623490 0.000000
    outer loop
      vertex 3.739021 13.199382 5.000000
      vertex 3.739021 13.199382 0.000000
      vertex 2.587483 11.755399 5.000000
    endloop
  endfacet
  facet normal -0.781831 0.623490 0.000000
    outer loop
      vertex 2.587483 11.755399 5.000000
      vertex 3.739021 13.199382 0.000000
      vertex 2.587483 11.755399 0.000000
    endloop
  endfacet
  facet normal -0.974928 0.222521 0.000000
    outer loop
      vertex 4.150000 15.000000 5.000000
      vertex 4.150000 15.000000 0.000000
      vertex 3.739021 13.199382 5.000000
    endloop
  endfacet
  facet normal -0.974928 0.222521 0.000000
    outer loop
      vertex 3.739021 13.199382 5.000000
      vertex 4.150000 15.000000 0.000000
      vertex 3.739021 13.199382 0.000000
    endloop
  endfacet
  facet normal -0.974928 -0.222521 0.000000
    outer loop
      vertex 4.150000 15.000000 5.000000
      vertex 3.739021 16.800618 5.000000
      vertex 4.150000 15.000000 0.000000
    endloop
  endfacet
  facet normal -0.974928 -0.222521 0.000000
    outer loop
      vertex 4.150000 15.000000 0.000000
      vertex 3.739021 16.800618 5.000000
      vertex 3.739021 16.800618 0.000000
    endloop
  endfacet
  facet normal -0.781831 -0.623490 0.000000
    outer loop
      vertex 3.739021 16.800618 5.000000
      vertex 2.587483 18.244601 5.000000
      vertex 3.739021 16.800618 0.000000
    endloop
  endfacet
  facet normal -0.781831 -0.623490 0.000000
    outer loop
      vertex 3.739021 16.800618 0.000000
      vertex 2.587483 18.244601 5.000000
      vertex 2.587483 18.244601 0.000000
    endloop
  endfacet
  facet normal -0.433884 -0.900969 -0.000000
    outer loop
      vertex 2.587483 18.244601 0.000000
      vertex 2.587483 18.244601 5.000000
      vertex 0.923462 19.045951 5.000000
    endloop
  endfacet
  facet normal -0.433884 -0.900969 -0.000000
    outer loop
      vertex 0.923462 19.045951 0.000000
      vertex 2.587483 18.244601 0.000000
      vertex 0.923462 19.045951 5.000000
    endloop
  endfacet
  facet normal 0.000000 -1.000000 0.000000
    outer loop
      vertex 0.923462 19.045951 0.000000
      vertex 0.923462 19.045951 5.000000
      vertex -0.923462 19.045951 5.000000
    endloop
  endfacet
  facet normal -0.000000 -1.000000 -0.000000
    outer loop
      vertex -0.923462 19.045951 0.000000
      vertex 0.923462 19.045951 0.000000
      vertex -0.923462 19.045951 5.000000
    endloop
  endfacet
  facet normal 0.433884 -0.900969 0.000000
    outer loop
      vertex -0.923462 19.045951 0.000000
      vertex -0.923462 19.045951 5.000000
      vertex -2.587483 18.244601 5.000000
    endloop
  endfacet
  facet normal 0.433884 -0.900969 0.000000
    outer loop
      vertex -2.587483 18.244601 0.000000
      vertex -0.923462 19.045951 0.000000
      vertex -2.587483 18.244601 5.000000
    endloop
  endfacet
  facet normal 0.781831 -0.623490 0.000000
    outer loop
      vertex -2.587483 18.244601 0.000000
      vertex -2.587483 18.244601 5.000000
      vertex -3.739021 16.800618 5.000000
    endloop
  endfacet
  facet normal 0.781831 -0.623490 0.000000
    outer loop
      vertex -3.739021 16.800618 0.000000
      vertex -2.587483 18.244601 0.000000
      vertex -3.739021 16.800618 5.000000
    endloop
  endfacet
  facet normal 0.974928 -0.222521 0.000000
    outer loop
      vertex -3.739021 16.800618 0.000000
      vertex -3.739021 16.800618 5.000000
      vertex -4.150000 15.000000 5.000000
    endloop
  endfacet
  facet normal 0.974928 -0.222521 0.000000
    outer loop
      vertex -4.150000 15.000000 0.000000
      vertex -3.739021 16.800618 0.000000
      vertex -4.150000 15.000000 5.000000
    endloop
  endfacet
  facet normal 0.974928 0.222521 0.000000
    outer loop
      vertex 10.850000 0.000000 5.000000
      vertex 11.260979 -1.800618 5.000000
      vertex 11.260979 -1.800618 0.000000
    endloop
  endfacet
  facet normal 0.974928 0.222521 0.000000
    outer loop
      vertex 10.850000 0.000000 0.000000
      vertex 10.850000 0.000000 5.000000
      vertex 11.260979 -1.800618 0.000000
    endloop
  endfacet
  facet normal 0.781831 0.623490 0.000000
    outer loop
      vertex 11.260979 -1.800618 5.000000
      vertex 12.412517 -3.244601 5.000000
      vertex 12.412517 -3.244601 0.000000
    endloop
  endfacet
  facet normal 0.781831 0.623490 0.000000
    outer loop
      vertex 11.260979 -1.800618 0.000000
      vertex 11.260979 -1.800618 5.000000
      vertex 12.412517 -3.244601 0.000000
    endloop
  endfacet
  facet normal 0.433884 0.900969 -0.000000
    outer loop
      vertex 14.076538 -4.045951 5.000000
      vertex 14.076538 -4.045951 0.000000
      vertex 12.412517 -3.244601 5.000000
    endloop
  endfacet
  facet normal 0.433884 0.900969 -0.000000
    outer loop
      vertex 12.412517 -3.244601 5.000000
      vertex 14.076538 -4.045951 0.000000
      vertex 12.412517 -3.244601 0.000000
    endloop
  endfacet
  facet normal 0.000000 1.000000 0.000000
    outer loop
      vertex 15.923462 -4.045951 5.000000
      vertex 15.923462 -4.045951 0.000000
      vertex 14.076538 -4.045951 5.000000
    endloop
  endfacet
  facet normal 0.000000 1.000000 -0.000000
    outer loop
      vertex 14.076538 -4.045951 5.000000
      vertex 15.923462 -4.045951 0.000000
      vertex 14.076538 -4.045951 0.000000
    endloop
  endfacet
  facet normal -0.433884 0.900969 0.000000
    outer loop
      vertex 17.587483 -3.244601 5.000000
      vertex 17.587483 -3.244601 0.000000
      vertex 15.923462 -4.045951 5.000000
    endloop
  endfacet
  facet normal -0.433884 0.900969 0.000000
    outer loop
      vertex 15.923462 -4.045951 5.000000
      vertex 17.587483 -3.244601 0.000000
      vertex 15.923462 -4.045951 0.000000
    endloop
  endfacet
  facet normal -0.781831 0.623490 0.000000
    outer loop
      vertex 18.739021 -1.800618 5.000000
      vertex 18.739021 -1.800618 0.000000
      vertex 17.587483 -3.244601 5.000000
    endloop
  endfacet
  facet normal -0.781831 0.623490 0.000000
    outer loop
      vertex 17.587483 -3.244601 5.000000
      vertex 18.739021 -1.800618 0.000000
      vertex 17.587483 -3.244601 0.000000
    endloop
  endfacet
  facet normal -0.974928 0.222521 0.000000
    outer loop
      vertex 19.150000 0.000000 5.000000
      vertex 19.150000 0.000000 0.000000
      vertex 18.739021 -1.800618 5.000000
    endloop
  endfacet
  facet normal -0.974928 0.222521 0.000000
    outer loop
      vertex 18.739021 -1.800618 5.000000
      vertex 19.150000 0.000000 0.000000
      vertex 18.739021 -1.800618 0.000000
    endloop
  endfacet
  facet normal -0.974928 -0.222521 0.000000
    outer loop
      vertex 19.150000 0.000000 5.000000
      vertex 18.739021 1.800618 5.000000
      vertex 19.150000 0.000000 0.000000
    endloop
  endfacet
  facet normal -0.974928 -0.222521 0.000000
    outer loop
      vertex 19.150000 0.000000 0.000000
      vertex 18.739021 1.800618 5.000000
      vertex 18.739021 1.800618 0.000000
    endloop
  endfacet
  facet normal -0.781831 -0.623490 0.000000
    outer loop
      vertex 18.739021 1.800618 5.000000
      vertex 17.587483 3.244601 5.000000
      vertex 18.739021 1.800618 0.000000
    endloop
  endfacet
  facet normal -0.781831 -0.623490 0.000000
    outer loop
      vertex 18.739021 1.800618 0.000000
      vertex 17.587483 3.244601 5.000000
      vertex 17.587483 3.244601 0.000000
    endloop
  endfacet
  facet normal -0.433884 -0.900969 -0.000000
    outer loop
      vertex 17.587483 3.244601 0.000000
      vertex 17.587483 3.244601 5.000000
      vertex 15.923462 4.045951 5.000000
    endloop
  endfacet
  facet normal -0.433884 -0.900969 -0.000000
    outer loop
      vertex 15.923462 4.045951 0.000000
      vertex 17.587483 3.244601 0.000000
      vertex 15.923462 4.045951 5.000000
    endloop
  endfacet
  facet normal 0.000000 -1.000000 0.000000
    outer loop
      vertex 15.923462 4.045951 0.000000
      vertex 15.923462 4.045951 5.000000
      vertex 14.076538 4.045951 5.000000
    endloop
  endfacet
  facet normal -0.000000 -1.000000 -0.000000
    outer loop
      vertex 14.076538 4.045951 0.000000
      vertex 15.923462 4.045951 0.000000
      vertex 14.076538 4.045951 5.000000
    endloop
  endfacet
  facet normal 0.433884 -0.900969 0.000000
    outer loop
      vertex 14.076538 4.045951 0.000000
      vertex 14.076538 4.045951 5.000000
      vertex 12.412517 3.244601 5.000000
    endloop
  endfacet
  facet normal 0.433884 -0.900969 0.000000
    outer loop
      vertex 12.412517 3.244601 0.000000
      vertex 14.076538 4.045951 0.000000
      vertex 12.412517 3.244601 5.000000
    endloop
  endfacet
  facet normal 0.781831 -0.623490 0.000000
    outer loop
      vertex 12.412517 3.244601 0.000000
      vertex 12.412517 3.244601 5.000000
      vertex 11.260979 1.800618 5.000000
    endloop
  endfacet
  facet normal 0.781831 -0.623490 0.000000
    outer loop
      vertex 11.260979 1.800618 0.000000
      vertex 12.412517 3.244601 0.000000
      vertex 11.260979 1.800618 5.000000
    endloop
  endfacet
  facet normal 0.974928 -0.222521 0.000000
    outer loop
      vertex 11.260979 1.800618 0.000000
      vertex 11.260979 1.800618 5.000000
      vertex 10.850000 0.000000 5.000000
    endloop
  endfacet
  facet normal 0.974928 -0.222521 0.000000
    outer loop
      vertex 10.850000 0.000000 0.000000
      vertex 11.260979 1.800618 0.000000
      vertex 10.850000 0.000000 5.000000
    endloop
  endfacet
  facet normal 0.000000 -0.000000 -1.000000
    outer loop
      vertex 0.923462 19.045951 0.000000
      vertex -9.567086 23.096988 0.000000
      vertex 9.567086 23.096989 0.000000
    endloop
  endfacet
  facet normal 0.000000 0.000000 -1.000000
    outer loop
      vertex 2.587483 3.244601 0.000000
      vertex 9.567086 23.096989 0.000000
      vertex 23.096988 9.567086 0.000000
    endloop
  endfacet
  facet normal -0.000000 0.000000 -1.000000
    outer loop
      vertex 18.739021 -1.800618 0.000000
      vertex 23.096988 9.567086 0.000000
      vertex 23.096989 -9.567086 0.000000
    endloop
  endfacet
  facet normal -0.000000 0.000000 -1.000000
    outer loop
      vertex 2.587483 -18.244601 0.000000
      vertex 23.096989 -9.567086 0.000000
      vertex 9.567086 -23.096988 0.000000
    endloop
  endfacet
  facet normal 0.000000 0.000000 -1.000000
    outer loop
      vertex -0.923462 -19.045951 0.000000
      vertex 9.567086 -23.096988 0.000000
      vertex -9.567086 -23.096989 0.000000
    endloop
  endfacet
  facet normal 0.000000 0.000000 -1.000000
    outer loop
      vertex -2.587483 -18.244601 0.000000
      vertex -23.096988 -9.567086 0.000000
      vertex -3.739021 -16.800618 0.000000
    endloop
  endfacet
  facet normal 0.000000 0.000000 -1.000000
    outer loop
      vertex -23.096989 9.567086 0.000000
      vertex -19.150000 0.000000 0.000000
      vertex -23.096988 -9.567086 0.000000
    endloop
  endfacet
  facet normal 0.000000 0.000000 -1.000000
    outer loop
      vertex -18.739021 1.800618 0.000000
      vertex -9.567086 23.096988 0.000000
      vertex -17.587483 3.244601 0.000000
    endloop
  endfacet
  facet normal 0.000000 0.000000 -1.000000
    outer loop
      vertex -23.096988 -9.567086 0.000000
      vertex -18.739021 -1.800618 0.000000
      vertex -17.587483 -3.244601 0.000000
    endloop
  endfacet
  facet normal 0.000000 0.000000 -1.000000
    outer loop
      vertex -23.096988 -9.567086 0.000000
      vertex -15.923462 -4.045951 0.000000
      vertex -14.076538 -4.045951 0.000000
    endloop
  endfacet
  facet normal -0.000000 0.000000 -1.000000
    outer loop
      vertex 2.587483 18.244601 0.000000
      vertex 9.567086 23.096989 0.000000
      vertex 3.739021 16.800618 0.000000
    endloop
  endfacet
  facet normal -0.000000 0.000000 -1.000000
    outer loop
      vertex -11.260979 -1.800618 0.000000
      vertex -4.150000 0.000000 0.000000
      vertex -12.412517 -3.244601 0.000000
    endloop
  endfacet
  facet normal 0.000000 0.000000 -1.000000
    outer loop
      vertex -3.739021 -1.800618 0.000000
      vertex -23.096988 -9.567086 0.000000
      vertex -14.076538 -4.045951 0.000000
    endloop
  endfacet
  facet normal 0.000000 0.000000 -1.000000
    outer loop
      vertex -0.923462 10.954049 0.000000
      vertex -10.850000 0.000000 0.000000
      vertex -11.260979 1.800618 0.000000
    endloop
  endfacet
  facet normal -0.000000 0.000000 -1.000000
    outer loop
      vertex -15.923462 4.045951 0.000000
      vertex -9.567086 23.096988 0.000000
      vertex -14.076538 4.045951 0.000000
    endloop
  endfacet
  facet normal 0.000000 0.000000 -1.000000
    outer loop
      vertex -17.587483 3.244601 0.000000
      vertex -9.567086 23.096988 0.000000
      vertex -15.923462 4.045951 0.000000
    endloop
  endfacet
  facet normal 0.000000 0.000000 -1.000000
    outer loop
      vertex -15.923462 -4.045951 0.000000
      vertex -23.096988 -9.567086 0.000000
      vertex -17.587483 -3.244601 0.000000
    endloop
  endfacet
  facet normal -0.000000 0.000000 -1.000000
    outer loop
      vertex -23.096989 9.567086 0.000000
      vertex -9.567086 23.096988 0.000000
      vertex -18.739021 1.800618 0.000000
    endloop
  endfacet
  facet normal 0.000000 0.000000 -1.000000
    outer loop
      vertex -23.096989 9.567086 0.000000
      vertex -18.739021 1.800618 0.000000
      vertex -19.150000 0.000000 0.000000
    endloop
  endfacet
  facet normal 0.000000 -0.000000 -1.000000
    outer loop
      vertex -2.587483 -11.755399 0.000000
      vertex -23.096988 -9.567086 0.000000
      vertex -0.923462 -10.954049 0.000000
    endloop
  endfacet
  facet normal 0.000000 0.000000 -1.000000
    outer loop
      vertex -23.096988 -9.567086 0.000000
      vertex -4.150000 -15.000000 0.000000
      vertex -3.739021 -16.800618 0.000000
    endloop
  endfacet
  facet normal 0.000000 0.000000 -1.000000
    outer loop
      vertex 0.923462 -19.045951 0.000000
      vertex 9.567086 -23.096988 0.000000
      vertex -0.923462 -19.045951 0.000000
    endloop
  endfacet
  facet normal 0.000000 0.000000 -1.000000
    outer loop
      vertex -23.096988 -9.567086 0.000000
      vertex -2.587483 -18.244601 0.000000
      vertex -9.567086 -23.096989 0.000000
    endloop
  endfacet
  facet normal 0.000000 0.000000 -1.000000
    outer loop
      vertex -2.587483 -18.244601 0.000000
      vertex -0.923462 -19.045951 0.000000
      vertex -9.567086 -23.096989 0.000000
    endloop
  endfacet
  facet normal -0.000000 0.000000 -1.000000
    outer loop
      vertex 3.739021 -16.800618 0.000000
      vertex 23.096989 -9.567086 0.000000
      vertex 2.587483 -18.244601 0.000000
    endloop
  endfacet
  facet normal -0.000000 0.000000 -1.000000
    outer loop
      vertex 3.739021 -13.199382 0.000000
      vertex 23.096989 -9.567086 0.000000
      vertex 4.150000 -15.000000 0.000000
    endloop
  endfacet
  facet normal -0.000000 0.000000 -1.000000
    outer loop
      vertex 4.150000 -15.000000 0.000000
      vertex 23.096989 -9.567086 0.000000
      vertex 3.739021 -16.800618 0.000000
    endloop
  endfacet
  facet normal -0.000000 0.000000 -1.000000
    outer loop
      vertex 2.587483 -11.755399 0.000000
      vertex 23.096989 -9.567086 0.000000
      vertex 3.739021 -13.199382 0.000000
    endloop
  endfacet
  facet normal -0.000000 0.000000 -1.000000
    outer loop
      vertex 0.923462 -10.954049 0.000000
      vertex 23.096989 -9.567086 0.000000
      vertex 2.587483 -11.755399 0.000000
    endloop
  endfacet
  facet normal 0.000000 0.000000 -1.000000
    outer loop
      vertex -23.096988 -9.567086 0.000000
      vertex 23.096989 -9.567086 0.000000
      vertex 0.923462 -10.954049 0.000000
    endloop
  endfacet
  facet normal 0.000000 0.000000 -1.000000
    outer loop
      vertex -23.096988 -9.567086 0.000000
      vertex 0.923462 -10.954049 0.000000
      vertex -0.923462 -10.954049 0.000000
    endloop
  endfacet
  facet normal 0.000000 -0.000000 -1.000000
    outer loop
      vertex -3.739021 -13.199382 0.000000
      vertex -23.096988 -9.567086 0.000000
      vertex -2.587483 -11.755399 0.000000
    endloop
  endfacet
  facet normal 0.000000 -0.000000 -1.000000
    outer loop
      vertex -3.739021 1.800618 0.000000
      vertex -11.260979 -1.800618 0.000000
      vertex -2.587483 3.244601 0.000000
    endloop
  endfacet
  facet normal 0.000000 -0.000000 -1.000000
    outer loop
      vertex -4.150000 0.000000 0.000000
      vertex -11.260979 -1.800618 0.000000
      vertex -3.739021 1.800618 0.000000
    endloop
  endfacet
  facet normal 0.000000 0.000000 -1.000000
    outer loop
      vertex -23.096988 -9.567086 0.000000
      vertex -3.739021 -13.199382 0.000000
      vertex -4.150000 -15.000000 0.000000
    endloop
  endfacet
  facet normal 0.000000 0.000000 -1.000000
    outer loop
      vertex 0.923462 -4.045951 0.000000
      vertex 23.096989 -9.567086 0.000000
      vertex -0.923462 -4.045951 0.000000
    endloop
  endfacet
  facet normal 0.000000 0.000000 -1.000000
    outer loop
      vertex -23.096988 -9.567086 0.000000
      vertex -3.739021 -1.800618 0.000000
      vertex -2.587483 -3.244601 0.000000
    endloop
  endfacet
  facet normal 0.000000 0.000000 -1.000000
    outer loop
      vertex -23.096988 -9.567086 0.000000
      vertex -2.587483 -3.244601 0.000000
      vertex -0.923462 -4.045951 0.000000
    endloop
  endfacet
  facet normal -0.000000 0.000000 -1.000000
    outer loop
      vertex -23.096988 -9.567086 0.000000
      vertex -0.923462 -4.045951 0.000000
      vertex 23.096989 -9.567086 0.000000
    endloop
  endfacet
  facet normal 0.000000 0.000000 -1.000000
    outer loop
      vertex 2.587483 -3.244601 0.000000
      vertex 23.096989 -9.567086 0.000000
      vertex 0.923462 -4.045951 0.000000
    endloop
  endfacet
  facet normal 0.000000 0.000000 -1.000000
    outer loop
      vertex 11.260979 1.800618 0.000000
      vertex 2.587483 -3.244601 0.000000
      vertex 3.739021 -1.800618 0.000000
    endloop
  endfacet
  facet normal -0.000000 0.000000 -1.000000
    outer loop
      vertex 3.739021 1.800618 0.000000
      vertex 23.096988 9.567086 0.000000
      vertex 4.150000 0.000000 0.000000
    endloop
  endfacet
  facet normal -0.000000 0.000000 -1.000000
    outer loop
      vertex 4.150000 0.000000 0.000000
      vertex 23.096988 9.567086 0.000000
      vertex 3.739021 -1.800618 0.000000
    endloop
  endfacet
  facet normal -0.000000 0.000000 -1.000000
    outer loop
      vertex 0.923462 4.045951 0.000000
      vertex 9.567086 23.096989 0.000000
      vertex 2.587483 3.244601 0.000000
    endloop
  endfacet
  facet normal 0.000000 0.000000 -1.000000
    outer loop
      vertex -3.739021 -1.800618 0.000000
      vertex -14.076538 -4.045951 0.000000
      vertex -12.412517 -3.244601 0.000000
    endloop
  endfacet
  facet normal -0.000000 0.000000 -1.000000
    outer loop
      vertex -0.923462 4.045951 0.000000
      vertex 9.567086 23.096989 0.000000
      vertex 0.923462 4.045951 0.000000
    endloop
  endfacet
  facet normal -0.000000 0.000000 -1.000000
    outer loop
      vertex 3.739021 13.199382 0.000000
      vertex 9.567086 23.096989 0.000000
      vertex -0.923462 4.045951 0.000000
    endloop
  endfacet
  facet normal 0.000000 0.000000 -1.000000
    outer loop
      vertex -2.587483 11.755399 0.000000
      vertex -14.076538 4.045951 0.000000
      vertex -3.739021 13.199382 0.000000
    endloop
  endfacet
  facet normal 0.000000 0.000000 -1.000000
    outer loop
      vertex -2.587483 11.755399 0.000000
      vertex -12.412517 3.244601 0.000000
      vertex -14.076538 4.045951 0.000000
    endloop
  endfacet
  facet normal 0.000000 0.000000 -1.000000
    outer loop
      vertex -3.739021 -1.800618 0.000000
      vertex -12.412517 -3.244601 0.000000
      vertex -4.150000 0.000000 0.000000
    endloop
  endfacet
  facet normal 0.000000 0.000000 -1.000000
    outer loop
      vertex -14.076538 4.045951 0.000000
      vertex -9.567086 23.096988 0.000000
      vertex -4.150000 15.000000 0.000000
    endloop
  endfacet
  facet normal 0.000000 0.000000 -1.000000
    outer loop
      vertex -14.076538 4.045951 0.000000
      vertex -4.150000 15.000000 0.000000
      vertex -3.739021 13.199382 0.000000
    endloop
  endfacet
  facet normal 0.000000 0.000000 -1.000000
    outer loop
      vertex -0.923462 10.954049 0.000000
      vertex -11.260979 1.800618 0.000000
      vertex -2.587483 11.755399 0.000000
    endloop
  endfacet
  facet normal 0.000000 0.000000 -1.000000
    outer loop
      vertex 0.923462 10.954049 0.000000
      vertex -11.260979 -1.800618 0.000000
      vertex -0.923462 10.954049 0.000000
    endloop
  endfacet
  facet normal -0.000000 0.000000 -1.000000
    outer loop
      vertex -10.850000 0.000000 0.000000
      vertex -0.923462 10.954049 0.000000
      vertex -11.260979 -1.800618 0.000000
    endloop
  endfacet
  facet normal 0.000000 0.000000 -1.000000
    outer loop
      vertex 3.739021 13.199382 0.000000
      vertex -2.587483 3.244601 0.000000
      vertex 2.587483 11.755399 0.000000
    endloop
  endfacet
  facet normal 0.000000 0.000000 -1.000000
    outer loop
      vertex -11.260979 -1.800618 0.000000
      vertex 0.923462 10.954049 0.000000
      vertex -2.587483 3.244601 0.000000
    endloop
  endfacet
  facet normal -0.000000 0.000000 -1.000000
    outer loop
      vertex 3.739021 16.800618 0.000000
      vertex 9.567086 23.096989 0.000000
      vertex 4.150000 15.000000 0.000000
    endloop
  endfacet
  facet normal -0.000000 0.000000 -1.000000
    outer loop
      vertex 0.923462 10.954049 0.000000
      vertex 2.587483 11.755399 0.000000
      vertex -2.587483 3.244601 0.000000
    endloop
  endfacet
  facet normal -0.000000 0.000000 -1.000000
    outer loop
      vertex 4.150000 15.000000 0.000000
      vertex 9.567086 23.096989 0.000000
      vertex 3.739021 13.199382 0.000000
    endloop
  endfacet
  facet normal 0.000000 0.000000 -1.000000
    outer loop
      vertex -2.587483 3.244601 0.000000
      vertex 3.739021 13.199382 0.000000
      vertex -0.923462 4.045951 0.000000
    endloop
  endfacet
  facet normal -0.000000 0.000000 -1.000000
    outer loop
      vertex -12.412517 3.244601 0.000000
      vertex -2.587483 11.755399 0.000000
      vertex -11.260979 1.800618 0.000000
    endloop
  endfacet
  facet normal -0.000000 0.000000 -1.000000
    outer loop
      vertex 0.923462 19.045951 0.000000
      vertex 9.567086 23.096989 0.000000
      vertex 2.587483 18.244601 0.000000
    endloop
  endfacet
  facet normal -0.000000 -0.000000 -1.000000
    outer loop
      vertex -0.923462 19.045951 0.000000
      vertex -9.567086 23.096988 0.000000
      vertex 0.923462 19.045951 0.000000
    endloop
  endfacet
  facet normal 0.000000 -0.000000 -1.000000
    outer loop
      vertex 10.850000 0.000000 0.000000
      vertex 2.587483 -3.244601 0.000000
      vertex 11.260979 1.800618 0.000000
    endloop
  endfacet
  facet normal 0.000000 -0.000000 -1.000000
    outer loop
      vertex -2.587483 18.244601 0.000000
      vertex -9.567086 23.096988 0.000000
      vertex -0.923462 19.045951 0.000000
    endloop
  endfacet
  facet normal 0.000000 -0.000000 -1.000000
    outer loop
      vertex -3.739021 16.800618 0.000000
      vertex -9.567086 23.096988 0.000000
      vertex -2.587483 18.244601 0.000000
    endloop
  endfacet
  facet normal 0.000000 -0.000000 -1.000000
    outer loop
      vertex -4.150000 15.000000 0.000000
      vertex -9.567086 23.096988 0.000000
      vertex -3.739021 16.800618 0.000000
    endloop
  endfacet
  facet normal -0.000000 0.000000 -1.000000
    outer loop
      vertex 14.076538 4.045951 0.000000
      vertex 23.096988 9.567086 0.000000
      vertex 15.923462 4.045951 0.000000
    endloop
  endfacet
  facet normal 0.000000 0.000000 -1.000000
    outer loop
      vertex 2.587483 -3.244601 0.000000
      vertex 10.850000 0.000000 0.000000
      vertex 11.260979 -1.800618 0.000000
    endloop
  endfacet
  facet normal -0.000000 0.000000 -1.000000
    outer loop
      vertex 2.587483 -3.244601 0.000000
      vertex 11.260979 -1.800618 0.000000
      vertex 12.412517 -3.244601 0.000000
    endloop
  endfacet
  facet normal 0.000000 0.000000 -1.000000
    outer loop
      vertex 2.587483 -3.244601 0.000000
      vertex 12.412517 -3.244601 0.000000
      vertex 23.096989 -9.567086 0.000000
    endloop
  endfacet
  facet normal 0.000000 0.000000 -1.000000
    outer loop
      vertex 12.412517 -3.244601 0.000000
      vertex 14.076538 -4.045951 0.000000
      vertex 23.096989 -9.567086 0.000000
    endloop
  endfacet
  facet normal 0.000000 0.000000 -1.000000
    outer loop
      vertex 17.587483 -3.244601 0.000000
      vertex 23.096989 -9.567086 0.000000
      vertex 15.923462 -4.045951 0.000000
    endloop
  endfacet
  facet normal -0.000000 0.000000 -1.000000
    outer loop
      vertex 15.923462 4.045951 0.000000
      vertex 23.096988 9.567086 0.000000
      vertex 17.587483 3.244601 0.000000
    endloop
  endfacet
  facet normal -0.000000 0.000000 -1.000000
    outer loop
      vertex 18.739021 1.800618 0.000000
      vertex 23.096988 9.567086 0.000000
      vertex 19.150000 0.000000 0.000000
    endloop
  endfacet
  facet normal -0.000000 0.000000 -1.000000
    outer loop
      vertex 19.150000 0.000000 0.000000
      vertex 23.096988 9.567086 0.000000
      vertex 18.739021 -1.800618 0.000000
    endloop
  endfacet
  facet normal -0.000000 0.000000 -1.000000
    outer loop
      vertex 17.587483 -3.244601 0.000000
      vertex 18.739021 -1.800618 0.000000
      vertex 23.096989 -9.567086 0.000000
    endloop
  endfacet
  facet normal -0.000000 0.000000 -1.000000
    outer loop
      vertex 17.587483 3.244601 0.000000
      vertex 23.096988 9.567086 0.000000
      vertex 18.739021 1.800618 0.000000
    endloop
  endfacet
  facet normal 0.000000 0.000000 -1.000000
    outer loop
      vertex 15.923462 -4.045951 0.000000
      vertex 23.096989 -9.567086 0.000000
      vertex 14.076538 -4.045951 0.000000
    endloop
  endfacet
  facet normal 0.000000 0.000000 -1.000000
    outer loop
      vertex 12.412517 3.244601 0.000000
      vertex 23.096988 9.567086 0.000000
      vertex 14.076538 4.045951 0.000000
    endloop
  endfacet
  facet normal 0.000000 0.000000 -1.000000
    outer loop
      vertex 3.739021 -1.800618 0.000000
      vertex 23.096988 9.567086 0.000000
      vertex 12.412517 3.244601 0.000000
    endloop
  endfacet
  facet normal 0.000000 -0.000000 -1.000000
    outer loop
      vertex 11.260979 1.800618 0.000000
      vertex 3.739021 -1.800618 0.000000
      vertex 12.412517 3.244601 0.000000
    endloop
  endfacet
  facet normal 0.000000 0.000000 -1.000000
    outer loop
      vertex -18.739021 -1.800618 0.000000
      vertex -23.096988 -9.567086 0.000000
      vertex -19.150000 0.000000 0.000000
    endloop
  endfacet
  facet normal 0.000000 0.000000 -1.000000
    outer loop
      vertex 2.587483 -18.244601 0.000000
      vertex 9.567086 -23.096988 0.000000
      vertex 0.923462 -19.045951 0.000000
    endloop
  endfacet
  facet normal -0.000000 0.000000 -1.000000
    outer loop
      vertex 2.587483 3.244601 0.000000
      vertex 23.096988 9.567086 0.000000
      vertex 3.739021 1.800618 0.000000
    endloop
  endfacet
  facet normal 0.000000 -0.000000 -1.000000
    outer loop
      vertex -21.366211 17.830677 0.000000
      vertex -17.830677 21.366211 0.000000
      vertex -18.099804 14.564270 0.000000
    endloop
  endfacet
  facet normal 0.000000 -0.000000 -1.000000
    outer loop
      vertex -18.099804 14.564270 0.000000
      vertex -17.830677 21.366211 0.000000
      vertex -14.564270 18.099804 0.000000
    endloop
  endfacet
  facet normal -0.000000 -0.000000 -1.000000
    outer loop
      vertex -2.500000 23.096989 0.000000
      vertex -2.500000 27.716386 0.000000
      vertex 2.500000 23.096989 0.000000
    endloop
  endfacet
  facet normal 0.000000 -0.000000 -1.000000
    outer loop
      vertex 2.500000 23.096989 0.000000
      vertex -2.500000 27.716386 0.000000
      vertex 2.500000 27.716386 0.000000
    endloop
  endfacet
  facet normal 0.000000 0.000000 -1.000000
    outer loop
      vertex 14.564270 18.099804 0.000000
      vertex 17.830677 21.366211 0.000000
      vertex 18.099804 14.564270 0.000000
    endloop
  endfacet
  facet normal 0.000000 0.000000 -1.000000
    outer loop
      vertex 18.099804 14.564270 0.000000
      vertex 17.830677 21.366211 0.000000
      vertex 21.366211 17.830677 0.000000
    endloop
  endfacet
  facet normal 0.000000 -0.000000 -1.000000
    outer loop
      vertex 23.096989 2.500000 0.000000
      vertex 27.716386 2.500000 0.000000
      vertex 23.096989 -2.500000 0.000000
    endloop
  endfacet
  facet normal 0.000000 0.000000 -1.000000
    outer loop
      vertex 23.096989 -2.500000 0.000000
      vertex 27.716386 2.500000 0.000000
      vertex 27.716386 -2.500000 0.000000
    endloop
  endfacet
  facet normal 0.000000 -0.000000 -1.000000
    outer loop
      vertex 14.564270 -18.099804 0.000000
      vertex 18.099804 -14.564270 0.000000
      vertex 17.830677 -21.366211 0.000000
    endloop
  endfacet
  facet normal 0.000000 -0.000000 -1.000000
    outer loop
      vertex 17.830677 -21.366211 0.000000
      vertex 18.099804 -14.564270 0.000000
      vertex 21.366211 -17.830677 0.000000
    endloop
  endfacet
  facet normal 0.000000 -0.000000 -1.000000
    outer loop
      vertex -2.500000 -27.716386 0.000000
      vertex -2.500000 -23.096989 0.000000
      vertex 2.500000 -27.716386 0.000000
    endloop
  endfacet
  facet normal -0.000000 -0.000000 -1.000000
    outer loop
      vertex 2.500000 -27.716386 0.000000
      vertex -2.500000 -23.096989 0.000000
      vertex 2.500000 -23.096989 0.000000
    endloop
  endfacet
  facet normal 0.000000 0.000000 -1.000000
    outer loop
      vertex -21.366211 -17.830677 0.000000
      vertex -18.099804 -14.564270 0.000000
      vertex -17.830677 -21.366211 0.000000
    endloop
  endfacet
  facet normal 0.000000 0.000000 -1.000000
    outer loop
      vertex -17.830677 -21.366211 0.000000
      vertex -18.099804 -14.564270 0.000000
      vertex -14.564270 -18.099804 0.000000
    endloop
  endfacet
endsolid OpenSCAD_Model
