solid OpenSCAD_Model
  facet normal -0 0 -1
    outer loop
      vertex -16 0 0
      vertex -15.6504 3.32659 0
      vertex -15.6504 -3.32659 0
    endloop
  endfacet
  facet normal 0 -0 -1
    outer loop
      vertex -15.6504 -3.32659 0
      vertex -15.6504 3.32659 0
      vertex -14.6167 6.50779 0
    endloop
  endfacet
  facet normal 0 0 -1
    outer loop
      vertex -15.6504 -3.32659 0
      vertex -14.6167 6.50779 0
      vertex -12.9443 9.40456 0
    endloop
  endfacet
  facet normal 0 0 -1
    outer loop
      vertex -15.6504 -3.32659 0
      vertex -12.9443 9.40456 0
      vertex -10.7061 11.8903 0
    endloop
  endfacet
  facet normal 0 0 -1
    outer loop
      vertex -15.6504 -3.32659 0
      vertex -10.7061 11.8903 0
      vertex -8 13.8564 0
    endloop
  endfacet
  facet normal 0 0 -1
    outer loop
      vertex -15.6504 -3.32659 0
      vertex -8 13.8564 0
      vertex -4.94427 15.2169 0
    endloop
  endfacet
  facet normal 0 0 -1
    outer loop
      vertex -15.6504 -3.32659 0
      vertex -4.94427 15.2169 0
      vertex -1.67246 15.9123 0
    endloop
  endfacet
  facet normal 0 0 -1
    outer loop
      vertex -15.6504 -3.32659 0
      vertex -1.67246 15.9123 0
      vertex 1.67246 15.9123 0
    endloop
  endfacet
  facet normal 0 0 -1
    outer loop
      vertex -15.6504 -3.32659 0
      vertex 1.67246 15.9123 0
      vertex 4.94427 15.2169 0
    endloop
  endfacet
  facet normal 0 0 -1
    outer loop
      vertex -15.6504 -3.32659 0
      vertex 4.94427 15.2169 0
      vertex 8 13.8564 0
    endloop
  endfacet
  facet normal 0 0 -1
    outer loop
      vertex -15.6504 -3.32659 0
      vertex 8 13.8564 0
      vertex 10.7061 11.8903 0
    endloop
  endfacet
  facet normal 0 0 -1
    outer loop
      vertex -15.6504 -3.32659 0
      vertex 10.7061 11.8903 0
      vertex 12.9443 9.40456 0
    endloop
  endfacet
  facet normal 0 0 -1
    outer loop
      vertex 0.46885 2.65898 0
      vertex 12.9443 9.40456 0
      vertex 14.6167 6.50779 0
    endloop
  endfacet
  facet normal 0 0 -1
    outer loop
      vertex 2.06832 1.73553 0
      vertex 14.6167 6.50779 0
      vertex 15.6504 3.32659 0
    endloop
  endfacet
  facet normal -0 0 -1
    outer loop
      vertex 2.7 0 0
      vertex 15.6504 3.32659 0
      vertex 16 0 0
    endloop
  endfacet
  facet normal -0 0 -1
    outer loop
      vertex 5.9397 -2.05061 0
      vertex 16 0 0
      vertex 15.6504 -3.32659 0
    endloop
  endfacet
  facet normal -0 0 -1
    outer loop
      vertex 9.54594 -5.3033 0
      vertex 15.6504 -3.32659 0
      vertex 14.6167 -6.50779 0
    endloop
  endfacet
  facet normal 0 0 -1
    outer loop
      vertex 5.3033 -9.54594 0
      vertex -15.6504 -3.32659 0
      vertex 2.05061 -5.9397 0
    endloop
  endfacet
  facet normal 0 -0 -1
    outer loop
      vertex -2.53717 0.923454 0
      vertex -15.6504 -3.32659 0
      vertex -1.35 2.33827 0
    endloop
  endfacet
  facet normal 0 0 -1
    outer loop
      vertex -15.6504 -3.32659 0
      vertex 5.3033 -9.54594 0
      vertex 8.93468 -13.1773 0
    endloop
  endfacet
  facet normal 0 0 -1
    outer loop
      vertex -15.6504 -3.32659 0
      vertex 8.93468 -13.1773 0
      vertex 8 -13.8564 0
    endloop
  endfacet
  facet normal 0 0 -1
    outer loop
      vertex -15.6504 -3.32659 0
      vertex 8 -13.8564 0
      vertex 4.94427 -15.2169 0
    endloop
  endfacet
  facet normal 0 0 -1
    outer loop
      vertex -15.6504 -3.32659 0
      vertex 4.94427 -15.2169 0
      vertex 1.67246 -15.9123 0
    endloop
  endfacet
  facet normal 0 0 -1
    outer loop
      vertex -15.6504 -3.32659 0
      vertex 1.67246 -15.9123 0
      vertex -1.67246 -15.9123 0
    endloop
  endfacet
  facet normal 0 0 -1
    outer loop
      vertex -15.6504 -3.32659 0
      vertex -1.67246 -15.9123 0
      vertex -4.94427 -15.2169 0
    endloop
  endfacet
  facet normal 0 0 -1
    outer loop
      vertex -15.6504 -3.32659 0
      vertex -4.94427 -15.2169 0
      vertex -8 -13.8564 0
    endloop
  endfacet
  facet normal 0 0 -1
    outer loop
      vertex -15.6504 -3.32659 0
      vertex -8 -13.8564 0
      vertex -10.7061 -11.8903 0
    endloop
  endfacet
  facet normal 0 0 -1
    outer loop
      vertex -15.6504 -3.32659 0
      vertex -10.7061 -11.8903 0
      vertex -12.9443 -9.40456 0
    endloop
  endfacet
  facet normal 0 0 -1
    outer loop
      vertex -15.6504 -3.32659 0
      vertex -12.9443 -9.40456 0
      vertex -14.6167 -6.50779 0
    endloop
  endfacet
  facet normal 0 0 -1
    outer loop
      vertex -2.53717 -0.923454 0
      vertex -15.6504 -3.32659 0
      vertex -2.53717 0.923454 0
    endloop
  endfacet
  facet normal 0 0 -1
    outer loop
      vertex -1.35 -2.33827 0
      vertex -15.6504 -3.32659 0
      vertex -2.53717 -0.923454 0
    endloop
  endfacet
  facet normal -0 0 -1
    outer loop
      vertex 4.31335 -0.424264 0
      vertex 16 0 0
      vertex 5.9397 -2.05061 0
    endloop
  endfacet
  facet normal 0 0 -1
    outer loop
      vertex -15.6504 -3.32659 0
      vertex -1.35 -2.33827 0
      vertex 0.46885 -2.65898 0
    endloop
  endfacet
  facet normal 0 0 -1
    outer loop
      vertex 0.424264 -4.31335 0
      vertex 2.06832 -1.73553 0
      vertex 4.31335 -0.424264 0
    endloop
  endfacet
  facet normal 0 -0 -1
    outer loop
      vertex 4.31335 -0.424264 0
      vertex 2.7 0 0
      vertex 16 0 0
    endloop
  endfacet
  facet normal 0 0 -1
    outer loop
      vertex 0.424264 -4.31335 0
      vertex 0.46885 -2.65898 0
      vertex 2.06832 -1.73553 0
    endloop
  endfacet
  facet normal -0 0 -1
    outer loop
      vertex 0.46885 2.65898 0
      vertex 14.6167 6.50779 0
      vertex 2.06832 1.73553 0
    endloop
  endfacet
  facet normal 0 0 -1
    outer loop
      vertex -1.35 2.33827 0
      vertex 12.9443 9.40456 0
      vertex 0.46885 2.65898 0
    endloop
  endfacet
  facet normal 0 0 -1
    outer loop
      vertex -15.6504 -3.32659 0
      vertex 12.9443 9.40456 0
      vertex -1.35 2.33827 0
    endloop
  endfacet
  facet normal 0 0 -1
    outer loop
      vertex 2.05061 -5.9397 0
      vertex -15.6504 -3.32659 0
      vertex 0.424264 -4.31335 0
    endloop
  endfacet
  facet normal 0 0 -1
    outer loop
      vertex 5.9397 -2.05061 0
      vertex 9.54594 -5.3033 0
      vertex 2.05061 -5.9397 0
    endloop
  endfacet
  facet normal 0 -0 -1
    outer loop
      vertex 5.3033 -9.54594 0
      vertex 2.05061 -5.9397 0
      vertex 9.54594 -5.3033 0
    endloop
  endfacet
  facet normal 0 -0 -1
    outer loop
      vertex 0.424264 -4.31335 0
      vertex -15.6504 -3.32659 0
      vertex 0.46885 -2.65898 0
    endloop
  endfacet
  facet normal 0 0 -1
    outer loop
      vertex 2.7 0 0
      vertex 4.31335 -0.424264 0
      vertex 2.06832 -1.73553 0
    endloop
  endfacet
  facet normal -0 0 -1
    outer loop
      vertex 2.06832 1.73553 0
      vertex 15.6504 3.32659 0
      vertex 2.7 0 0
    endloop
  endfacet
  facet normal 0 0 -1
    outer loop
      vertex 9.54594 -5.3033 0
      vertex 14.6167 -6.50779 0
      vertex 13.2016 -8.95892 0
    endloop
  endfacet
  facet normal 0 0 -1
    outer loop
      vertex 5.9397 -2.05061 0
      vertex 15.6504 -3.32659 0
      vertex 9.54594 -5.3033 0
    endloop
  endfacet
  facet normal -0.994522 0.104528 0
    outer loop
      vertex -16 0 0
      vertex -16 0 5.5
      vertex -15.6504 3.32659 0
    endloop
  endfacet
  facet normal -0.994522 0.104528 0
    outer loop
      vertex -15.6504 3.32659 0
      vertex -16 0 5.5
      vertex -15.6504 3.32659 5.5
    endloop
  endfacet
  facet normal -0.994522 -0.104528 -0
    outer loop
      vertex -16 0 0
      vertex -15.6504 -3.32659 0
      vertex -16 0 5.5
    endloop
  endfacet
  facet normal -0.994522 -0.104528 0
    outer loop
      vertex -16 0 5.5
      vertex -15.6504 -3.32659 0
      vertex -15.6504 -3.32659 5.5
    endloop
  endfacet
  facet normal -0.951056 -0.309017 -0
    outer loop
      vertex -15.6504 -3.32659 0
      vertex -14.6167 -6.50779 0
      vertex -15.6504 -3.32659 5.5
    endloop
  endfacet
  facet normal -0.951056 -0.309017 0
    outer loop
      vertex -15.6504 -3.32659 5.5
      vertex -14.6167 -6.50779 0
      vertex -14.6167 -6.50779 5.5
    endloop
  endfacet
  facet normal -0.866025 -0.5 -0
    outer loop
      vertex -14.6167 -6.50779 0
      vertex -12.9443 -9.40456 0
      vertex -14.6167 -6.50779 5.5
    endloop
  endfacet
  facet normal -0.866025 -0.5 0
    outer loop
      vertex -14.6167 -6.50779 5.5
      vertex -12.9443 -9.40456 0
      vertex -12.9443 -9.40456 5.5
    endloop
  endfacet
  facet normal -0.743145 -0.669131 -0
    outer loop
      vertex -12.9443 -9.40456 0
      vertex -10.7061 -11.8903 0
      vertex -12.9443 -9.40456 5.5
    endloop
  endfacet
  facet normal -0.743145 -0.669131 0
    outer loop
      vertex -12.9443 -9.40456 5.5
      vertex -10.7061 -11.8903 0
      vertex -10.7061 -11.8903 5.5
    endloop
  endfacet
  facet normal -0.587785 -0.809017 0
    outer loop
      vertex -10.7061 -11.8903 5.5
      vertex -10.7061 -11.8903 0
      vertex -8 -13.8564 0
    endloop
  endfacet
  facet normal -0.587785 -0.809017 0
    outer loop
      vertex -8 -13.8564 5.5
      vertex -10.7061 -11.8903 5.5
      vertex -8 -13.8564 0
    endloop
  endfacet
  facet normal -0.406737 -0.913545 0
    outer loop
      vertex -8 -13.8564 5.5
      vertex -8 -13.8564 0
      vertex -4.94427 -15.2169 0
    endloop
  endfacet
  facet normal -0.406737 -0.913545 0
    outer loop
      vertex -4.94427 -15.2169 5.5
      vertex -8 -13.8564 5.5
      vertex -4.94427 -15.2169 0
    endloop
  endfacet
  facet normal -0.207912 -0.978148 0
    outer loop
      vertex -4.94427 -15.2169 5.5
      vertex -4.94427 -15.2169 0
      vertex -1.67246 -15.9123 0
    endloop
  endfacet
  facet normal -0.207912 -0.978148 0
    outer loop
      vertex -1.67246 -15.9123 5.5
      vertex -4.94427 -15.2169 5.5
      vertex -1.67246 -15.9123 0
    endloop
  endfacet
  facet normal 0 -1 0
    outer loop
      vertex -1.67246 -15.9123 5.5
      vertex -1.67246 -15.9123 0
      vertex 1.67246 -15.9123 0
    endloop
  endfacet
  facet normal 0 -1 0
    outer loop
      vertex 1.67246 -15.9123 5.5
      vertex -1.67246 -15.9123 5.5
      vertex 1.67246 -15.9123 0
    endloop
  endfacet
  facet normal 0.207912 -0.978148 0
    outer loop
      vertex 1.67246 -15.9123 5.5
      vertex 1.67246 -15.9123 0
      vertex 4.94427 -15.2169 0
    endloop
  endfacet
  facet normal 0.207912 -0.978148 0
    outer loop
      vertex 4.94427 -15.2169 5.5
      vertex 1.67246 -15.9123 5.5
      vertex 4.94427 -15.2169 0
    endloop
  endfacet
  facet normal 0.406737 -0.913545 0
    outer loop
      vertex 4.94427 -15.2169 5.5
      vertex 4.94427 -15.2169 0
      vertex 8 -13.8564 0
    endloop
  endfacet
  facet normal 0.406737 -0.913545 0
    outer loop
      vertex 8 -13.8564 5.5
      vertex 4.94427 -15.2169 5.5
      vertex 8 -13.8564 0
    endloop
  endfacet
  facet normal 0.587785 -0.809017 0
    outer loop
      vertex 8 -13.8564 5.5
      vertex 8 -13.8564 0
      vertex 8.93468 -13.1773 0
    endloop
  endfacet
  facet normal 0.587785 -0.809017 0
    outer loop
      vertex 8.93468 -13.1773 5.5
      vertex 8 -13.8564 5.5
      vertex 8.93468 -13.1773 0
    endloop
  endfacet
  facet normal 0.707107 0.707107 -0
    outer loop
      vertex 8.93468 -13.1773 5.5
      vertex 8.93468 -13.1773 0
      vertex 5.3033 -9.54594 5.5
    endloop
  endfacet
  facet normal 0.707107 0.707107 -0
    outer loop
      vertex 5.3033 -9.54594 5.5
      vertex 8.93468 -13.1773 0
      vertex 5.3033 -9.54594 0
    endloop
  endfacet
  facet normal 0.707107 -0.707107 6.34413e-16
    outer loop
      vertex 7.42462 -7.42462 4.45
      vertex 9.54594 -5.3033 5.5
      vertex 5.3033 -9.54594 5.5
    endloop
  endfacet
  facet normal 0.707107 -0.707107 0
    outer loop
      vertex 5.3033 -9.54594 0
      vertex 6.38359 -8.46565 3.6
      vertex 5.3033 -9.54594 5.5
    endloop
  endfacet
  facet normal 0.707107 -0.707107 -4.89264e-17
    outer loop
      vertex 8.46565 -6.38359 3.6
      vertex 9.54594 -5.3033 5.5
      vertex 7.42462 -7.42462 4.45
    endloop
  endfacet
  facet normal 0.707107 -0.707107 9.78527e-17
    outer loop
      vertex 8.46565 -6.38359 1.9
      vertex 7.42462 -7.42462 1.05
      vertex 9.54594 -5.3033 0
    endloop
  endfacet
  facet normal 0.707107 -0.707107 0
    outer loop
      vertex 9.54594 -5.3033 0
      vertex 9.54594 -5.3033 5.5
      vertex 8.46565 -6.38359 3.6
    endloop
  endfacet
  facet normal 0.707107 -0.707107 0
    outer loop
      vertex 8.46565 -6.38359 3.6
      vertex 8.46565 -6.38359 1.9
      vertex 9.54594 -5.3033 0
    endloop
  endfacet
  facet normal 0.707107 -0.707107 -6.34413e-16
    outer loop
      vertex 5.3033 -9.54594 0
      vertex 9.54594 -5.3033 0
      vertex 7.42462 -7.42462 1.05
    endloop
  endfacet
  facet normal 0.707107 -0.707107 0
    outer loop
      vertex 5.3033 -9.54594 0
      vertex 6.38359 -8.46565 1.9
      vertex 6.38359 -8.46565 3.6
    endloop
  endfacet
  facet normal 0.707107 -0.707107 4.87908e-16
    outer loop
      vertex 5.3033 -9.54594 0
      vertex 7.42462 -7.42462 1.05
      vertex 6.38359 -8.46565 1.9
    endloop
  endfacet
  facet normal 0.707107 -0.707107 -4.89264e-16
    outer loop
      vertex 6.38359 -8.46565 3.6
      vertex 7.42462 -7.42462 4.45
      vertex 5.3033 -9.54594 5.5
    endloop
  endfacet
  facet normal -0.707107 -0.707107 -0
    outer loop
      vertex 13.2016 -8.95892 0
      vertex 13.2016 -8.95892 5.5
      vertex 9.54594 -5.3033 5.5
    endloop
  endfacet
  facet normal -0.707107 -0.707107 -0
    outer loop
      vertex 9.54594 -5.3033 0
      vertex 13.2016 -8.95892 0
      vertex 9.54594 -5.3033 5.5
    endloop
  endfacet
  facet normal 0.866025 -0.5 0
    outer loop
      vertex 13.2016 -8.95892 5.5
      vertex 13.2016 -8.95892 0
      vertex 14.6167 -6.50779 0
    endloop
  endfacet
  facet normal 0.866025 -0.5 0
    outer loop
      vertex 14.6167 -6.50779 5.5
      vertex 13.2016 -8.95892 5.5
      vertex 14.6167 -6.50779 0
    endloop
  endfacet
  facet normal 0.951056 -0.309017 0
    outer loop
      vertex 14.6167 -6.50779 5.5
      vertex 14.6167 -6.50779 0
      vertex 15.6504 -3.32659 0
    endloop
  endfacet
  facet normal 0.951056 -0.309017 0
    outer loop
      vertex 15.6504 -3.32659 5.5
      vertex 14.6167 -6.50779 5.5
      vertex 15.6504 -3.32659 0
    endloop
  endfacet
  facet normal 0.994522 -0.104528 0
    outer loop
      vertex 15.6504 -3.32659 5.5
      vertex 15.6504 -3.32659 0
      vertex 16 0 0
    endloop
  endfacet
  facet normal 0.994522 -0.104528 0
    outer loop
      vertex 16 0 5.5
      vertex 15.6504 -3.32659 5.5
      vertex 16 0 0
    endloop
  endfacet
  facet normal 0.994522 0.104528 0
    outer loop
      vertex 16 0 0
      vertex 15.6504 3.32659 0
      vertex 15.6504 3.32659 5.5
    endloop
  endfacet
  facet normal 0.994522 0.104528 -0
    outer loop
      vertex 16 0 5.5
      vertex 16 0 0
      vertex 15.6504 3.32659 5.5
    endloop
  endfacet
  facet normal 0.951056 0.309017 0
    outer loop
      vertex 15.6504 3.32659 0
      vertex 14.6167 6.50779 0
      vertex 14.6167 6.50779 5.5
    endloop
  endfacet
  facet normal 0.951056 0.309017 -0
    outer loop
      vertex 15.6504 3.32659 5.5
      vertex 15.6504 3.32659 0
      vertex 14.6167 6.50779 5.5
    endloop
  endfacet
  facet normal 0.866025 0.5 0
    outer loop
      vertex 14.6167 6.50779 0
      vertex 12.9443 9.40456 0
      vertex 12.9443 9.40456 5.5
    endloop
  endfacet
  facet normal 0.866025 0.5 -0
    outer loop
      vertex 14.6167 6.50779 5.5
      vertex 14.6167 6.50779 0
      vertex 12.9443 9.40456 5.5
    endloop
  endfacet
  facet normal 0.743145 0.669131 0
    outer loop
      vertex 12.9443 9.40456 0
      vertex 10.7061 11.8903 0
      vertex 10.7061 11.8903 5.5
    endloop
  endfacet
  facet normal 0.743145 0.669131 -0
    outer loop
      vertex 12.9443 9.40456 5.5
      vertex 12.9443 9.40456 0
      vertex 10.7061 11.8903 5.5
    endloop
  endfacet
  facet normal 0.587785 0.809017 0
    outer loop
      vertex 8 13.8564 0
      vertex 8 13.8564 5.5
      vertex 10.7061 11.8903 0
    endloop
  endfacet
  facet normal 0.587785 0.809017 0
    outer loop
      vertex 10.7061 11.8903 0
      vertex 8 13.8564 5.5
      vertex 10.7061 11.8903 5.5
    endloop
  endfacet
  facet normal 0.406737 0.913545 0
    outer loop
      vertex 4.94427 15.2169 0
      vertex 4.94427 15.2169 5.5
      vertex 8 13.8564 0
    endloop
  endfacet
  facet normal 0.406737 0.913545 0
    outer loop
      vertex 8 13.8564 0
      vertex 4.94427 15.2169 5.5
      vertex 8 13.8564 5.5
    endloop
  endfacet
  facet normal 0.207912 0.978148 0
    outer loop
      vertex 1.67246 15.9123 0
      vertex 1.67246 15.9123 5.5
      vertex 4.94427 15.2169 0
    endloop
  endfacet
  facet normal 0.207912 0.978148 0
    outer loop
      vertex 4.94427 15.2169 0
      vertex 1.67246 15.9123 5.5
      vertex 4.94427 15.2169 5.5
    endloop
  endfacet
  facet normal 0 1 0
    outer loop
      vertex -1.67246 15.9123 0
      vertex -1.67246 15.9123 5.5
      vertex 1.67246 15.9123 0
    endloop
  endfacet
  facet normal 0 1 0
    outer loop
      vertex 1.67246 15.9123 0
      vertex -1.67246 15.9123 5.5
      vertex 1.67246 15.9123 5.5
    endloop
  endfacet
  facet normal -0.207912 0.978148 0
    outer loop
      vertex -4.94427 15.2169 0
      vertex -4.94427 15.2169 5.5
      vertex -1.67246 15.9123 0
    endloop
  endfacet
  facet normal -0.207912 0.978148 0
    outer loop
      vertex -1.67246 15.9123 0
      vertex -4.94427 15.2169 5.5
      vertex -1.67246 15.9123 5.5
    endloop
  endfacet
  facet normal -0.406737 0.913545 0
    outer loop
      vertex -8 13.8564 0
      vertex -8 13.8564 5.5
      vertex -4.94427 15.2169 0
    endloop
  endfacet
  facet normal -0.406737 0.913545 0
    outer loop
      vertex -4.94427 15.2169 0
      vertex -8 13.8564 5.5
      vertex -4.94427 15.2169 5.5
    endloop
  endfacet
  facet normal -0.587785 0.809017 0
    outer loop
      vertex -10.7061 11.8903 0
      vertex -10.7061 11.8903 5.5
      vertex -8 13.8564 0
    endloop
  endfacet
  facet normal -0.587785 0.809017 0
    outer loop
      vertex -8 13.8564 0
      vertex -10.7061 11.8903 5.5
      vertex -8 13.8564 5.5
    endloop
  endfacet
  facet normal -0.743145 0.669131 0
    outer loop
      vertex -12.9443 9.40456 0
      vertex -12.9443 9.40456 5.5
      vertex -10.7061 11.8903 0
    endloop
  endfacet
  facet normal -0.743145 0.669131 0
    outer loop
      vertex -10.7061 11.8903 0
      vertex -12.9443 9.40456 5.5
      vertex -10.7061 11.8903 5.5
    endloop
  endfacet
  facet normal -0.866025 0.5 0
    outer loop
      vertex -14.6167 6.50779 0
      vertex -14.6167 6.50779 5.5
      vertex -12.9443 9.40456 0
    endloop
  endfacet
  facet normal -0.866025 0.5 0
    outer loop
      vertex -12.9443 9.40456 0
      vertex -14.6167 6.50779 5.5
      vertex -12.9443 9.40456 5.5
    endloop
  endfacet
  facet normal -0.951056 0.309017 0
    outer loop
      vertex -15.6504 3.32659 0
      vertex -15.6504 3.32659 5.5
      vertex -14.6167 6.50779 0
    endloop
  endfacet
  facet normal -0.951056 0.309017 0
    outer loop
      vertex -14.6167 6.50779 0
      vertex -15.6504 3.32659 5.5
      vertex -14.6167 6.50779 5.5
    endloop
  endfacet
  facet normal 0.766045 -0.642787 0
    outer loop
      vertex -1.35 2.33827 0
      vertex -1.35 2.33827 5.5
      vertex -2.53717 0.923454 5.5
    endloop
  endfacet
  facet normal 0.766045 -0.642787 0
    outer loop
      vertex -2.53717 0.923454 0
      vertex -1.35 2.33827 0
      vertex -2.53717 0.923454 5.5
    endloop
  endfacet
  facet normal 1 0 0
    outer loop
      vertex -2.53717 0.923454 0
      vertex -2.53717 0.923454 5.5
      vertex -2.53717 -0.923454 5.5
    endloop
  endfacet
  facet normal 1 0 0
    outer loop
      vertex -2.53717 -0.923454 0
      vertex -2.53717 0.923454 0
      vertex -2.53717 -0.923454 5.5
    endloop
  endfacet
  facet normal 0.173648 -0.984808 0
    outer loop
      vertex 0.46885 2.65898 0
      vertex 0.46885 2.65898 5.5
      vertex -1.35 2.33827 5.5
    endloop
  endfacet
  facet normal 0.173648 -0.984808 0
    outer loop
      vertex -1.35 2.33827 0
      vertex 0.46885 2.65898 0
      vertex -1.35 2.33827 5.5
    endloop
  endfacet
  facet normal -0.5 -0.866026 -0
    outer loop
      vertex 2.06832 1.73553 0
      vertex 2.06832 1.73553 5.5
      vertex 0.46885 2.65898 5.5
    endloop
  endfacet
  facet normal -0.5 -0.866026 -0
    outer loop
      vertex 0.46885 2.65898 0
      vertex 2.06832 1.73553 0
      vertex 0.46885 2.65898 5.5
    endloop
  endfacet
  facet normal -0.939693 -0.34202 0
    outer loop
      vertex 2.7 0 5.5
      vertex 2.06832 1.73553 5.5
      vertex 2.7 0 0
    endloop
  endfacet
  facet normal -0.939693 -0.34202 0
    outer loop
      vertex 2.7 0 0
      vertex 2.06832 1.73553 5.5
      vertex 2.06832 1.73553 0
    endloop
  endfacet
  facet normal -0.939693 0.34202 0
    outer loop
      vertex 2.06832 -1.73553 5.5
      vertex 2.53511 -0.453041 3.6
      vertex 2.06832 -1.73553 4.31414
    endloop
  endfacet
  facet normal -0.939693 0.34202 4.28301e-17
    outer loop
      vertex 2.7 0 5.5
      vertex 2.53511 -0.453041 3.6
      vertex 2.06832 -1.73553 5.5
    endloop
  endfacet
  facet normal -0.939693 0.34202 2.23364e-17
    outer loop
      vertex 2.53511 -0.453041 1.9
      vertex 2.53511 -0.453041 3.6
      vertex 2.7 0 5.5
    endloop
  endfacet
  facet normal -0.939693 0.34202 0
    outer loop
      vertex 2.53511 -0.453041 1.9
      vertex 2.7 0 5.5
      vertex 2.7 0 0
    endloop
  endfacet
  facet normal -0.939693 0.34202 -9.38051e-17
    outer loop
      vertex 2.53511 -0.453041 1.9
      vertex 2.7 0 0
      vertex 2.06832 -1.73553 1.18586
    endloop
  endfacet
  facet normal -0.939693 0.34202 0
    outer loop
      vertex 2.7 0 0
      vertex 2.06832 -1.73553 0
      vertex 2.06832 -1.73553 1.18586
    endloop
  endfacet
  facet normal -0.5 0.866026 0
    outer loop
      vertex 2.06832 -1.73553 5.5
      vertex 2.06832 -1.73553 4.31414
      vertex 0.46885 -2.65898 5.5
    endloop
  endfacet
  facet normal -0.5 0.866026 7.4791e-15
    outer loop
      vertex 0.46885 -2.65898 5.5
      vertex 2.06832 -1.73553 4.31414
      vertex 1.85734 -1.85734 4.45
    endloop
  endfacet
  facet normal -0.5 0.866026 1.47937e-16
    outer loop
      vertex 0.46885 -2.65898 5.5
      vertex 1.85734 -1.85734 4.45
      vertex 0.53736 -2.61943 3.6
    endloop
  endfacet
  facet normal -0.5 0.866026 -3.26536e-17
    outer loop
      vertex 0.53736 -2.61943 3.6
      vertex 0.53736 -2.61943 1.9
      vertex 0.46885 -2.65898 5.5
    endloop
  endfacet
  facet normal -0.5 0.866026 0
    outer loop
      vertex 1.85734 -1.85734 1.05
      vertex 2.06832 -1.73553 1.18586
      vertex 2.06832 -1.73553 0
    endloop
  endfacet
  facet normal -0.5 0.866026 -3.12376e-16
    outer loop
      vertex 1.85734 -1.85734 1.05
      vertex 2.06832 -1.73553 0
      vertex 0.53736 -2.61943 1.9
    endloop
  endfacet
  facet normal -0.5 0.866026 -1.21352e-16
    outer loop
      vertex 0.53736 -2.61943 1.9
      vertex 2.06832 -1.73553 0
      vertex 0.46885 -2.65898 0
    endloop
  endfacet
  facet normal -0.5 0.866026 0
    outer loop
      vertex 0.53736 -2.61943 1.9
      vertex 0.46885 -2.65898 0
      vertex 0.46885 -2.65898 5.5
    endloop
  endfacet
  facet normal 0.173648 0.984808 -0
    outer loop
      vertex 0.46885 -2.65898 5.5
      vertex 0.46885 -2.65898 0
      vertex -1.35 -2.33827 5.5
    endloop
  endfacet
  facet normal 0.173648 0.984808 -0
    outer loop
      vertex -1.35 -2.33827 5.5
      vertex 0.46885 -2.65898 0
      vertex -1.35 -2.33827 0
    endloop
  endfacet
  facet normal 0.766045 0.642787 0
    outer loop
      vertex -2.53717 -0.923454 5.5
      vertex -1.35 -2.33827 5.5
      vertex -1.35 -2.33827 0
    endloop
  endfacet
  facet normal 0.766045 0.642787 0
    outer loop
      vertex -2.53717 -0.923454 0
      vertex -2.53717 -0.923454 5.5
      vertex -1.35 -2.33827 0
    endloop
  endfacet
  facet normal 0.707107 0.707107 -0
    outer loop
      vertex 2.05061 -5.9397 5.5
      vertex 2.05061 -5.9397 0
      vertex 0.424264 -4.31335 5.5
    endloop
  endfacet
  facet normal 0.707107 0.707107 -0
    outer loop
      vertex 0.424264 -4.31335 5.5
      vertex 2.05061 -5.9397 0
      vertex 0.424264 -4.31335 0
    endloop
  endfacet
  facet normal 0.707107 -0.707107 0
    outer loop
      vertex 2.36881 -2.36881 4.45
      vertex 4.31335 -0.424264 5.5
      vertex 0.424264 -4.31335 5.5
    endloop
  endfacet
  facet normal 0.707107 -0.707107 0
    outer loop
      vertex 0.424264 -4.31335 0
      vertex 1.32777 -3.40984 3.6
      vertex 0.424264 -4.31335 5.5
    endloop
  endfacet
  facet normal 0.707107 -0.707107 1.03207e-16
    outer loop
      vertex 3.40984 -1.32777 3.6
      vertex 4.31335 -0.424264 5.5
      vertex 2.36881 -2.36881 4.45
    endloop
  endfacet
  facet normal 0.707107 -0.707107 -5.16036e-17
    outer loop
      vertex 3.40984 -1.32777 1.9
      vertex 2.36881 -2.36881 1.05
      vertex 4.31335 -0.424264 0
    endloop
  endfacet
  facet normal 0.707107 -0.707107 0
    outer loop
      vertex 4.31335 -0.424264 0
      vertex 4.31335 -0.424264 5.5
      vertex 3.40984 -1.32777 3.6
    endloop
  endfacet
  facet normal 0.707107 -0.707107 0
    outer loop
      vertex 3.40984 -1.32777 3.6
      vertex 3.40984 -1.32777 1.9
      vertex 4.31335 -0.424264 0
    endloop
  endfacet
  facet normal 0.707107 -0.707107 0
    outer loop
      vertex 0.424264 -4.31335 0
      vertex 4.31335 -0.424264 0
      vertex 2.36881 -2.36881 1.05
    endloop
  endfacet
  facet normal 0.707107 -0.707107 -1.65599e-16
    outer loop
      vertex 0.424264 -4.31335 0
      vertex 1.32777 -3.40984 1.9
      vertex 1.32777 -3.40984 3.6
    endloop
  endfacet
  facet normal 0.707107 -0.707107 -5.40516e-17
    outer loop
      vertex 0.424264 -4.31335 0
      vertex 2.36881 -2.36881 1.05
      vertex 1.32777 -3.40984 1.9
    endloop
  endfacet
  facet normal 0.707107 -0.707107 2.58018e-16
    outer loop
      vertex 1.32777 -3.40984 3.6
      vertex 2.36881 -2.36881 4.45
      vertex 0.424264 -4.31335 5.5
    endloop
  endfacet
  facet normal -0.707107 -0.707107 -0
    outer loop
      vertex 5.9397 -2.05061 0
      vertex 5.9397 -2.05061 5.5
      vertex 4.31335 -0.424264 5.5
    endloop
  endfacet
  facet normal -0.707107 -0.707107 -0
    outer loop
      vertex 4.31335 -0.424264 0
      vertex 5.9397 -2.05061 0
      vertex 4.31335 -0.424264 5.5
    endloop
  endfacet
  facet normal -0.707107 0.707107 5.16036e-17
    outer loop
      vertex 2.95412 -5.03619 3.6
      vertex 2.05061 -5.9397 5.5
      vertex 3.99515 -3.99515 4.45
    endloop
  endfacet
  facet normal -0.707107 0.707107 2.90773e-16
    outer loop
      vertex 3.99515 -3.99515 1.05
      vertex 5.9397 -2.05061 0
      vertex 2.05061 -5.9397 0
    endloop
  endfacet
  facet normal -0.707107 0.707107 0
    outer loop
      vertex 2.05061 -5.9397 5.5
      vertex 2.95412 -5.03619 1.9
      vertex 2.05061 -5.9397 0
    endloop
  endfacet
  facet normal -0.707107 0.707107 -1.03207e-16
    outer loop
      vertex 2.95412 -5.03619 1.9
      vertex 3.99515 -3.99515 1.05
      vertex 2.05061 -5.9397 0
    endloop
  endfacet
  facet normal -0.707107 0.707107 0
    outer loop
      vertex 5.9397 -2.05061 5.5
      vertex 5.9397 -2.05061 0
      vertex 5.03619 -2.95412 1.9
    endloop
  endfacet
  facet normal -0.707107 0.707107 0
    outer loop
      vertex 5.9397 -2.05061 5.5
      vertex 5.03619 -2.95412 1.9
      vertex 5.03619 -2.95412 3.6
    endloop
  endfacet
  facet normal -0.707107 0.707107 1.08103e-16
    outer loop
      vertex 5.9397 -2.05061 5.5
      vertex 5.03619 -2.95412 3.6
      vertex 3.99515 -3.99515 4.45
    endloop
  endfacet
  facet normal -0.707107 0.707107 -2.90773e-16
    outer loop
      vertex 5.9397 -2.05061 5.5
      vertex 3.99515 -3.99515 4.45
      vertex 2.05061 -5.9397 5.5
    endloop
  endfacet
  facet normal -0.707107 0.707107 0
    outer loop
      vertex 2.05061 -5.9397 5.5
      vertex 2.95412 -5.03619 3.6
      vertex 2.95412 -5.03619 1.9
    endloop
  endfacet
  facet normal -0.707107 0.707107 -1.03207e-16
    outer loop
      vertex 5.03619 -2.95412 1.9
      vertex 5.9397 -2.05061 0
      vertex 3.99515 -3.99515 1.05
    endloop
  endfacet
  facet normal 0 0 1
    outer loop
      vertex -15.6504 3.32659 5.5
      vertex -16 0 5.5
      vertex -15.6504 -3.32659 5.5
    endloop
  endfacet
  facet normal 0 0 1
    outer loop
      vertex -12.9443 -9.40456 5.5
      vertex -15.6504 3.32659 5.5
      vertex -14.6167 -6.50779 5.5
    endloop
  endfacet
  facet normal 0 0 1
    outer loop
      vertex -14.6167 -6.50779 5.5
      vertex -15.6504 3.32659 5.5
      vertex -15.6504 -3.32659 5.5
    endloop
  endfacet
  facet normal 0 0 1
    outer loop
      vertex -10.7061 -11.8903 5.5
      vertex -15.6504 3.32659 5.5
      vertex -12.9443 -9.40456 5.5
    endloop
  endfacet
  facet normal 0 0 1
    outer loop
      vertex -8 -13.8564 5.5
      vertex -15.6504 3.32659 5.5
      vertex -10.7061 -11.8903 5.5
    endloop
  endfacet
  facet normal 0 0 1
    outer loop
      vertex -4.94427 -15.2169 5.5
      vertex -15.6504 3.32659 5.5
      vertex -8 -13.8564 5.5
    endloop
  endfacet
  facet normal -0 -0 1
    outer loop
      vertex -12.8532 -0.927051 5.5
      vertex -15.6504 3.32659 5.5
      vertex -4.94427 -15.2169 5.5
    endloop
  endfacet
  facet normal 0 -0 1
    outer loop
      vertex 5.9397 -2.05061 5.5
      vertex 2.05061 -5.9397 5.5
      vertex 9.54594 -5.3033 5.5
    endloop
  endfacet
  facet normal 0 0 1
    outer loop
      vertex -2.53717 0.923454 5.5
      vertex -10 3 5.5
      vertex -8.23664 2.42705 5.5
    endloop
  endfacet
  facet normal 0 0 1
    outer loop
      vertex 8.23664 -2.42705 5.5
      vertex 4.31335 -0.424264 5.5
      vertex 5.9397 -2.05061 5.5
    endloop
  endfacet
  facet normal -0 0 1
    outer loop
      vertex 14.6167 -6.50779 5.5
      vertex 9.54594 -5.3033 5.5
      vertex 13.2016 -8.95892 5.5
    endloop
  endfacet
  facet normal 0 -0 1
    outer loop
      vertex -8.23664 -2.42705 5.5
      vertex -10 -3 5.5
      vertex -3 -10 5.5
    endloop
  endfacet
  facet normal 0 -0 1
    outer loop
      vertex 14.6167 6.50779 5.5
      vertex -15.6504 3.32659 5.5
      vertex 15.6504 3.32659 5.5
    endloop
  endfacet
  facet normal 0 -0 1
    outer loop
      vertex 12.9443 9.40456 5.5
      vertex -15.6504 3.32659 5.5
      vertex 14.6167 6.50779 5.5
    endloop
  endfacet
  facet normal 0 -0 1
    outer loop
      vertex 0.927051 7.14683 5.5
      vertex -15.6504 3.32659 5.5
      vertex 12.9443 9.40456 5.5
    endloop
  endfacet
  facet normal 0 -0 1
    outer loop
      vertex 3 10 5.5
      vertex 2.42705 8.23664 5.5
      vertex 10.7061 11.8903 5.5
    endloop
  endfacet
  facet normal 0 -0 1
    outer loop
      vertex -1.67246 15.9123 5.5
      vertex -15.6504 3.32659 5.5
      vertex 1.67246 15.9123 5.5
    endloop
  endfacet
  facet normal 0 -0 1
    outer loop
      vertex -4.94427 15.2169 5.5
      vertex -15.6504 3.32659 5.5
      vertex -1.67246 15.9123 5.5
    endloop
  endfacet
  facet normal 0 -0 1
    outer loop
      vertex -8 13.8564 5.5
      vertex -15.6504 3.32659 5.5
      vertex -4.94427 15.2169 5.5
    endloop
  endfacet
  facet normal 0 -0 1
    outer loop
      vertex -10.7061 11.8903 5.5
      vertex -15.6504 3.32659 5.5
      vertex -8 13.8564 5.5
    endloop
  endfacet
  facet normal 0 -0 1
    outer loop
      vertex -12.9443 9.40456 5.5
      vertex -15.6504 3.32659 5.5
      vertex -10.7061 11.8903 5.5
    endloop
  endfacet
  facet normal 0 -0 1
    outer loop
      vertex -14.6167 6.50779 5.5
      vertex -15.6504 3.32659 5.5
      vertex -12.9443 9.40456 5.5
    endloop
  endfacet
  facet normal -0 -0 1
    outer loop
      vertex -11.7634 -2.42705 5.5
      vertex -12.8532 -0.927051 5.5
      vertex -4.94427 -15.2169 5.5
    endloop
  endfacet
  facet normal 0 -0 1
    outer loop
      vertex 3 -10 5.5
      vertex 2.42705 -11.7634 5.5
      vertex 8 -13.8564 5.5
    endloop
  endfacet
  facet normal 0 0 1
    outer loop
      vertex 11.7634 2.42705 5.5
      vertex 12.8532 0.927051 5.5
      vertex 16 0 5.5
    endloop
  endfacet
  facet normal 0 0 1
    outer loop
      vertex 15.6504 3.32659 5.5
      vertex -15.6504 3.32659 5.5
      vertex -10 3 5.5
    endloop
  endfacet
  facet normal 0 0 1
    outer loop
      vertex 5.9397 -2.05061 5.5
      vertex 14.6167 -6.50779 5.5
      vertex 10 -3 5.5
    endloop
  endfacet
  facet normal 0 0 1
    outer loop
      vertex 4.31335 -0.424264 5.5
      vertex 7.14683 -0.927051 5.5
      vertex 2.7 0 5.5
    endloop
  endfacet
  facet normal -0 -0 1
    outer loop
      vertex 2.05061 -5.9397 5.5
      vertex -7.14683 -0.927051 5.5
      vertex 5.3033 -9.54594 5.5
    endloop
  endfacet
  facet normal 0 0 1
    outer loop
      vertex 2.06832 -1.73553 5.5
      vertex 4.31335 -0.424264 5.5
      vertex 2.7 0 5.5
    endloop
  endfacet
  facet normal 0 0 1
    outer loop
      vertex 2.42705 -8.23664 5.5
      vertex 3 -10 5.5
      vertex 8.93468 -13.1773 5.5
    endloop
  endfacet
  facet normal -0 -0 1
    outer loop
      vertex -2.42705 -11.7634 5.5
      vertex -10 -3 5.5
      vertex -1.67246 -15.9123 5.5
    endloop
  endfacet
  facet normal 0 0 1
    outer loop
      vertex -7.14683 -0.927051 5.5
      vertex 0.927051 -7.14683 5.5
      vertex 5.3033 -9.54594 5.5
    endloop
  endfacet
  facet normal 0 0 1
    outer loop
      vertex -1.67246 -15.9123 5.5
      vertex -11.7634 -2.42705 5.5
      vertex -4.94427 -15.2169 5.5
    endloop
  endfacet
  facet normal -0 0 1
    outer loop
      vertex -0.927051 7.14683 5.5
      vertex -2.42705 8.23664 5.5
      vertex -15.6504 3.32659 5.5
    endloop
  endfacet
  facet normal -0 0 1
    outer loop
      vertex 1.67246 -15.9123 5.5
      vertex -2.42705 -11.7634 5.5
      vertex -1.67246 -15.9123 5.5
    endloop
  endfacet
  facet normal 0 0 1
    outer loop
      vertex 0.424264 -4.31335 5.5
      vertex -1.35 -2.33827 5.5
      vertex -7.14683 -0.927051 5.5
    endloop
  endfacet
  facet normal 0 0 1
    outer loop
      vertex 8.23664 -2.42705 5.5
      vertex 7.14683 -0.927051 5.5
      vertex 4.31335 -0.424264 5.5
    endloop
  endfacet
  facet normal 0 0 1
    outer loop
      vertex -2.53717 -0.923454 5.5
      vertex -2.53717 0.923454 5.5
      vertex -7.14683 0.927051 5.5
    endloop
  endfacet
  facet normal 0 0 1
    outer loop
      vertex -2.53717 0.923454 5.5
      vertex -1.35 2.33827 5.5
      vertex -10 3 5.5
    endloop
  endfacet
  facet normal 0 -0 1
    outer loop
      vertex 2.42705 -11.7634 5.5
      vertex 0.927051 -12.8532 5.5
      vertex 4.94427 -15.2169 5.5
    endloop
  endfacet
  facet normal 0 0 1
    outer loop
      vertex -11.7634 2.42705 5.5
      vertex -10 3 5.5
      vertex -15.6504 3.32659 5.5
    endloop
  endfacet
  facet normal -0 -0 1
    outer loop
      vertex 5.3033 -9.54594 5.5
      vertex 2.42705 -8.23664 5.5
      vertex 8.93468 -13.1773 5.5
    endloop
  endfacet
  facet normal 0 0 1
    outer loop
      vertex 5.3033 -9.54594 5.5
      vertex 0.927051 -7.14683 5.5
      vertex 2.42705 -8.23664 5.5
    endloop
  endfacet
  facet normal -0 0 1
    outer loop
      vertex 8.93468 -13.1773 5.5
      vertex 3 -10 5.5
      vertex 8 -13.8564 5.5
    endloop
  endfacet
  facet normal -0 0 1
    outer loop
      vertex 8 -13.8564 5.5
      vertex 2.42705 -11.7634 5.5
      vertex 4.94427 -15.2169 5.5
    endloop
  endfacet
  facet normal -0 0 1
    outer loop
      vertex 4.94427 -15.2169 5.5
      vertex 0.927051 -12.8532 5.5
      vertex 1.67246 -15.9123 5.5
    endloop
  endfacet
  facet normal 0 0 1
    outer loop
      vertex -1.35 -2.33827 5.5
      vertex -7.14683 0.927051 5.5
      vertex -7.14683 -0.927051 5.5
    endloop
  endfacet
  facet normal -0 0 1
    outer loop
      vertex -3 10 5.5
      vertex -2.42705 11.7634 5.5
      vertex -15.6504 3.32659 5.5
    endloop
  endfacet
  facet normal 0 0 1
    outer loop
      vertex 2.42705 11.7634 5.5
      vertex 3 10 5.5
      vertex 8 13.8564 5.5
    endloop
  endfacet
  facet normal 0 0 1
    outer loop
      vertex 0.927051 12.8532 5.5
      vertex 2.42705 11.7634 5.5
      vertex 8 13.8564 5.5
    endloop
  endfacet
  facet normal 0 0 1
    outer loop
      vertex 0.927051 12.8532 5.5
      vertex 8 13.8564 5.5
      vertex 4.94427 15.2169 5.5
    endloop
  endfacet
  facet normal 0 0 1
    outer loop
      vertex 1.67246 15.9123 5.5
      vertex -15.6504 3.32659 5.5
      vertex -2.42705 11.7634 5.5
    endloop
  endfacet
  facet normal 0 -0 1
    outer loop
      vertex 1.67246 15.9123 5.5
      vertex -0.927051 12.8532 5.5
      vertex 4.94427 15.2169 5.5
    endloop
  endfacet
  facet normal 0 0 1
    outer loop
      vertex 1.67246 15.9123 5.5
      vertex -2.42705 11.7634 5.5
      vertex -0.927051 12.8532 5.5
    endloop
  endfacet
  facet normal 0 0 1
    outer loop
      vertex -1.35 -2.33827 5.5
      vertex -2.53717 -0.923454 5.5
      vertex -7.14683 0.927051 5.5
    endloop
  endfacet
  facet normal 0 0 1
    outer loop
      vertex -0.927051 12.8532 5.5
      vertex 0.927051 12.8532 5.5
      vertex 4.94427 15.2169 5.5
    endloop
  endfacet
  facet normal 0 -0 1
    outer loop
      vertex 8 13.8564 5.5
      vertex 3 10 5.5
      vertex 10.7061 11.8903 5.5
    endloop
  endfacet
  facet normal 0 -0 1
    outer loop
      vertex 10.7061 11.8903 5.5
      vertex 2.42705 8.23664 5.5
      vertex 12.9443 9.40456 5.5
    endloop
  endfacet
  facet normal 0 -0 1
    outer loop
      vertex 2.42705 8.23664 5.5
      vertex 0.927051 7.14683 5.5
      vertex 12.9443 9.40456 5.5
    endloop
  endfacet
  facet normal 0 -0 1
    outer loop
      vertex -0.927051 7.14683 5.5
      vertex -15.6504 3.32659 5.5
      vertex 0.927051 7.14683 5.5
    endloop
  endfacet
  facet normal -0 0 1
    outer loop
      vertex -2.42705 8.23664 5.5
      vertex -3 10 5.5
      vertex -15.6504 3.32659 5.5
    endloop
  endfacet
  facet normal 0 0 1
    outer loop
      vertex -7.14683 -0.927051 5.5
      vertex -0.927051 -7.14683 5.5
      vertex 0.927051 -7.14683 5.5
    endloop
  endfacet
  facet normal 0 0 1
    outer loop
      vertex 0.46885 2.65898 5.5
      vertex 8.23664 2.42705 5.5
      vertex 10 3 5.5
    endloop
  endfacet
  facet normal 0 0 1
    outer loop
      vertex 5.9397 -2.05061 5.5
      vertex 9.54594 -5.3033 5.5
      vertex 14.6167 -6.50779 5.5
    endloop
  endfacet
  facet normal 0 0 1
    outer loop
      vertex -8.23664 2.42705 5.5
      vertex -7.14683 0.927051 5.5
      vertex -2.53717 0.923454 5.5
    endloop
  endfacet
  facet normal 0 0 1
    outer loop
      vertex 7.14683 0.927051 5.5
      vertex 0.46885 2.65898 5.5
      vertex 2.06832 1.73553 5.5
    endloop
  endfacet
  facet normal -0 0 1
    outer loop
      vertex 0.46885 2.65898 5.5
      vertex -10 3 5.5
      vertex -1.35 2.33827 5.5
    endloop
  endfacet
  facet normal 0 0 1
    outer loop
      vertex 15.6504 3.32659 5.5
      vertex -10 3 5.5
      vertex 0.46885 2.65898 5.5
    endloop
  endfacet
  facet normal 0 -0 1
    outer loop
      vertex 12.8532 -0.927051 5.5
      vertex 11.7634 -2.42705 5.5
      vertex 15.6504 -3.32659 5.5
    endloop
  endfacet
  facet normal 0 -0 1
    outer loop
      vertex 12.8532 0.927051 5.5
      vertex 12.8532 -0.927051 5.5
      vertex 16 0 5.5
    endloop
  endfacet
  facet normal 0 0 1
    outer loop
      vertex 0.424264 -4.31335 5.5
      vertex 4.31335 -0.424264 5.5
      vertex 2.06832 -1.73553 5.5
    endloop
  endfacet
  facet normal 0 0 1
    outer loop
      vertex 0.424264 -4.31335 5.5
      vertex 0.46885 -2.65898 5.5
      vertex -1.35 -2.33827 5.5
    endloop
  endfacet
  facet normal 0 0 1
    outer loop
      vertex 9.54594 -5.3033 5.5
      vertex 2.05061 -5.9397 5.5
      vertex 5.3033 -9.54594 5.5
    endloop
  endfacet
  facet normal -0 -0 1
    outer loop
      vertex 0.424264 -4.31335 5.5
      vertex -7.14683 -0.927051 5.5
      vertex 2.05061 -5.9397 5.5
    endloop
  endfacet
  facet normal 0 0 1
    outer loop
      vertex 7.14683 0.927051 5.5
      vertex 8.23664 2.42705 5.5
      vertex 0.46885 2.65898 5.5
    endloop
  endfacet
  facet normal 0 0 1
    outer loop
      vertex 7.14683 -0.927051 5.5
      vertex 7.14683 0.927051 5.5
      vertex 2.7 0 5.5
    endloop
  endfacet
  facet normal 0 0 1
    outer loop
      vertex 5.9397 -2.05061 5.5
      vertex 10 -3 5.5
      vertex 8.23664 -2.42705 5.5
    endloop
  endfacet
  facet normal 0 0 1
    outer loop
      vertex 2.06832 1.73553 5.5
      vertex 2.7 0 5.5
      vertex 7.14683 0.927051 5.5
    endloop
  endfacet
  facet normal 0 -0 1
    outer loop
      vertex 11.7634 -2.42705 5.5
      vertex 10 -3 5.5
      vertex 15.6504 -3.32659 5.5
    endloop
  endfacet
  facet normal 0 0 1
    outer loop
      vertex 10 3 5.5
      vertex 11.7634 2.42705 5.5
      vertex 15.6504 3.32659 5.5
    endloop
  endfacet
  facet normal 0 0 1
    outer loop
      vertex 15.6504 3.32659 5.5
      vertex 0.46885 2.65898 5.5
      vertex 10 3 5.5
    endloop
  endfacet
  facet normal 0 -0 1
    outer loop
      vertex 15.6504 3.32659 5.5
      vertex 11.7634 2.42705 5.5
      vertex 16 0 5.5
    endloop
  endfacet
  facet normal 0 0 1
    outer loop
      vertex 16 0 5.5
      vertex 12.8532 -0.927051 5.5
      vertex 15.6504 -3.32659 5.5
    endloop
  endfacet
  facet normal 0 0 1
    outer loop
      vertex 0.424264 -4.31335 5.5
      vertex 2.06832 -1.73553 5.5
      vertex 0.46885 -2.65898 5.5
    endloop
  endfacet
  facet normal 0 -0 1
    outer loop
      vertex -7.14683 -0.927051 5.5
      vertex -8.23664 -2.42705 5.5
      vertex -0.927051 -7.14683 5.5
    endloop
  endfacet
  facet normal -0 0 1
    outer loop
      vertex 15.6504 -3.32659 5.5
      vertex 10 -3 5.5
      vertex 14.6167 -6.50779 5.5
    endloop
  endfacet
  facet normal 0 0 1
    outer loop
      vertex -2.42705 -8.23664 5.5
      vertex -0.927051 -7.14683 5.5
      vertex -8.23664 -2.42705 5.5
    endloop
  endfacet
  facet normal -0 -0 1
    outer loop
      vertex -10 -3 5.5
      vertex -11.7634 -2.42705 5.5
      vertex -1.67246 -15.9123 5.5
    endloop
  endfacet
  facet normal -0 -0 1
    outer loop
      vertex -0.927051 -12.8532 5.5
      vertex -2.42705 -11.7634 5.5
      vertex 1.67246 -15.9123 5.5
    endloop
  endfacet
  facet normal 0 0 1
    outer loop
      vertex -12.8532 -0.927051 5.5
      vertex -12.8532 0.927051 5.5
      vertex -15.6504 3.32659 5.5
    endloop
  endfacet
  facet normal 0 0 1
    outer loop
      vertex -2.42705 -11.7634 5.5
      vertex -3 -10 5.5
      vertex -10 -3 5.5
    endloop
  endfacet
  facet normal 0 -0 1
    outer loop
      vertex 0.927051 -12.8532 5.5
      vertex -0.927051 -12.8532 5.5
      vertex 1.67246 -15.9123 5.5
    endloop
  endfacet
  facet normal 0 0 1
    outer loop
      vertex -8.23664 -2.42705 5.5
      vertex -3 -10 5.5
      vertex -2.42705 -8.23664 5.5
    endloop
  endfacet
  facet normal 0 0 1
    outer loop
      vertex -12.8532 0.927051 5.5
      vertex -11.7634 2.42705 5.5
      vertex -15.6504 3.32659 5.5
    endloop
  endfacet
  facet normal 0.353553 0.353553 -0.866025
    outer loop
      vertex 7.42462 -7.42462 4.45
      vertex 6.38359 -8.46565 3.6
      vertex 3.99515 -3.99515 4.45
    endloop
  endfacet
  facet normal 0.353553 0.353553 -0.866025
    outer loop
      vertex 3.99515 -3.99515 4.45
      vertex 6.38359 -8.46565 3.6
      vertex 2.95412 -5.03619 3.6
    endloop
  endfacet
  facet normal 0.707107 0.707107 0
    outer loop
      vertex 6.38359 -8.46565 1.9
      vertex 2.95412 -5.03619 1.9
      vertex 6.38359 -8.46565 3.6
    endloop
  endfacet
  facet normal 0.707107 0.707107 0
    outer loop
      vertex 6.38359 -8.46565 3.6
      vertex 2.95412 -5.03619 1.9
      vertex 2.95412 -5.03619 3.6
    endloop
  endfacet
  facet normal 0.353553 0.353553 0.866025
    outer loop
      vertex 6.38359 -8.46565 1.9
      vertex 7.42462 -7.42462 1.05
      vertex 3.99515 -3.99515 1.05
    endloop
  endfacet
  facet normal 0.353553 0.353553 0.866025
    outer loop
      vertex 2.95412 -5.03619 1.9
      vertex 6.38359 -8.46565 1.9
      vertex 3.99515 -3.99515 1.05
    endloop
  endfacet
  facet normal -0.353553 -0.353553 0.866025
    outer loop
      vertex 7.42462 -7.42462 1.05
      vertex 8.46565 -6.38359 1.9
      vertex 5.03619 -2.95412 1.9
    endloop
  endfacet
  facet normal -0.353553 -0.353553 0.866025
    outer loop
      vertex 3.99515 -3.99515 1.05
      vertex 7.42462 -7.42462 1.05
      vertex 5.03619 -2.95412 1.9
    endloop
  endfacet
  facet normal -0.707107 -0.707107 0
    outer loop
      vertex 5.03619 -2.95412 1.9
      vertex 8.46565 -6.38359 1.9
      vertex 8.46565 -6.38359 3.6
    endloop
  endfacet
  facet normal -0.707107 -0.707107 0
    outer loop
      vertex 5.03619 -2.95412 3.6
      vertex 5.03619 -2.95412 1.9
      vertex 8.46565 -6.38359 3.6
    endloop
  endfacet
  facet normal -0.353553 -0.353553 -0.866025
    outer loop
      vertex 8.46565 -6.38359 3.6
      vertex 7.42462 -7.42462 4.45
      vertex 5.03619 -2.95412 3.6
    endloop
  endfacet
  facet normal -0.353553 -0.353553 -0.866025
    outer loop
      vertex 5.03619 -2.95412 3.6
      vertex 7.42462 -7.42462 4.45
      vertex 3.99515 -3.99515 4.45
    endloop
  endfacet
  facet normal -0.353553 -0.353553 0.866025
    outer loop
      vertex 2.36881 -2.36881 1.05
      vertex 3.40984 -1.32777 1.9
      vertex 2.53511 -0.453041 1.9
    endloop
  endfacet
  facet normal -0.353553 -0.353553 0.866025
    outer loop
      vertex 1.85734 -1.85734 1.05
      vertex 2.36881 -2.36881 1.05
      vertex 2.06832 -1.73553 1.18586
    endloop
  endfacet
  facet normal -0.353553 -0.353553 0.866025
    outer loop
      vertex 2.06832 -1.73553 1.18586
      vertex 2.36881 -2.36881 1.05
      vertex 2.53511 -0.453041 1.9
    endloop
  endfacet
  facet normal -0.353553 -0.353553 -0.866025
    outer loop
      vertex 2.53511 -0.453041 3.6
      vertex 3.40984 -1.32777 3.6
      vertex 2.06832 -1.73553 4.31414
    endloop
  endfacet
  facet normal -0.353553 -0.353553 -0.866025
    outer loop
      vertex 2.06832 -1.73553 4.31414
      vertex 3.40984 -1.32777 3.6
      vertex 2.36881 -2.36881 4.45
    endloop
  endfacet
  facet normal -0.353553 -0.353553 -0.866025
    outer loop
      vertex 2.06832 -1.73553 4.31414
      vertex 2.36881 -2.36881 4.45
      vertex 1.85734 -1.85734 4.45
    endloop
  endfacet
  facet normal -0.707107 -0.707107 0
    outer loop
      vertex 2.53511 -0.453041 1.9
      vertex 3.40984 -1.32777 1.9
      vertex 3.40984 -1.32777 3.6
    endloop
  endfacet
  facet normal -0.707107 -0.707107 -4.61792e-17
    outer loop
      vertex 2.53511 -0.453041 3.6
      vertex 2.53511 -0.453041 1.9
      vertex 3.40984 -1.32777 3.6
    endloop
  endfacet
  facet normal 0.353553 0.353553 0.866025
    outer loop
      vertex 1.32777 -3.40984 1.9
      vertex 2.36881 -2.36881 1.05
      vertex 1.85734 -1.85734 1.05
    endloop
  endfacet
  facet normal 0.353553 0.353553 0.866025
    outer loop
      vertex 0.53736 -2.61943 1.9
      vertex 1.32777 -3.40984 1.9
      vertex 1.85734 -1.85734 1.05
    endloop
  endfacet
  facet normal 0.707107 0.707107 1.84717e-16
    outer loop
      vertex 1.32777 -3.40984 1.9
      vertex 0.53736 -2.61943 1.9
      vertex 1.32777 -3.40984 3.6
    endloop
  endfacet
  facet normal 0.707107 0.707107 4.22114e-17
    outer loop
      vertex 1.32777 -3.40984 3.6
      vertex 0.53736 -2.61943 1.9
      vertex 0.53736 -2.61943 3.6
    endloop
  endfacet
  facet normal 0.353553 0.353553 -0.866025
    outer loop
      vertex 2.36881 -2.36881 4.45
      vertex 1.32777 -3.40984 3.6
      vertex 1.85734 -1.85734 4.45
    endloop
  endfacet
  facet normal 0.353553 0.353553 -0.866025
    outer loop
      vertex 1.85734 -1.85734 4.45
      vertex 1.32777 -3.40984 3.6
      vertex 0.53736 -2.61943 3.6
    endloop
  endfacet
  facet normal -1 -0 -0
    outer loop
      vertex -12.8532 -0.927051 5.5
      vertex -12.8532 -0.927051 11.85
      vertex -12.8532 0.927051 5.5
    endloop
  endfacet
  facet normal -1 0 0
    outer loop
      vertex -12.8532 0.927051 5.5
      vertex -12.8532 -0.927051 11.85
      vertex -12.8532 0.927051 11.85
    endloop
  endfacet
  facet normal -0.809017 -0.587785 -0
    outer loop
      vertex -12.8532 -0.927051 5.5
      vertex -11.7634 -2.42705 5.5
      vertex -12.8532 -0.927051 11.85
    endloop
  endfacet
  facet normal -0.809017 -0.587785 0
    outer loop
      vertex -12.8532 -0.927051 11.85
      vertex -11.7634 -2.42705 5.5
      vertex -11.7634 -2.42705 11.85
    endloop
  endfacet
  facet normal -0.309017 -0.951057 0
    outer loop
      vertex -11.7634 -2.42705 11.85
      vertex -11.7634 -2.42705 5.5
      vertex -10 -3 5.5
    endloop
  endfacet
  facet normal -0.309017 -0.951057 0
    outer loop
      vertex -10 -3 11.85
      vertex -11.7634 -2.42705 11.85
      vertex -10 -3 5.5
    endloop
  endfacet
  facet normal 0.309017 -0.951057 0
    outer loop
      vertex -10 -3 11.85
      vertex -10 -3 5.5
      vertex -8.23664 -2.42705 5.5
    endloop
  endfacet
  facet normal 0.309017 -0.951057 0
    outer loop
      vertex -8.23664 -2.42705 11.85
      vertex -10 -3 11.85
      vertex -8.23664 -2.42705 5.5
    endloop
  endfacet
  facet normal 0.809017 -0.587785 0
    outer loop
      vertex -8.23664 -2.42705 11.85
      vertex -8.23664 -2.42705 5.5
      vertex -7.14683 -0.927051 5.5
    endloop
  endfacet
  facet normal 0.809017 -0.587785 0
    outer loop
      vertex -7.14683 -0.927051 11.85
      vertex -8.23664 -2.42705 11.85
      vertex -7.14683 -0.927051 5.5
    endloop
  endfacet
  facet normal 1 0 -0
    outer loop
      vertex -7.14683 -0.927051 11.85
      vertex -7.14683 -0.927051 5.5
      vertex -7.14683 0.927051 5.5
    endloop
  endfacet
  facet normal 1 0 0
    outer loop
      vertex -7.14683 0.927051 11.85
      vertex -7.14683 -0.927051 11.85
      vertex -7.14683 0.927051 5.5
    endloop
  endfacet
  facet normal 0.809017 0.587785 0
    outer loop
      vertex -7.14683 0.927051 5.5
      vertex -8.23664 2.42705 5.5
      vertex -8.23664 2.42705 11.85
    endloop
  endfacet
  facet normal 0.809017 0.587785 -0
    outer loop
      vertex -7.14683 0.927051 11.85
      vertex -7.14683 0.927051 5.5
      vertex -8.23664 2.42705 11.85
    endloop
  endfacet
  facet normal 0.309017 0.951057 0
    outer loop
      vertex -10 3 5.5
      vertex -10 3 11.85
      vertex -8.23664 2.42705 5.5
    endloop
  endfacet
  facet normal 0.309017 0.951057 0
    outer loop
      vertex -8.23664 2.42705 5.5
      vertex -10 3 11.85
      vertex -8.23664 2.42705 11.85
    endloop
  endfacet
  facet normal -0.309017 0.951057 0
    outer loop
      vertex -11.7634 2.42705 5.5
      vertex -11.7634 2.42705 11.85
      vertex -10 3 5.5
    endloop
  endfacet
  facet normal -0.309017 0.951057 0
    outer loop
      vertex -10 3 5.5
      vertex -11.7634 2.42705 11.85
      vertex -10 3 11.85
    endloop
  endfacet
  facet normal -0.809017 0.587785 0
    outer loop
      vertex -12.8532 0.927051 5.5
      vertex -12.8532 0.927051 11.85
      vertex -11.7634 2.42705 5.5
    endloop
  endfacet
  facet normal -0.809017 0.587785 0
    outer loop
      vertex -11.7634 2.42705 5.5
      vertex -12.8532 0.927051 11.85
      vertex -11.7634 2.42705 11.85
    endloop
  endfacet
  facet normal -0.951057 -0.309017 -0
    outer loop
      vertex -3 -10 5.5
      vertex -2.42705 -11.7634 5.5
      vertex -3 -10 11.85
    endloop
  endfacet
  facet normal -0.951057 -0.309017 0
    outer loop
      vertex -3 -10 11.85
      vertex -2.42705 -11.7634 5.5
      vertex -2.42705 -11.7634 11.85
    endloop
  endfacet
  facet normal -0.587785 -0.809017 0
    outer loop
      vertex -2.42705 -11.7634 11.85
      vertex -2.42705 -11.7634 5.5
      vertex -0.927051 -12.8532 5.5
    endloop
  endfacet
  facet normal -0.587785 -0.809017 0
    outer loop
      vertex -0.927051 -12.8532 11.85
      vertex -2.42705 -11.7634 11.85
      vertex -0.927051 -12.8532 5.5
    endloop
  endfacet
  facet normal 0 -1 0
    outer loop
      vertex -0.927051 -12.8532 11.85
      vertex -0.927051 -12.8532 5.5
      vertex 0.927051 -12.8532 5.5
    endloop
  endfacet
  facet normal 0 -1 0
    outer loop
      vertex 0.927051 -12.8532 11.85
      vertex -0.927051 -12.8532 11.85
      vertex 0.927051 -12.8532 5.5
    endloop
  endfacet
  facet normal 0.587785 -0.809017 0
    outer loop
      vertex 0.927051 -12.8532 11.85
      vertex 0.927051 -12.8532 5.5
      vertex 2.42705 -11.7634 5.5
    endloop
  endfacet
  facet normal 0.587785 -0.809017 0
    outer loop
      vertex 2.42705 -11.7634 11.85
      vertex 0.927051 -12.8532 11.85
      vertex 2.42705 -11.7634 5.5
    endloop
  endfacet
  facet normal 0.951057 -0.309017 0
    outer loop
      vertex 2.42705 -11.7634 11.85
      vertex 2.42705 -11.7634 5.5
      vertex 3 -10 5.5
    endloop
  endfacet
  facet normal 0.951057 -0.309017 0
    outer loop
      vertex 3 -10 11.85
      vertex 2.42705 -11.7634 11.85
      vertex 3 -10 5.5
    endloop
  endfacet
  facet normal 0.951057 0.309017 0
    outer loop
      vertex 3 -10 5.5
      vertex 2.42705 -8.23664 5.5
      vertex 2.42705 -8.23664 11.85
    endloop
  endfacet
  facet normal 0.951057 0.309017 -0
    outer loop
      vertex 3 -10 11.85
      vertex 3 -10 5.5
      vertex 2.42705 -8.23664 11.85
    endloop
  endfacet
  facet normal 0.587785 0.809017 0
    outer loop
      vertex 0.927051 -7.14683 5.5
      vertex 0.927051 -7.14683 11.85
      vertex 2.42705 -8.23664 5.5
    endloop
  endfacet
  facet normal 0.587785 0.809017 0
    outer loop
      vertex 2.42705 -8.23664 5.5
      vertex 0.927051 -7.14683 11.85
      vertex 2.42705 -8.23664 11.85
    endloop
  endfacet
  facet normal 0 1 0
    outer loop
      vertex -0.927051 -7.14683 5.5
      vertex -0.927051 -7.14683 11.85
      vertex 0.927051 -7.14683 5.5
    endloop
  endfacet
  facet normal 0 1 0
    outer loop
      vertex 0.927051 -7.14683 5.5
      vertex -0.927051 -7.14683 11.85
      vertex 0.927051 -7.14683 11.85
    endloop
  endfacet
  facet normal -0.587785 0.809017 0
    outer loop
      vertex -2.42705 -8.23664 5.5
      vertex -2.42705 -8.23664 11.85
      vertex -0.927051 -7.14683 5.5
    endloop
  endfacet
  facet normal -0.587785 0.809017 0
    outer loop
      vertex -0.927051 -7.14683 5.5
      vertex -2.42705 -8.23664 11.85
      vertex -0.927051 -7.14683 11.85
    endloop
  endfacet
  facet normal -0.951057 0.309017 0
    outer loop
      vertex -3 -10 5.5
      vertex -3 -10 11.85
      vertex -2.42705 -8.23664 5.5
    endloop
  endfacet
  facet normal -0.951057 0.309017 0
    outer loop
      vertex -2.42705 -8.23664 5.5
      vertex -3 -10 11.85
      vertex -2.42705 -8.23664 11.85
    endloop
  endfacet
  facet normal -0.951057 -0.309017 -0
    outer loop
      vertex -3 10 5.5
      vertex -2.42705 8.23664 5.5
      vertex -3 10 11.85
    endloop
  endfacet
  facet normal -0.951057 -0.309017 0
    outer loop
      vertex -3 10 11.85
      vertex -2.42705 8.23664 5.5
      vertex -2.42705 8.23664 11.85
    endloop
  endfacet
  facet normal -0.587785 -0.809017 0
    outer loop
      vertex -2.42705 8.23664 11.85
      vertex -2.42705 8.23664 5.5
      vertex -0.927051 7.14683 5.5
    endloop
  endfacet
  facet normal -0.587785 -0.809017 0
    outer loop
      vertex -0.927051 7.14683 11.85
      vertex -2.42705 8.23664 11.85
      vertex -0.927051 7.14683 5.5
    endloop
  endfacet
  facet normal 0 -1 0
    outer loop
      vertex -0.927051 7.14683 11.85
      vertex -0.927051 7.14683 5.5
      vertex 0.927051 7.14683 5.5
    endloop
  endfacet
  facet normal 0 -1 0
    outer loop
      vertex 0.927051 7.14683 11.85
      vertex -0.927051 7.14683 11.85
      vertex 0.927051 7.14683 5.5
    endloop
  endfacet
  facet normal 0.587785 -0.809017 0
    outer loop
      vertex 0.927051 7.14683 11.85
      vertex 0.927051 7.14683 5.5
      vertex 2.42705 8.23664 5.5
    endloop
  endfacet
  facet normal 0.587785 -0.809017 0
    outer loop
      vertex 2.42705 8.23664 11.85
      vertex 0.927051 7.14683 11.85
      vertex 2.42705 8.23664 5.5
    endloop
  endfacet
  facet normal 0.951057 -0.309017 0
    outer loop
      vertex 2.42705 8.23664 11.85
      vertex 2.42705 8.23664 5.5
      vertex 3 10 5.5
    endloop
  endfacet
  facet normal 0.951057 -0.309017 0
    outer loop
      vertex 3 10 11.85
      vertex 2.42705 8.23664 11.85
      vertex 3 10 5.5
    endloop
  endfacet
  facet normal 0.951057 0.309017 0
    outer loop
      vertex 3 10 5.5
      vertex 2.42705 11.7634 5.5
      vertex 2.42705 11.7634 11.85
    endloop
  endfacet
  facet normal 0.951057 0.309017 -0
    outer loop
      vertex 3 10 11.85
      vertex 3 10 5.5
      vertex 2.42705 11.7634 11.85
    endloop
  endfacet
  facet normal 0.587785 0.809017 0
    outer loop
      vertex 0.927051 12.8532 5.5
      vertex 0.927051 12.8532 11.85
      vertex 2.42705 11.7634 5.5
    endloop
  endfacet
  facet normal 0.587785 0.809017 0
    outer loop
      vertex 2.42705 11.7634 5.5
      vertex 0.927051 12.8532 11.85
      vertex 2.42705 11.7634 11.85
    endloop
  endfacet
  facet normal 0 1 0
    outer loop
      vertex -0.927051 12.8532 5.5
      vertex -0.927051 12.8532 11.85
      vertex 0.927051 12.8532 5.5
    endloop
  endfacet
  facet normal 0 1 0
    outer loop
      vertex 0.927051 12.8532 5.5
      vertex -0.927051 12.8532 11.85
      vertex 0.927051 12.8532 11.85
    endloop
  endfacet
  facet normal -0.587785 0.809017 0
    outer loop
      vertex -2.42705 11.7634 5.5
      vertex -2.42705 11.7634 11.85
      vertex -0.927051 12.8532 5.5
    endloop
  endfacet
  facet normal -0.587785 0.809017 0
    outer loop
      vertex -0.927051 12.8532 5.5
      vertex -2.42705 11.7634 11.85
      vertex -0.927051 12.8532 11.85
    endloop
  endfacet
  facet normal -0.951057 0.309017 0
    outer loop
      vertex -3 10 5.5
      vertex -3 10 11.85
      vertex -2.42705 11.7634 5.5
    endloop
  endfacet
  facet normal -0.951057 0.309017 0
    outer loop
      vertex -2.42705 11.7634 5.5
      vertex -3 10 11.85
      vertex -2.42705 11.7634 11.85
    endloop
  endfacet
  facet normal -1 -0 -0
    outer loop
      vertex 7.14683 -0.927051 5.5
      vertex 7.14683 -0.927051 11.85
      vertex 7.14683 0.927051 5.5
    endloop
  endfacet
  facet normal -1 0 0
    outer loop
      vertex 7.14683 0.927051 5.5
      vertex 7.14683 -0.927051 11.85
      vertex 7.14683 0.927051 11.85
    endloop
  endfacet
  facet normal -0.809017 -0.587785 -0
    outer loop
      vertex 7.14683 -0.927051 5.5
      vertex 8.23664 -2.42705 5.5
      vertex 7.14683 -0.927051 11.85
    endloop
  endfacet
  facet normal -0.809017 -0.587785 0
    outer loop
      vertex 7.14683 -0.927051 11.85
      vertex 8.23664 -2.42705 5.5
      vertex 8.23664 -2.42705 11.85
    endloop
  endfacet
  facet normal -0.309017 -0.951057 0
    outer loop
      vertex 8.23664 -2.42705 11.85
      vertex 8.23664 -2.42705 5.5
      vertex 10 -3 5.5
    endloop
  endfacet
  facet normal -0.309017 -0.951057 0
    outer loop
      vertex 10 -3 11.85
      vertex 8.23664 -2.42705 11.85
      vertex 10 -3 5.5
    endloop
  endfacet
  facet normal 0.309017 -0.951057 0
    outer loop
      vertex 10 -3 11.85
      vertex 10 -3 5.5
      vertex 11.7634 -2.42705 5.5
    endloop
  endfacet
  facet normal 0.309017 -0.951057 0
    outer loop
      vertex 11.7634 -2.42705 11.85
      vertex 10 -3 11.85
      vertex 11.7634 -2.42705 5.5
    endloop
  endfacet
  facet normal 0.809017 -0.587785 0
    outer loop
      vertex 11.7634 -2.42705 11.85
      vertex 11.7634 -2.42705 5.5
      vertex 12.8532 -0.927051 5.5
    endloop
  endfacet
  facet normal 0.809017 -0.587785 0
    outer loop
      vertex 12.8532 -0.927051 11.85
      vertex 11.7634 -2.42705 11.85
      vertex 12.8532 -0.927051 5.5
    endloop
  endfacet
  facet normal 1 0 -0
    outer loop
      vertex 12.8532 -0.927051 11.85
      vertex 12.8532 -0.927051 5.5
      vertex 12.8532 0.927051 5.5
    endloop
  endfacet
  facet normal 1 0 0
    outer loop
      vertex 12.8532 0.927051 11.85
      vertex 12.8532 -0.927051 11.85
      vertex 12.8532 0.927051 5.5
    endloop
  endfacet
  facet normal 0.809017 0.587785 0
    outer loop
      vertex 12.8532 0.927051 5.5
      vertex 11.7634 2.42705 5.5
      vertex 11.7634 2.42705 11.85
    endloop
  endfacet
  facet normal 0.809017 0.587785 -0
    outer loop
      vertex 12.8532 0.927051 11.85
      vertex 12.8532 0.927051 5.5
      vertex 11.7634 2.42705 11.85
    endloop
  endfacet
  facet normal 0.309017 0.951057 0
    outer loop
      vertex 10 3 5.5
      vertex 10 3 11.85
      vertex 11.7634 2.42705 5.5
    endloop
  endfacet
  facet normal 0.309017 0.951057 0
    outer loop
      vertex 11.7634 2.42705 5.5
      vertex 10 3 11.85
      vertex 11.7634 2.42705 11.85
    endloop
  endfacet
  facet normal -0.309017 0.951057 0
    outer loop
      vertex 8.23664 2.42705 5.5
      vertex 8.23664 2.42705 11.85
      vertex 10 3 5.5
    endloop
  endfacet
  facet normal -0.309017 0.951057 0
    outer loop
      vertex 10 3 5.5
      vertex 8.23664 2.42705 11.85
      vertex 10 3 11.85
    endloop
  endfacet
  facet normal -0.809017 0.587785 0
    outer loop
      vertex 7.14683 0.927051 5.5
      vertex 7.14683 0.927051 11.85
      vertex 8.23664 2.42705 5.5
    endloop
  endfacet
  facet normal -0.809017 0.587785 0
    outer loop
      vertex 8.23664 2.42705 5.5
      vertex 7.14683 0.927051 11.85
      vertex 8.23664 2.42705 11.85
    endloop
  endfacet
  facet normal 0 -0 1
    outer loop
      vertex -12.8532 0.927051 11.85
      vertex -12.8532 -0.927051 11.85
      vertex -11.7634 -2.42705 11.85
    endloop
  endfacet
  facet normal -0 0 1
    outer loop
      vertex -8.23664 -2.42705 11.85
      vertex -12.8532 0.927051 11.85
      vertex -10 -3 11.85
    endloop
  endfacet
  facet normal 0 0 1
    outer loop
      vertex -10 -3 11.85
      vertex -12.8532 0.927051 11.85
      vertex -11.7634 -2.42705 11.85
    endloop
  endfacet
  facet normal -0 0 1
    outer loop
      vertex -7.14683 -0.927051 11.85
      vertex -12.8532 0.927051 11.85
      vertex -8.23664 -2.42705 11.85
    endloop
  endfacet
  facet normal -0 0 1
    outer loop
      vertex -7.14683 0.927051 11.85
      vertex -12.8532 0.927051 11.85
      vertex -7.14683 -0.927051 11.85
    endloop
  endfacet
  facet normal 0 -0 1
    outer loop
      vertex -8.23664 2.42705 11.85
      vertex -12.8532 0.927051 11.85
      vertex -7.14683 0.927051 11.85
    endloop
  endfacet
  facet normal 0 -0 1
    outer loop
      vertex -10 3 11.85
      vertex -12.8532 0.927051 11.85
      vertex -8.23664 2.42705 11.85
    endloop
  endfacet
  facet normal 0 -0 1
    outer loop
      vertex -11.7634 2.42705 11.85
      vertex -12.8532 0.927051 11.85
      vertex -10 3 11.85
    endloop
  endfacet
  facet normal 0 0 1
    outer loop
      vertex -2.42705 -8.23664 11.85
      vertex -3 -10 11.85
      vertex -2.42705 -11.7634 11.85
    endloop
  endfacet
  facet normal -0 0 1
    outer loop
      vertex 0.927051 -12.8532 11.85
      vertex -2.42705 -8.23664 11.85
      vertex -0.927051 -12.8532 11.85
    endloop
  endfacet
  facet normal 0 0 1
    outer loop
      vertex -0.927051 -12.8532 11.85
      vertex -2.42705 -8.23664 11.85
      vertex -2.42705 -11.7634 11.85
    endloop
  endfacet
  facet normal -0 0 1
    outer loop
      vertex 2.42705 -11.7634 11.85
      vertex -2.42705 -8.23664 11.85
      vertex 0.927051 -12.8532 11.85
    endloop
  endfacet
  facet normal -0 0 1
    outer loop
      vertex 3 -10 11.85
      vertex -2.42705 -8.23664 11.85
      vertex 2.42705 -11.7634 11.85
    endloop
  endfacet
  facet normal 0 -0 1
    outer loop
      vertex 2.42705 -8.23664 11.85
      vertex -2.42705 -8.23664 11.85
      vertex 3 -10 11.85
    endloop
  endfacet
  facet normal 0 -0 1
    outer loop
      vertex 0.927051 -7.14683 11.85
      vertex -2.42705 -8.23664 11.85
      vertex 2.42705 -8.23664 11.85
    endloop
  endfacet
  facet normal 0 -0 1
    outer loop
      vertex -0.927051 -7.14683 11.85
      vertex -2.42705 -8.23664 11.85
      vertex 0.927051 -7.14683 11.85
    endloop
  endfacet
  facet normal 0 0 1
    outer loop
      vertex -2.42705 11.7634 11.85
      vertex -3 10 11.85
      vertex -2.42705 8.23664 11.85
    endloop
  endfacet
  facet normal -0 0 1
    outer loop
      vertex 0.927051 7.14683 11.85
      vertex -2.42705 11.7634 11.85
      vertex -0.927051 7.14683 11.85
    endloop
  endfacet
  facet normal 0 0 1
    outer loop
      vertex -0.927051 7.14683 11.85
      vertex -2.42705 11.7634 11.85
      vertex -2.42705 8.23664 11.85
    endloop
  endfacet
  facet normal -0 0 1
    outer loop
      vertex 2.42705 8.23664 11.85
      vertex -2.42705 11.7634 11.85
      vertex 0.927051 7.14683 11.85
    endloop
  endfacet
  facet normal -0 0 1
    outer loop
      vertex 3 10 11.85
      vertex -2.42705 11.7634 11.85
      vertex 2.42705 8.23664 11.85
    endloop
  endfacet
  facet normal -0 -0 1
    outer loop
      vertex 2.42705 11.7634 11.85
      vertex -2.42705 11.7634 11.85
      vertex 3 10 11.85
    endloop
  endfacet
  facet normal 0 -0 1
    outer loop
      vertex 0.927051 12.8532 11.85
      vertex -2.42705 11.7634 11.85
      vertex 2.42705 11.7634 11.85
    endloop
  endfacet
  facet normal 0 -0 1
    outer loop
      vertex -0.927051 12.8532 11.85
      vertex -2.42705 11.7634 11.85
      vertex 0.927051 12.8532 11.85
    endloop
  endfacet
  facet normal 0 -0 1
    outer loop
      vertex 7.14683 0.927051 11.85
      vertex 7.14683 -0.927051 11.85
      vertex 8.23664 -2.42705 11.85
    endloop
  endfacet
  facet normal -0 0 1
    outer loop
      vertex 11.7634 -2.42705 11.85
      vertex 7.14683 0.927051 11.85
      vertex 10 -3 11.85
    endloop
  endfacet
  facet normal 0 0 1
    outer loop
      vertex 10 -3 11.85
      vertex 7.14683 0.927051 11.85
      vertex 8.23664 -2.42705 11.85
    endloop
  endfacet
  facet normal -0 0 1
    outer loop
      vertex 12.8532 -0.927051 11.85
      vertex 7.14683 0.927051 11.85
      vertex 11.7634 -2.42705 11.85
    endloop
  endfacet
  facet normal -0 0 1
    outer loop
      vertex 12.8532 0.927051 11.85
      vertex 7.14683 0.927051 11.85
      vertex 12.8532 -0.927051 11.85
    endloop
  endfacet
  facet normal 0 -0 1
    outer loop
      vertex 11.7634 2.42705 11.85
      vertex 7.14683 0.927051 11.85
      vertex 12.8532 0.927051 11.85
    endloop
  endfacet
  facet normal 0 -0 1
    outer loop
      vertex 10 3 11.85
      vertex 7.14683 0.927051 11.85
      vertex 11.7634 2.42705 11.85
    endloop
  endfacet
  facet normal 0 -0 1
    outer loop
      vertex 8.23664 2.42705 11.85
      vertex 7.14683 0.927051 11.85
      vertex 10 3 11.85
    endloop
  endfacet
endsolid OpenSCAD_Model
