  0
SECTION
  2
BLOCKS
  0
ENDSEC
  0
SECTION
  2
ENTITIES
  0
LINE
  8
0
 10
-101.6
 11
-99.38
 20
0
 21
21.124
  0
LINE
  8
0
 10
-99.38
 11
-92.816
 20
21.124
 21
41.324
  0
LINE
  8
0
 10
-92.816
 11
-82.196
 20
41.324
 21
59.719
  0
LINE
  8
0
 10
-82.196
 11
-67.984
 20
59.719
 21
75.504
  0
LINE
  8
0
 10
-67.984
 11
-50.8
 20
75.504
 21
87.988
  0
LINE
  8
0
 10
-50.8
 11
-31.396
 20
87.988
 21
96.627
  0
LINE
  8
0
 10
-31.396
 11
-10.62
 20
96.627
 21
101.043
  0
LINE
  8
0
 10
-10.62
 11
10.62
 20
101.043
 21
101.043
  0
LINE
  8
0
 10
10.62
 11
31.396
 20
101.043
 21
96.627
  0
LINE
  8
0
 10
31.396
 11
50.8
 20
96.627
 21
87.988
  0
LINE
  8
0
 10
50.8
 11
67.984
 20
87.988
 21
75.504
  0
LINE
  8
0
 10
67.984
 11
82.196
 20
75.504
 21
59.719
  0
LINE
  8
0
 10
82.196
 11
92.816
 20
59.719
 21
41.324
  0
LINE
  8
0
 10
92.816
 11
99.38
 20
41.324
 21
21.124
  0
LINE
  8
0
 10
99.38
 11
101.6
 20
21.124
 21
0
  0
LINE
  8
0
 10
101.6
 11
99.38
 20
0
 21
-21.124
  0
LINE
  8
0
 10
99.38
 11
92.816
 20
-21.124
 21
-41.324
  0
LINE
  8
0
 10
92.816
 11
82.196
 20
-41.324
 21
-59.719
  0
LINE
  8
0
 10
82.196
 11
67.984
 20
-59.719
 21
-75.504
  0
LINE
  8
0
 10
67.984
 11
50.8
 20
-75.504
 21
-87.988
  0
LINE
  8
0
 10
50.8
 11
31.396
 20
-87.988
 21
-96.627
  0
LINE
  8
0
 10
31.396
 11
10.62
 20
-96.627
 21
-101.043
  0
LINE
  8
0
 10
10.62
 11
-10.62
 20
-101.043
 21
-101.043
  0
LINE
  8
0
 10
-10.62
 11
-31.396
 20
-101.043
 21
-96.627
  0
LINE
  8
0
 10
-31.396
 11
-50.8
 20
-96.627
 21
-87.988
  0
LINE
  8
0
 10
-50.8
 11
-67.984
 20
-87.988
 21
-75.504
  0
LINE
  8
0
 10
-67.984
 11
-82.196
 20
-75.504
 21
-59.719
  0
LINE
  8
0
 10
-82.196
 11
-92.816
 20
-59.719
 21
-41.324
  0
LINE
  8
0
 10
-92.816
 11
-99.38
 20
-41.324
 21
-21.124
  0
LINE
  8
0
 10
-99.38
 11
-101.6
 20
-21.124
 21
0
  0
LINE
  8
0
 10
-12.853
 11
-12.853
 20
-0.927
 21
0.927
  0
LINE
  8
0
 10
-12.853
 11
-11.763
 20
0.927
 21
2.427
  0
LINE
  8
0
 10
-11.763
 11
-10
 20
2.427
 21
3
  0
LINE
  8
0
 10
-10
 11
-8.237
 20
3
 21
2.427
  0
LINE
  8
0
 10
-8.237
 11
-7.147
 20
2.427
 21
0.927
  0
LINE
  8
0
 10
-7.147
 11
-7.147
 20
0.927
 21
-0.927
  0
LINE
  8
0
 10
-7.147
 11
-8.237
 20
-0.927
 21
-2.427
  0
LINE
  8
0
 10
-8.237
 11
-10
 20
-2.427
 21
-3
  0
LINE
  8
0
 10
-10
 11
-11.763
 20
-3
 21
-2.427
  0
LINE
  8
0
 10
-11.763
 11
-12.853
 20
-2.427
 21
-0.927
  0
LINE
  8
0
 10
-3
 11
-2.427
 20
-10
 21
-8.237
  0
LINE
  8
0
 10
-2.427
 11
-0.927
 20
-8.237
 21
-7.147
  0
LINE
  8
0
 10
-0.927
 11
0.927
 20
-7.147
 21
-7.147
  0
LINE
  8
0
 10
0.927
 11
2.427
 20
-7.147
 21
-8.237
  0
LINE
  8
0
 10
2.427
 11
3
 20
-8.237
 21
-10
  0
LINE
  8
0
 10
3
 11
2.427
 20
-10
 21
-11.763
  0
LINE
  8
0
 10
2.427
 11
0.927
 20
-11.763
 21
-12.853
  0
LINE
  8
0
 10
0.927
 11
-0.927
 20
-12.853
 21
-12.853
  0
LINE
  8
0
 10
-0.927
 11
-2.427
 20
-12.853
 21
-11.763
  0
LINE
  8
0
 10
-2.427
 11
-3
 20
-11.763
 21
-10
  0
LINE
  8
0
 10
-3
 11
-2.427
 20
10
 21
11.763
  0
LINE
  8
0
 10
-2.427
 11
-0.927
 20
11.763
 21
12.853
  0
LINE
  8
0
 10
-0.927
 11
0.927
 20
12.853
 21
12.853
  0
LINE
  8
0
 10
0.927
 11
2.427
 20
12.853
 21
11.763
  0
LINE
  8
0
 10
2.427
 11
3
 20
11.763
 21
10
  0
LINE
  8
0
 10
3
 11
2.427
 20
10
 21
8.237
  0
LINE
  8
0
 10
2.427
 11
0.927
 20
8.237
 21
7.147
  0
LINE
  8
0
 10
0.927
 11
-0.927
 20
7.147
 21
7.147
  0
LINE
  8
0
 10
-0.927
 11
-2.427
 20
7.147
 21
8.237
  0
LINE
  8
0
 10
-2.427
 11
-3
 20
8.237
 21
10
  0
LINE
  8
0
 10
-2.5
 11
-1.768
 20
0
 21
1.768
  0
LINE
  8
0
 10
-1.768
 11
0
 20
1.768
 21
2.5
  0
LINE
  8
0
 10
0
 11
1.768
 20
2.5
 21
1.768
  0
LINE
  8
0
 10
1.768
 11
2.5
 20
1.768
 21
0
  0
LINE
  8
0
 10
2.5
 11
1.768
 20
0
 21
-1.768
  0
LINE
  8
0
 10
1.768
 11
0
 20
-1.768
 21
-2.5
  0
LINE
  8
0
 10
0
 11
-1.768
 20
-2.5
 21
-1.768
  0
LINE
  8
0
 10
-1.768
 11
-2.5
 20
-1.768
 21
0
  0
LINE
  8
0
 10
7.147
 11
7.147
 20
-0.927
 21
0.927
  0
LINE
  8
0
 10
7.147
 11
8.237
 20
0.927
 21
2.427
  0
LINE
  8
0
 10
8.237
 11
10
 20
2.427
 21
3
  0
LINE
  8
0
 10
10
 11
11.763
 20
3
 21
2.427
  0
LINE
  8
0
 10
11.763
 11
12.853
 20
2.427
 21
0.927
  0
LINE
  8
0
 10
12.853
 11
12.853
 20
0.927
 21
-0.927
  0
LINE
  8
0
 10
12.853
 11
11.763
 20
-0.927
 21
-2.427
  0
LINE
  8
0
 10
11.763
 11
10
 20
-2.427
 21
-3
  0
LINE
  8
0
 10
10
 11
8.237
 20
-3
 21
-2.427
  0
LINE
  8
0
 10
8.237
 11
7.147
 20
-2.427
 21
-0.927
  0
ENDSEC
  0
SECTION
  2
OBJECTS
  0
DICTIONARY
  0
ENDSEC
  0
EOF
